<svg version="1.0" xmlns="http://www.w3.org/2000/svg" width="933.333" height="933.333" viewBox="0 0 700 700"><path d="M343.5 1.4c-1.6.7-5.2 3.8-8 6.7-13.8 15-28.2 22.2-54.5 27.4-28.2 5.6-36.4 7.8-47.9 13.2-7.8 3.6-17.1 10.4-22.1 16-4.9 5.6-10.3 16.6-12 24.3-1.6 7.2-2.1 26.9-.9 34.5 3.1 19.9 11.2 43.7 21.7 63.4l4.5 8.3-9.4-9.4c-5.2-5.2-11-10.7-12.9-12.4-19.9-17-42.1-30-56.2-32.8-1.3-.3-4.8-1-7.8-1.6-6.9-1.4-19-1.1-25.5.6-9.9 2.6-17.6 7.4-27 16.9-10.8 10.8-17.1 19.7-27.1 38.6-15.3 28.9-23.9 38.2-44.6 48.8-7.5 3.8-9.7 5.4-11.6 8.6-3.3 5.6-2.6 13.7 1.7 20.4 9 13.9 12.4 32.5 9.7 51.7-.4 2.7-1 6.5-1.2 8.4-.3 1.9-.7 4.5-.9 5.8-1.8 10.9-2.6 32.8-1.4 39.7.4 2.2 1 5.6 1.3 7.5 2.6 16.7 11.3 31 24.3 39.9 9.6 6.5 29.4 13.4 42.5 14.7 13.6 1.4 38.5.8 49.3-1.1 8.4-1.5 13.2-2.5 15.5-3.1 3.8-1 2.4-.1-8.4 5.5-17.1 9.1-40.1 25-50 34.8-10.2 10-21 27.8-24 39.3-1.4 5.4-1.5 19.9-.3 24.9 2.2 8.7 6.7 18.2 13 27.6 6.4 9.5 11 15 26.7 31.4 17.1 17.9 24.1 31.7 26.5 52.1.9 7.7 1.3 9.1 4 12.6 5.2 6.8 11.1 8.4 21.5 6 10-2.4 23.3-2 34.3.9 5.3 1.4 10.5 2.9 11.5 3.5 1.8 1 28.4 13.6 31.7 15 11.6 5 27 8.9 37.6 9.6 24 1.6 41.2-8.4 57.2-33.1 3.8-6 11.4-20.9 12.2-24 .1-.6.7-2.4 1.4-4 4.4-10.6 10.6-36.7 11.3-47.8.2-4 1.5-5.2 1.6-1.5 0 6.5 3.1 22.8 6.8 35.4 10 34.6 27.5 60.7 46.9 69.9 9.3 4.4 14.8 5.4 27.4 5 15.7-.5 29.5-4.9 56-17.7 6.8-3.3 14.2-6.7 16.5-7.5 16.1-5.9 29.9-6.7 48.6-2.8 4.7 1 10.1-.6 14.1-4.2 4-3.7 5.4-6.8 6.4-14.8 1.1-9.4 1.7-12 3.6-17.6 3.7-11.1 10.9-22.3 22.1-34 14.2-15.1 17.1-18.4 22.6-25.6 7-9.2 14.4-22.6 16.7-30.3 6.3-20.8-.8-43.9-19.9-64.7-10.3-11.3-33.4-28-53.1-38.4-11-5.8-12.2-6.5-8.5-5.5 2.3.6 8.7 1.9 15.5 3.1 18.4 3.2 49.1 2.4 63.6-1.6 17.6-4.9 27.1-9.9 36.4-19.3 15.1-15.3 19.8-34.6 17.1-69.6-.4-5.2-.9-10.4-1.1-11.5-5.4-24.6-3.2-45.9 6.2-62.2 5.8-9.9 6.6-15.7 3.1-22.3-2-3.9-3.5-5.1-10.3-8.5-21.6-10.8-30.3-19.9-44-46-5.9-11.1-14.3-25.6-15.5-26.5-.3-.3-2.3-2.8-4.3-5.7-9.1-12.5-23.3-22.9-36.2-26.6-26.9-7.6-65.1 9.1-100.1 43.8l-11.1 11 6.9-13.6c3.7-7.5 6.8-14.3 6.8-15.1 0-.8.4-1.8.9-2.4 1.3-1.4 6.9-19.7 9.2-30.4 2.2-10 3.1-30.9 1.6-40.1-1.1-7-4.2-15.4-8.2-21.9-9.4-15.5-30.4-26.9-59.5-32.5-26.6-5.1-37.1-8-47.5-13.2-8.3-4.2-13.9-8.5-21.9-17-7.5-8-13.8-10.1-21.1-6.9zm16 292.8c25.7 3 47.5 18.1 59.3 41.3 2.5 5 6.1 15.6 7 21 1.3 7.5.6 25.7-1.2 32.5-8.1 29.7-34.4 52.8-64.6 56.5-5.5.7-18.2.7-21 .1-1.4-.3-3.6-.8-5-1-28.4-5.1-53.1-29.9-59.4-59.7-1.9-9.1-1.5-25.8.8-34.4 7.8-29 31.4-50.6 61.1-55.9 8.7-1.5 12.9-1.6 23-.4z"/></svg>