<svg xmlns="http://www.w3.org/2000/svg" xmlns:xlink="http://www.w3.org/1999/xlink" viewBox="0 0 1000 600"><defs><style>.a{fill:#ff7bac;}.b{clip-path:url(#a);}.c{fill:#29abe2;}.d{fill:url(#b);}.e{fill:#fff;}</style><clipPath id="a"><rect class="a" y="-0.1" width="1000" height="523.29"/></clipPath><linearGradient id="b" x1="500" y1="375.48" x2="500" y2="599.86" gradientUnits="userSpaceOnUse"><stop offset="0" stop-color="#00dcbe"/><stop offset="1" stop-color="#0071bc"/></linearGradient></defs><rect class="a" y="-0.1" width="1000" height="523.29"/><g class="b"><polygon class="c" points="1000 75 0 675.9 0 600.8 1000 -0.1 1000 75"/><polygon class="c" points="1000 -75.2 0 525.7 0 450.6 1000 -150.3 1000 -75.2"/><polygon class="c" points="1000 -225.4 0 375.4 0 300.3 1000 -300.5 1000 -225.4"/><polygon class="c" points="1000 -375.7 0 225.2 0 150.1 1000 -450.8 1000 -375.7"/><polygon class="c" points="1000 -525.9 0 75 0 -0.1 1000 -601 1000 -525.9"/></g><path class="d" d="M0,375.5c72.9,0,92.9,59.6,166.7,59.6h0c72.9,0,92.9-59.6,166.6-59.6s92.9,59.6,166.7,59.6,92.9-59.6,166.6-59.6,92.9,59.6,166.7,59.6h0c72.9,0,92.9-59.6,166.7-59.6V599.9H0Z"/><path class="e" d="M228.5,164.3c-24.7-40.8-19.1-90.7,14.6-121.9a99.8,99.8,0,0,0-17.8,8.5c-46.6,28.2-79.2,82.3-43.4,141.5s98.8,55.8,145.4,27.6a95.5,95.5,0,0,0,16-12C300,223.6,253.2,205.3,228.5,164.3Z"/></svg>