<svg xmlns="http://www.w3.org/2000/svg" xmlns:xlink="http://www.w3.org/1999/xlink" viewBox="0 0 1000 600"><defs><style>.a{fill:url(#a);}.b{fill:#fff;}.c{fill:#1b1464;}</style><linearGradient id="a" x1="500" y1="0.06" x2="500" y2="599.94" gradientUnits="userSpaceOnUse"><stop offset="0.3" stop-color="#ffdc00"/><stop offset="1" stop-color="#fbb03b"/></linearGradient></defs><rect class="a" y="0.1" width="1000" height="599.88"/><ellipse class="b" cx="499.9" cy="299.8" rx="200" ry="200"/><rect class="c" x="364.9" y="0.2" width="17.3" height="599.14"/><rect class="c" x="399.4" y="0.2" width="17.3" height="599.14"/><rect class="c" x="244.3" y="0.2" width="17.3" height="599.14" transform="translate(505.9 599.5) rotate(180)"/><rect class="c" x="209.8" y="0.2" width="17.3" height="599.14" transform="translate(436.9 599.5) rotate(180)"/><rect class="c" x="166.7" y="0.2" width="17.3" height="599.14" transform="translate(350.6 599.5) rotate(180)"/><path class="c" d="M330.6,599.3H289.2c-1,0-1.7,1.1-1.7,0V.2h17.2V292.8c0,4.8,2.9,7,7.1,7h3.1c4.1,0,7.1-2,7.1-7V.2h17.2V599.3c0,1.1-.7,0-1.7,0Z"/><path class="c" d="M583.3-.1V599.6h17.3V406.7c0-5.1,3-7,7-7h3.2c4.2,0,7,2.2,7,7V599.6H730V-.1Z"/><rect class="c" x="781.8" y="-0.1" width="51.6" height="599.63"/></svg>