<svg xmlns="http://www.w3.org/2000/svg" xmlns:xlink="http://www.w3.org/1999/xlink" viewBox="0 0 1000 600"><defs><style>.a{fill:none;}.b{clip-path:url(#a);}.c{fill:url(#b);}.d{fill:#fff;}.e{fill:url(#c);}</style><clipPath id="a"><rect class="a" width="1000" height="600"/></clipPath><linearGradient id="b" x1="495.1" y1="308.49" x2="754.9" y2="-141.51" gradientUnits="userSpaceOnUse"><stop offset="0" stop-color="#2e3192"/><stop offset="0.7" stop-color="#1e9cd7"/></linearGradient><linearGradient id="c" x1="159.2" y1="673.82" x2="358.47" y2="328.67" gradientUnits="userSpaceOnUse"><stop offset="0.3" stop-color="#ffdc00"/><stop offset="1" stop-color="#fbb03b"/></linearGradient></defs><g class="b"><polygon class="c" points="1000 600 0 0 1000 0 1000 600"/><path d="M70.7,42.4,76,0h78.7L134,80.4ZM250,150,333.4,0H239.2L193,115.8ZM683.1,409.8,1000,321.6v-152L582.3,349.4ZM500.1,300,1000,.2V0H752.6L429.4,257.7Zm-134-80.3L577.5,0H443.1l-136,184.2ZM814.4,488.6,1000,600V463.2Z"/><polygon class="d" points="0 0 1000 600 0 600 0 0"/><path class="e" d="M70.7,42.4,0,600V0Zm63.3,38L0,600,193,115.8ZM683.1,409.8,0,600,814.4,488.6ZM500.1,300,0,600,582.3,349.4ZM250,150,0,600,307.1,184.2Zm116.1,69.7L0,600,429.4,257.7Z"/></g></svg>