<svg xmlns="http://www.w3.org/2000/svg" xmlns:xlink="http://www.w3.org/1999/xlink" width="100%" height="auto" viewBox="0 0 1000 600" preserveAspectRatio="xMidYMid meet"><defs><style>.a{fill:#f15a24;}.b{fill:none;}.c{clip-path:url(#a);}.d{fill:#1b1464;}.e{clip-path:url(#b);}.f{fill:#fff;}</style><clipPath id="a"><rect class="a" width="1000" height="600"/></clipPath><clipPath id="b"><path class="b" d="M109.5,105V495h781V105Z"/></clipPath></defs><rect class="a" width="1000" height="600"/><g class="c"><polygon class="d" points="-350 600 -400 600 0 0 50 0 -350 600"/><polygon class="d" points="-260 600 -310 600 90 0 140 0 -260 600"/><polygon class="d" points="-170 600 -220 600 180 0 230 0 -170 600"/><polygon class="d" points="-80 600 -130 600 270 0 320 0 -80 600"/><polygon class="d" points="10 600 -40 600 360 0 410 0 10 600"/><polygon class="d" points="100 600 50 600 450 0 500 0 100 600"/><polygon class="d" points="190 600 140 600 540 0 590 0 190 600"/><polygon class="d" points="280 600 230 600 630 0 680 0 280 600"/><polygon class="d" points="370 600 320 600 720 0 770 0 370 600"/><polygon class="d" points="460 600 410 600 810 0 860 0 460 600"/><polygon class="d" points="550 600 500 600 900 0 950 0 550 600"/><polygon class="d" points="640 600 590 600 990 0 1040 0 640 600"/><polygon class="d" points="730 600 680 600 1080 0 1130 0 730 600"/><polygon class="d" points="820 600 770 600 1170 0 1220 0 820 600"/><polygon class="d" points="910 600 860 600 1260 0 1310 0 910 600"/><polygon class="d" points="1000 600 950 600 1350 0 1400 0 1000 600"/></g><path class="a" d="M55,52.5v495H945V52.5Z"/><g class="e"><polygon class="f" points="-350 600 -400 600 0 0 50 0 -350 600"/><polygon class="f" points="-260 600 -310 600 90 0 140 0 -260 600"/><polygon class="f" points="-170 600 -220 600 180 0 230 0 -170 600"/><polygon class="f" points="-80 600 -130 600 270 0 320 0 -80 600"/><polygon class="f" points="10 600 -40 600 360 0 410 0 10 600"/><polygon class="f" points="100 600 50 600 450 0 500 0 100 600"/><polygon class="f" points="190 600 140 600 540 0 590 0 190 600"/><polygon class="f" points="280 600 230 600 630 0 680 0 280 600"/><polygon class="f" points="370 600 320 600 720 0 770 0 370 600"/><polygon class="f" points="460 600 410 600 810 0 860 0 460 600"/><polygon class="f" points="550 600 500 600 900 0 950 0 550 600"/><polygon class="f" points="640 600 590 600 990 0 1040 0 640 600"/><polygon class="f" points="730 600 680 600 1080 0 1130 0 730 600"/><polygon class="f" points="820 600 770 600 1170 0 1220 0 820 600"/><polygon class="f" points="910 600 860 600 1260 0 1310 0 910 600"/><polygon class="f" points="1000 600 950 600 1350 0 1400 0 1000 600"/></g></svg>