<svg xmlns="http://www.w3.org/2000/svg" viewBox="0 0 1000 600"><defs><style>.a{fill:#fff;}.b{fill:#ffdc00;}.c{fill:#ed1e79;}.d{fill:#2e3192;}</style></defs><rect class="a" y="0.1" width="100" height="100"/><rect class="b" x="100" y="0.1" width="100" height="100"/><rect class="a" x="200" y="0.1" width="100" height="100"/><rect class="b" x="300" y="0.1" width="100" height="100"/><rect class="a" x="400" y="0.1" width="100" height="100"/><rect class="c" x="500" y="0.1" width="100" height="100"/><rect class="a" x="600" y="0.1" width="100" height="100"/><rect class="d" x="700" y="0.1" width="100" height="100"/><rect class="a" x="800" y="0.1" width="100" height="100"/><rect class="d" x="900" y="0.1" width="100" height="100"/><rect class="a" x="900" y="100.1" width="100" height="100"/><rect class="d" x="800" y="100.1" width="100" height="100" transform="translate(1700 300.3) rotate(180)"/><rect class="a" x="700" y="100.1" width="100" height="100"/><rect class="c" x="600" y="100.1" width="100" height="100" transform="translate(1300 300.3) rotate(180)"/><rect class="a" x="500" y="100.1" width="100" height="100"/><rect class="b" x="400" y="100.1" width="100" height="100" transform="translate(900 300.3) rotate(180)"/><rect class="a" x="300" y="100.1" width="100" height="100"/><rect class="b" x="200" y="100.1" width="100" height="100" transform="translate(500 300.3) rotate(180)"/><rect class="a" x="100" y="100.1" width="100" height="100"/><rect class="c" y="100.1" width="100" height="100" transform="translate(100 300.3) rotate(180)"/><rect class="a" y="200.1" width="100" height="100"/><rect class="c" x="100" y="200.1" width="100" height="100"/><rect class="a" x="200" y="200.1" width="100" height="100"/><rect class="b" x="300" y="200.1" width="100" height="100"/><rect class="a" x="400" y="200.1" width="100" height="100"/><rect class="b" x="500" y="200.1" width="100" height="100"/><rect class="a" x="600" y="200.1" width="100" height="100"/><rect class="c" x="700" y="200.1" width="100" height="100"/><rect class="a" x="800" y="200.1" width="100" height="100"/><rect class="d" x="900" y="200.1" width="100" height="100"/><rect class="a" x="900" y="300.1" width="100" height="100"/><rect class="c" x="800" y="300.1" width="100" height="100" transform="translate(1700 700.3) rotate(180)"/><rect class="a" x="700" y="300.1" width="100" height="100"/><rect class="b" x="600" y="300.1" width="100" height="100" transform="translate(1300 700.3) rotate(180)"/><rect class="a" x="500" y="300.1" width="100" height="100"/><rect class="b" x="400" y="300.1" width="100" height="100" transform="translate(900 700.3) rotate(180)"/><rect class="a" x="300" y="300.1" width="100" height="100"/><rect class="c" x="200" y="300.1" width="100" height="100" transform="translate(500 700.3) rotate(180)"/><rect class="a" x="100" y="300.1" width="100" height="100"/><rect class="d" y="300.1" width="100" height="100" transform="translate(100 700.3) rotate(180)"/><rect class="a" y="400.1" width="100" height="100"/><rect class="d" x="100" y="400.1" width="100" height="100"/><rect class="a" x="200" y="400.1" width="100" height="100"/><rect class="c" x="300" y="400.1" width="100" height="100"/><rect class="a" x="400" y="400.1" width="100" height="100"/><rect class="b" x="500" y="400.1" width="100" height="100"/><rect class="a" x="600" y="400.1" width="100" height="100"/><rect class="b" x="700" y="400.1" width="100" height="100"/><rect class="a" x="800" y="400.1" width="100" height="100"/><rect class="c" x="900" y="400.1" width="100" height="100"/><rect class="a" x="900" y="500.1" width="100" height="100"/><rect class="b" x="800" y="500.1" width="100" height="100" transform="translate(1700 1100.3) rotate(180)"/><rect class="a" x="700" y="500.1" width="100" height="100"/><rect class="b" x="600" y="500.1" width="100" height="100" transform="translate(1300 1100.3) rotate(180)"/><rect class="a" x="500" y="500.1" width="100" height="100"/><rect class="c" x="400" y="500.1" width="100" height="100" transform="translate(900 1100.3) rotate(180)"/><rect class="a" x="300" y="500.1" width="100" height="100"/><rect class="d" x="200" y="500.1" width="100" height="100" transform="translate(500 1100.3) rotate(180)"/><rect class="a" x="100" y="500.1" width="100" height="100"/><rect class="d" y="500.1" width="100" height="100" transform="translate(100 1100.3) rotate(180)"/></svg>