<svg xmlns="http://www.w3.org/2000/svg" viewBox="0 0 1000 600"><defs><style>.a{fill:#fff;}.b{fill:#009245;}</style></defs><rect class="a" width="1000" height="600"/><path d="M0,465c72.9,0,92.9,34.9,166.7,34.9h0c72.9,0,92.9-34.9,166.6-34.9s92.9,34.9,166.7,34.9S592.9,465,666.6,465s92.9,34.9,166.7,34.9h0c72.9,0,92.9-34.9,166.7-34.9V600H0Z"/><path d="M1000,135c-72.9,0-92.9-34.9-166.7-34.9h0c-72.9,0-92.9,34.9-166.6,34.9S573.8,100.1,500,100.1,407.1,135,333.4,135s-92.9-34.9-166.7-34.9h0C93.8,100.1,73.8,135,0,135V0H1000Z"/><path class="b" d="M573.7,323.4,585,312.1a17.1,17.1,0,0,0,0-24.2l-11.3-11.3a17.2,17.2,0,0,1-5-12.2V248.5a17.2,17.2,0,0,0-17.2-17.2H535.6a17.2,17.2,0,0,1-12.2-5L512.1,215a17.1,17.1,0,0,0-24.2,0l-11.3,11.3a17.2,17.2,0,0,1-12.2,5H448.5a17.2,17.2,0,0,0-17.2,17.2v15.9a17.2,17.2,0,0,1-5,12.2L415,287.9a17.1,17.1,0,0,0,0,24.2l11.3,11.3a17.2,17.2,0,0,1,5,12.2v15.9a17.2,17.2,0,0,0,17.2,17.2h15.9a17.2,17.2,0,0,1,12.2,5L487.9,385a17.1,17.1,0,0,0,24.2,0l11.3-11.3a17.2,17.2,0,0,1,12.2-5h15.9a17.2,17.2,0,0,0,17.2-17.2V335.6A17.2,17.2,0,0,1,573.7,323.4Z"/><path class="b" d="M907,323.4l11.3-11.3a17.1,17.1,0,0,0,0-24.2L907,276.6a17.2,17.2,0,0,1-5-12.2V248.5a17.2,17.2,0,0,0-17.2-17.2H868.9a17.4,17.4,0,0,1-12.2-5L845.5,215a17.2,17.2,0,0,0-24.3,0l-11.3,11.3a17.2,17.2,0,0,1-12.1,5h-16a17.1,17.1,0,0,0-17.1,17.2v15.9a17.3,17.3,0,0,1-5.1,12.2l-11.2,11.3a16.9,16.9,0,0,0,0,24.2l11.2,11.3a17.3,17.3,0,0,1,5.1,12.2v15.9a17.1,17.1,0,0,0,17.1,17.2h16a17.2,17.2,0,0,1,12.1,5L821.2,385a17.2,17.2,0,0,0,24.3,0l11.2-11.3a17.4,17.4,0,0,1,12.2-5h15.9A17.2,17.2,0,0,0,902,351.5V335.6A17.2,17.2,0,0,1,907,323.4Z"/><path class="b" d="M240.4,323.4l11.3-11.3a17.1,17.1,0,0,0,0-24.2l-11.3-11.3a17.2,17.2,0,0,1-5-12.2V248.5a17.2,17.2,0,0,0-17.2-17.2h-16a17.2,17.2,0,0,1-12.1-5L178.8,215a17.1,17.1,0,0,0-24.2,0l-11.3,11.3a17.2,17.2,0,0,1-12.2,5H115.2A17.2,17.2,0,0,0,98,248.5v15.9a17.2,17.2,0,0,1-5,12.2L81.7,287.9a17.1,17.1,0,0,0,0,24.2L93,323.4a17.2,17.2,0,0,1,5,12.2v15.9a17.2,17.2,0,0,0,17.2,17.2h15.9a17.2,17.2,0,0,1,12.2,5L154.6,385a17.1,17.1,0,0,0,24.2,0l11.3-11.3a17.2,17.2,0,0,1,12.1-5h16a17.2,17.2,0,0,0,17.2-17.2V335.6A17.2,17.2,0,0,1,240.4,323.4Z"/></svg>