<svg xmlns="http://www.w3.org/2000/svg" viewBox="0 0 1000 600">
  <defs/>
  <style>
    .st0{fill:#ff7bac}
  </style>
  <path d="M0 .1h999.9V600H0z" class="st0"/>
  <linearGradient id="SVGID_1_" x1="1606.2966" x2="1606.2966" y1="-465.9139" y2="69.1501" gradientTransform="rotate(-90 1418.5585 487.7054)" gradientUnits="userSpaceOnUse">
    <stop offset="0" stop-color="#00dcbe"/>
    <stop offset="1" stop-color="#0071bc"/>
  </linearGradient>
  <path fill="url(#SVGID_1_)" d="M464.9 599.9c0-65.6 71.4-83.6 71.4-150 0-65.6-71.4-83.6-71.4-150 0-65.6 71.4-83.6 71.4-150 0-65.6-71.4-83.6-71.4-150L1000 0v599.9H464.9z"/>
  <linearGradient id="SVGID_2_" x1="167.2935" x2="435.5711" y1="296.8686" y2="296.8686" gradientTransform="rotate(31.152 309.9792 282.956)" gradientUnits="userSpaceOnUse">
    <stop offset="0" stop-color="#00dcbe"/>
    <stop offset="1" stop-color="#0071bc"/>
  </linearGradient>
  <path fill="url(#SVGID_2_)" d="M242.8 299.9c.1-72.5 46.4-133 114.8-147-9.6-1.9-19.6-3-29.8-3-82.9.1-167.7 44.8-167.8 149.9 0 105.1 84.7 150.2 167.5 150.1 10.3 0 20.4-1.1 30.1-3.1-68.4-13.7-114.9-74.3-114.8-146.9z"/>
  <path fill="#fff" d="M767.1 300c-.1 72.5-46.4 133-114.8 147 9.6 1.9 19.6 3 29.8 3 82.8-.1 167.6-44.8 167.7-149.8S765.2 149.9 682.4 150c-10.3 0-20.4 1.1-30.1 3.1 68.4 13.7 114.9 74.3 114.8 146.9z"/>
</svg>