<svg xmlns="http://www.w3.org/2000/svg" xmlns:xlink="http://www.w3.org/1999/xlink" viewBox="0 0 1000 600"><defs><style>.a{fill:#ff7bac;}.b{fill:#ffdc00;}.c{clip-path:url(#a);}.d{fill:#29abe2;}</style><clipPath id="a"><rect class="a" y="699.9" width="1000" height="523.29"/></clipPath></defs><path d="M0,500H180.8c105.2,0,163.7-20.3,211.4-75.7C445.7,362,554.3,238,607.8,175.7,655.5,120.2,714,100,819.2,100H1000V0H0Z"/><path class="b" d="M1000,100H819.2c-105.2,0-163.7,20.3-211.4,75.7C554.3,238,445.7,362,392.2,424.3,344.5,479.8,286,500,180.8,500H0V600H1000Z"/><path d="M572.2,600c53.5-62.3,162.1-187,215.6-249.3,47.7-55.4,107-75.7,212.2-75.7V600Z"/><path class="b" d="M427.8,0C374.3,62.3,265.7,187,212.2,249.3,164.5,304.7,105.2,325,0,325V0Z"/><rect class="a" y="699.9" width="1000" height="523.29"/><g class="c"><polygon class="d" points="1000 624.8 0 1225.7 0 1150.6 1000 549.7 1000 624.8"/><polygon class="d" points="1000 474.6 0 1075.4 0 1000.3 1000 399.5 1000 474.6"/><polygon class="d" points="1000 324.3 0 925.2 0 850.1 1000 249.2 1000 324.3"/><polygon class="d" points="1000 174.1 0 775 0 699.9 1000 99 1000 174.1"/></g></svg>