<svg xmlns="http://www.w3.org/2000/svg" xmlns:xlink="http://www.w3.org/1999/xlink" viewBox="0 0 1000 600"><defs><style>.a{fill:none;}.b{clip-path:url(#a);}.c{clip-path:url(#b);}.d{fill:#29abe2;}.e{fill:#d4145a;}.f{fill:#fff;}</style><clipPath id="a"><polygon class="a" points="1000 1300 0 700 1000 700 1000 1300"/></clipPath><clipPath id="b"><polygon class="a" points="0 700 1000 1300 0 1300 0 700"/></clipPath></defs><g class="b"><polygon points="1000 625.1 0 1224.9 0 1150 1000 550.1 1000 625.1"/><polygon points="1000 475.1 0 1075 0 1000 1000 400.1 1000 475.1"/><polygon points="1000 325.1 0 925 0 850 1000 250.1 1000 325.1"/><polygon points="1000 175.1 0 775 0 700 1000 100.1 1000 175.1"/></g><g class="c"><polygon class="d" points="0 625 1000 25.1 1000 100.1 0 700 0 625"/><polygon class="d" points="0 775 1000 175.1 1000 250.1 0 850 0 775"/><polygon class="d" points="0 925 1000 325.1 1000 400.1 0 1000 0 925"/><polygon class="d" points="0 1075 1000 475.1 1000 550.1 0 1150 0 1075"/></g><rect class="e" width="1000" height="600"/><circle class="f" cx="500" cy="300" r="200"/><path class="d" d="M635.8,251.1c-8-3-13.2-8.2-18.5-18.6-13.3-26.2-26.4-27.2-43.3-19.8-7.9,3.5-16.1,10.6-24.1,19.3,5.8-10.2,10-20.2,11-28.9,1.7-18.2-3.2-30.4-32.3-35-11.6-1.8-18.1-5.2-23.4-11.8a6.8,6.8,0,0,0-10.4,0c-5.3,6.6-11.8,10-23.4,11.8-29.1,4.6-34,16.8-32.3,35,1,8.7,5.2,18.7,11,28.9-8-8.7-16.2-15.8-24.1-19.3-16.9-7.4-30-6.4-43.3,19.8-5.3,10.4-10.5,15.6-18.5,18.6a6.8,6.8,0,0,0-3.2,9.8c4.7,7.1,5.8,14.4,4,25.9-4.6,29.1,5.4,37.6,23.4,41.5,8.5,1.8,19.3.9,30.8-1.5-10.7,4.9-20,10.5-25.8,16.9-12.2,13.8-15.3,26.6,5.5,47.3,8.3,8.3,11.6,14.8,12,23.3a6.8,6.8,0,0,0,8.4,6.1c8.2-2.2,15.4-1.1,25.9,4.2,26.2,13.4,37.4,6.4,46.7-9.4,4.3-7.5,6.7-18.1,8.1-29.8,1.4,11.7,3.8,22.3,8.1,29.8,9.3,15.8,20.5,22.8,46.7,9.4,10.5-5.3,17.7-6.4,25.9-4.2a6.8,6.8,0,0,0,8.4-6.1c.4-8.5,3.7-15,12-23.3,20.8-20.7,17.7-33.5,5.5-47.3-5.8-6.4-15.2-12-25.8-16.9,11.5,2.4,22.3,3.3,30.8,1.5,18-3.9,28-12.4,23.4-41.5-1.8-11.5-.7-18.8,4-25.9A6.8,6.8,0,0,0,635.8,251.1ZM500,300.6Z"/></svg>