<svg xmlns="http://www.w3.org/2000/svg" viewBox="0 0 1000 600"><defs><linearGradient id="a" x1="500" x2="500" y2="600" gradientUnits="userSpaceOnUse"><stop offset=".3" stop-color="#ffdc00"/><stop offset="1" stop-color="#fbb03b"/></linearGradient></defs><path fill="url(#a)" d="M0 0h1000v600H0z"/><circle cx="499.9" cy="299.8" fill="#fff" r="200"/><path d="M364.9 0h17.3v600h-17.3zm34.5 0h17.3v600h-17.3zM244.3 0h17.3v600h-17.3zm-34.5 0h17.3v600h-17.3zm-43.1 0H184v600h-17.3zm163.9 600h-43.1V0h17.2v292.8c0 4.9 2.9 7 7.1 7h3.1c4.1 0 7.1-1.9 7.1-7V0h17.2v600h-8.6zM583.3 0v600h17.3V406.8c0-5.1 3-7 7-7h3.2c4.2 0 7 2.1 7 7V600H730V0zm198.5 0h51.6v600h-51.6z" fill="#1b1464"/></svg>