<svg xmlns="http://www.w3.org/2000/svg" viewBox="0 0 1000 600"><defs><clipPath id="a"><path class="a" d="M0-700h1000v600H0z"/></clipPath><style>.a{fill:#d4145a}</style></defs><path class="a" d="M0-700h1000v600H0z"/><g clip-path="url(#a)"><path d="M-87.859-222.159l1020.63-613.256 154.51 257.15L66.653 34.991z"/></g><path fill="#fff" d="M0 0h1000v600H0z"/><path d="M27.7 286.5h944.6v25.89H27.7zm0 51.8h944.6v25.89H27.7zm0 51.8h944.6v25.89H27.7zm0 51.8h944.6v25.89H27.7zm0 51.8h944.6v25.89H27.7zm0 51.8h944.6v25.89H27.7zm0-310.8h667.8v25.89H27.7zm0-51.2h667.8v25.89H27.7zm0-51.8h667.8v25.89H27.7zm0-51.8h667.8v25.89H27.7zm0-51.3h667.8v25.89H27.7z" fill="#22b573"/><path d="M944.6 28.6h27.7v232.01h-27.7zm-55.3 0H917v232.01h-27.7zm-55.4 0h27.7v232.01h-27.7zm-55.3 0h27.7v232.01h-27.7zm-55.4 0h27.7v232.01h-27.7z" fill="#ed1c24"/></svg>