<svg xmlns="http://www.w3.org/2000/svg" viewBox="0 0 1000 600"><defs><linearGradient id="b" x1="495.1" y1="308.49" x2="754.9" y2="-141.51" gradientUnits="userSpaceOnUse"><stop offset="0" stop-color="#2e3192"/><stop offset=".7" stop-color="#1e9cd7"/></linearGradient><linearGradient id="c" x1="159.2" y1="673.82" x2="358.47" y2="328.67" gradientUnits="userSpaceOnUse"><stop offset=".3" stop-color="#ffdc00"/><stop offset="1" stop-color="#fbb03b"/></linearGradient><clipPath id="a"><path fill="none" d="M0 0h1000v600H0z"/></clipPath></defs><g clip-path="url(#a)"><path fill="url(#b)" d="M1000 600L0 0h1000v600z"/><path d="M70.7 42.4L76 0h78.7L134 80.4zM250 150L333.4 0h-94.2L193 115.8zm433.1 259.8l316.9-88.2v-152L582.3 349.4zM500.1 300L1000 .2V0H752.6L429.4 257.7zm-134-80.3L577.5 0H443.1l-136 184.2zm448.3 268.9L1000 600V463.2z"/><path fill="#fff" d="M0 0l1000 600H0V0z"/><path d="M70.7 42.4L0 600V0zm63.3 38L0 600l193-484.2zm549.1 329.4L0 600l814.4-111.4zM500.1 300L0 600l582.3-250.6zM250 150L0 600l307.1-415.8zm116.1 69.7L0 600l429.4-342.3z" fill="url(#c)"/></g></svg>