<svg xmlns="http://www.w3.org/2000/svg" viewBox="0 0 1000 600"><defs><clipPath id="a"><path class="a" d="M-1100 0h1000v600h-1000z"/></clipPath><clipPath id="b"><path d="M-990.5 105v390h781V105z" fill="none"/></clipPath><style>.a{fill:#f15a24}.h{fill:#ff7bac}</style></defs><path class="a" d="M-1100 0h1000v600h-1000z"/><g clip-path="url(#a)"><path d="M-370 600h-50L-20 0h50l-400 600zm90 0h-50L70 0h50l-400 600zm90 0h-50L160 0h50l-400 600zm90 0h-50L250 0h50l-400 600z" fill="#1b1464"/></g><g clip-path="url(#b)"><path d="M-370 600h-50L-20 0h50l-400 600zm90 0h-50L70 0h50l-400 600zm90 0h-50L160 0h50l-400 600zm90 0h-50L250 0h50l-400 600z" fill="#fff"/></g><path fill="#29abe2" d="M0 0h1000v600H0z"/><rect class="h" x="110.8" y="111.1" width="111.1" height="377.78" rx="55.6"/><rect class="h" x="333" y="111.1" width="111.1" height="377.78" rx="55.6"/><rect class="h" x="555.3" y="111.1" width="111.1" height="377.78" rx="55.6"/><rect class="h" x="777.5" y="111.1" width="111.1" height="377.78" rx="55.6"/></svg>