<svg xmlns="http://www.w3.org/2000/svg" xmlns:xlink="http://www.w3.org/1999/xlink" viewBox="0 0 1000 600"><defs><linearGradient id="a" x1="561.2" y1="-747.07" x2="428.44" y2="5.85" gradientUnits="userSpaceOnUse"><stop offset="0" stop-color="#1e9cd7"/><stop offset="1" stop-color="#2e3192"/></linearGradient><linearGradient id="d" x1="500" x2="500" y2="600" gradientUnits="userSpaceOnUse"><stop offset="0" stop-color="#ffdc00"/><stop offset=".08" stop-color="#edd807"/><stop offset=".25" stop-color="#bccf19"/><stop offset=".49" stop-color="#70c036"/><stop offset=".65" stop-color="#39b54a"/><stop offset=".75" stop-color="#2ba345"/><stop offset=".95" stop-color="#08733a"/><stop offset=".99" stop-color="#006837"/></linearGradient><linearGradient id="e" x1="500" y1="599.59" x2="500" y2="0" xlink:href="#d"/><clipPath id="c"><path class="a" d="M0-700h1000v600H0z"/></clipPath><style>.a{fill:url(#a)}.c{fill:none;stroke:#009245;stroke-miterlimit:10;stroke-width:11px}.h{fill:#fff}.j{fill:#269b44}.k{fill:#13823d}</style></defs><path class="a" d="M0-700h1000v600H0z"/><g clip-path="url(#c)"><path class="c" d="M413.1-260.9c-59.2 65.9-82 109.1-86.5 247.8s23.1 165 23.1 165M581-396.4C555.8-367.2 461.2-239.1 439.9-143s-63.3 299.7-62.6 312.7"/><path class="c" d="M356-440.5c37.3 27.5 54.9 189.5 66.3 278.2S448 151.9 448 151.9"/></g><path fill="url(#d)" d="M0 0h1000v600H0z"/><path fill="#ffdc00" d="M125 0L0 120.1h125V0z"/><path d="M250 0L125 120.1h125V0zM125 119.9L0 240h125V119.9z" fill="#bdcf19"/><path d="M125 239.8L0 359.8h125v-120zm125-119.9L125 240h125V119.9z" fill="#7bc231"/><path class="h" d="M375 0L250 120.1h125V0z"/><path d="M500 0L375 120.1h125V0zM375 119.9L250 240h125V119.9zM250 239.3L125 359.4h125V239.3zM125 359.6L0 479.7h125V359.6z" fill="#39b54a"/><path class="j" d="M125 479.5L0 599.6h125V479.5z"/><path class="h" d="M250 359.6L125 479.7h125V359.6z"/><path class="j" d="M375 239.3L250 359.4h125V239.3zm125-119.4L375 240h125V119.9zM625 0L500 120.1h125V0z"/><path class="k" d="M750 0L625 120.1h125V0z"/><path class="h" d="M625 119.9L500 240h125V119.9z"/><path class="k" d="M500 239.3L375 359.4h125V239.3zM375 359.6L250 479.7h125V359.6zM250 479.9L125 600h125V479.9z"/><path d="M375 479.9L250 600h125V479.9zm125-120.3L375 479.7h125V359.6zm125-119.8l-125 120h125v-120zm125-119.9L625 240h125V119.9zM875 0L750 120.1h125V0z" fill="#006837"/><path d="M0 0h125L0 120.1zm0 240l125-120.1H0zm0 119.8l125-120H0zm0 119.9l125-120.1H0zm0 119.9l125-120.1H0zm125-479.5L250 0H125zm0 119.9l125-120.1H125zm0 119.8l125-120H125zm0 119.9l125-120.1H125zm125-359.6L375 0H250zm0 119.9l125-120.1H250zm0 119.8l125-120H250zm125-239.7L500 0H375zm0 119.9l125-120.1H375zm125-119.9L625 0H500zM125 599.6l125-120.1H125zm125-119.9l125-120.1H250zm125-119.9l125-120H375zM500 240l125-120.1H500zm125-119.9L750 0H625zM250 599.6l125-120.1H250zm125-119.9l125-120.1H375zm125-119.9l125-120H500zM625 240l125-120.1H625zm125-119.9L875 0H750zM375 599.6l125-120.1H375zm125-119.9l125-120.1H500zm125-119.9l125-120H625zM750 240l125-120.1H750zm125-119.9L1000 0H875z" fill="url(#e)"/></svg>