<svg xmlns="http://www.w3.org/2000/svg" viewBox="0 0 1000 600"><defs><linearGradient id="b" x1="500" y1="375.48" x2="500" y2="599.86" gradientUnits="userSpaceOnUse"><stop offset="0" stop-color="#00dcbe"/><stop offset="1" stop-color="#0071bc"/></linearGradient><clipPath id="a"><path class="a" d="M0-.1h1000v523.29H0z"/></clipPath><style>.a{fill:#ff7bac}</style></defs><path class="a" d="M0-.1h1000v523.29H0z"/><g clip-path="url(#a)"><path d="M1000 75L0 675.9v-75.1L1000-.1V75zm0-150.2L0 525.7v-75.1l1000-600.9v75.1zm0-150.2L0 375.4v-75.1l1000-600.8v75.1zm0-150.3L0 225.2v-75.1l1000-600.9v75.1zm0-150.2L0 75V-.1L1000-601v75.1z" fill="#29abe2"/></g><path d="M0 375.5c72.9 0 92.9 59.6 166.7 59.6 72.9 0 92.9-59.6 166.6-59.6s92.9 59.6 166.7 59.6 92.9-59.6 166.6-59.6 92.9 59.6 166.7 59.6c72.9 0 92.9-59.6 166.7-59.6v224.4H0z" fill="url(#b)"/><path d="M228.5 164.3c-24.7-40.8-19.1-90.7 14.6-121.9a99.8 99.8 0 00-17.8 8.5c-46.6 28.2-79.2 82.3-43.4 141.5s98.8 55.8 145.4 27.6a95.5 95.5 0 0016-12c-43.3 15.6-90.1-2.7-114.8-43.7z" fill="#fff"/></svg>