<svg xmlns="http://www.w3.org/2000/svg" viewBox="0 0 1000 600"><defs><clipPath id="a"><path class="a" d="M1000-100L0-700h1000v600z"/></clipPath><clipPath id="b"><path class="a" d="M0-700l1000 600H0v-600z"/></clipPath><style>.a{fill:none}.b{fill:#29abe2}.d{fill:#fff}</style></defs><path class="b" d="M0 300h1000v300H0z"/><path fill="#ffdc00" d="M0 0h1000v300H0z"/><path class="d" d="M730.5 331.8h-.2l-.8.6c-28.1 19.2-47.5 44.3-47 78.6s19 59.8 47 78.9l.2.2.9-.7c28-19.1 47.4-44.3 46.9-78.5s-19-59.9-47-79.1z"/><path class="b" d="M729.5 268.2h.2l.9-.6c28-19.2 47.4-44.3 46.9-78.6s-19-59.8-47-78.9c0-.1-.1-.1-.2-.2a2.7 2.7 0 00-.8.7c-28.1 19.1-47.5 44.3-47 78.5s19 59.9 47 79.1z"/><path class="d" d="M540.7 300.5c19.1 28.1 44.3 47.5 78.5 47s59.8-19 79-47v-.2c0-.1-.1-.2-.2-.3H540.2c.2.2.3.4.5.5z"/><path class="b" d="M619.1 252.5c-34.7-.4-59.8 19-78.9 47-.1 0-.1.1-.2.2s.2.2.2.3h157.9l-.4-.5c-19.2-28.1-44.3-47.5-78.6-47z"/><path class="d" d="M761.9 300l.4.5c19.2 28.1 44.3 47.5 78.6 47s59.8-19 78.9-47c.1 0 .1-.1.2-.2s-.2-.2-.2-.3z"/><path class="b" d="M919.3 299.5c-19.1-28.1-44.3-47.5-78.5-47s-59.8 19-79 47v.2l.2.3h157.8c-.2-.2-.3-.4-.5-.5zm-308.8-84.9c17.3 17.6 36.9 23.3 56.6 22.9h.1v-.7c.5-19.7-5.2-39.3-22.7-56.4s-36.9-23.3-56.6-22.9h-.1v.7c-.5 19.7 5.2 39.3 22.7 56.4z"/><path class="d" d="M849.6 385.4c-17.3-17.6-37-23.3-56.7-22.9h-.1v.7c-.5 19.7 5.2 39.3 22.7 56.4s36.9 23.3 56.6 22.9h.2a1.5 1.5 0 01-.1-.7c.5-19.7-5.2-39.3-22.6-56.4zm-182.1-22.6h-.7c-19.7-.5-39.3 5.2-56.4 22.7s-23.3 36.9-22.9 56.6v.2h.7c19.7.5 39.3-5.2 56.4-22.6s23.3-37 22.9-56.7z"/><path class="b" d="M792.5 237.2h.7c19.7.5 39.3-5.2 56.4-22.7s23.3-36.9 22.9-56.6h-.7c-19.7-.5-39.3 5.2-56.4 22.7s-23.3 36.9-22.9 56.6z"/><path class="d" d="M270.5 331.8h-.2l-.8.6c-28.1 19.2-47.5 44.3-47 78.6s19 59.8 47 78.9l.2.2.9-.7c28-19.1 47.4-44.3 46.9-78.5s-19-59.9-47-79.1z"/><path class="b" d="M269.5 268.2h.2l.9-.6c28-19.2 47.4-44.3 46.9-78.6s-19-59.8-47-78.9c0-.1-.1-.1-.2-.2a2.7 2.7 0 00-.8.7c-28.1 19.1-47.5 44.3-47 78.5s19 59.9 47 79.1z"/><path class="d" d="M80.7 300.5c19.1 28.1 44.3 47.5 78.5 47s59.8-19 79-47v-.2c0-.1-.1-.2-.2-.3H80.2z"/><path class="b" d="M159.1 252.5c-34.7-.4-59.8 19-78.9 47-.1 0-.1.1-.2.2s.2.2.2.3h157.9l-.4-.5c-19.2-28.1-44.3-47.5-78.6-47z"/><path class="d" d="M302.3 300.5c19.2 28.1 44.3 47.5 78.6 47s59.8-19 78.9-47l.2-.2c-.1-.1-.2-.2-.2-.3H301.9z"/><path class="b" d="M380.8 252.5c-34.7-.4-59.8 19-79 47v.2l.2.3h157.8l-.5-.5c-19.1-28.1-44.3-47.5-78.5-47zm-230.3-37.9c17.3 17.6 36.9 23.3 56.6 22.9h.1v-.7c.5-19.7-5.2-39.3-22.7-56.4s-36.9-23.3-56.6-22.9h-.1v.7c-.5 19.7 5.2 39.3 22.7 56.4z"/><path class="d" d="M389.6 385.4c-17.3-17.6-37-23.3-56.7-22.9h-.1v.7c-.5 19.7 5.2 39.3 22.7 56.4s36.9 23.3 56.6 22.9h.2a1.5 1.5 0 01-.1-.7c.5-19.7-5.2-39.3-22.6-56.4zm-182.1-22.6h-.7c-19.7-.5-39.3 5.2-56.4 22.7s-23.3 36.9-22.9 56.6v.2h.7c19.7.5 39.3-5.2 56.4-22.6s23.3-37 22.9-56.7z"/><path class="b" d="M332.5 237.2h.7c19.7.5 39.3-5.2 56.4-22.7s23.3-36.9 22.9-56.6h-.7c-19.7-.5-39.3 5.2-56.4 22.7s-23.3 36.9-22.9 56.6z"/><g clip-path="url(#a)"><path d="M1000-25L0 574.9v-75L1000-100v75zm0-150L0 424.9v-75L1000-250v75zm0-150L0 274.9v-75L1000-400v75zm0-150L0 124.9v-75L1000-550v75z"/></g><g clip-path="url(#b)"><path class="b" d="M0-25.1l1000-599.8v74.9L0 49.9v-75zm0 150L1000-475v75L0 199.9v-75zm0 150L1000-325v75L0 349.9v-75zm0 150L1000-175v75L0 499.9v-75z"/></g></svg>