<svg xmlns="http://www.w3.org/2000/svg" viewBox="0 0 1000 600"><defs><style>.a{fill:#f15a24}.b{fill:#1b1464}</style></defs><path class="a" d="M0 300h1000v300H0z"/><path class="b" d="M0 0h1000v300H0z"/><path fill="#fff" d="M1000 320l-125.7 70-124.8-70-124.8 70L500 320l-124.8 70-124.7-70-124.8 70L0 320V210.1L125.7 280l124.8-70 124.7 70L500 210l124.7 70 124.8-70 124.8 70 125.7-69.9V320z"/><circle class="a" cx="125.7" cy="120" r="45"/><circle class="a" cx="375.2" cy="120" r="45"/><circle class="a" cx="624.7" cy="120" r="45"/><circle class="a" cx="874.2" cy="120" r="45"/><circle class="b" cx="250.5" cy="480" r="45"/><circle class="b" cx="500" cy="480" r="45"/><circle class="b" cx="749.5" cy="480" r="45"/></svg>