<svg xmlns="http://www.w3.org/2000/svg" viewBox="0 0 1000 600"><defs><clipPath id="a"><path class="a" d="M0 0h1000v600H0z"/></clipPath><style>.a{fill:#d4145a}</style></defs><path class="a" d="M0 0h1000v600H0z"/><g clip-path="url(#a)"><path d="M-87.532 477.658L933.097-135.598l154.511 257.15L66.98 734.809z"/></g><path d="M832.4 171l29.3-29.3-29.3-29.3-1.1-42.4-40.3 1-29.3-29.3L732.4 71H691v41.4l-29.3 29.3L691 171v41.4h41.4l29.3 29.3 29.3-29.3h41.4V171zM570.7 329.3L600 300l-29.3-29.3-1.1-42.4-40.3 1L500 200l-29.3 29.3h-41.4v41.4L400 300l29.3 29.3v41.4h41.4L500 400l29.3-29.3h41.4v-41.4zM309 487.6l29.3-29.3L309 429l-1.1-42.3-40.3.9-29.3-29.3-29.3 29.3h-41.4V429l-29.3 29.3 29.3 29.3V529H209l29.3 29.3 29.3-29.3H309v-41.4z" fill="#fff"/></svg>