<svg xmlns="http://www.w3.org/2000/svg" viewBox="0 0 1000 600"><defs><clipPath id="a"><path class="a" d="M0 699.9h1000v523.29H0z"/></clipPath><style>.a{fill:#ff7bac}.b{fill:#ffdc00}</style></defs><path d="M0 500h180.8c105.2 0 163.7-20.3 211.4-75.7C445.7 362 554.3 238 607.8 175.7 655.5 120.2 714 100 819.2 100H1000V0H0z"/><path class="b" d="M1000 100H819.2c-105.2 0-163.7 20.3-211.4 75.7C554.3 238 445.7 362 392.2 424.3 344.5 479.8 286 500 180.8 500H0v100h1000z"/><path d="M572.2 600c53.5-62.3 162.1-187 215.6-249.3 47.7-55.4 107-75.7 212.2-75.7v325z"/><path class="b" d="M427.8 0c-53.5 62.3-162.1 187-215.6 249.3C164.5 304.7 105.2 325 0 325V0z"/><path class="a" d="M0 699.9h1000v523.29H0z"/><g clip-path="url(#a)"><path d="M1000 624.8L0 1225.7v-75.1l1000-600.9v75.1zm0-150.2L0 1075.4v-75.1l1000-600.8v75.1zm0-150.3L0 925.2v-75.1l1000-600.9v75.1zm0-150.2L0 775v-75.1L1000 99v75.1z" fill="#29abe2"/></g></svg>