<svg xmlns="http://www.w3.org/2000/svg" viewBox="0 0 1000 600"><defs><clipPath id="a"><path class="a" d="M1000 600L0 0h1000v600z"/></clipPath><clipPath id="b"><path class="a" d="M0 0l1000 600H0V0z"/></clipPath><style>.a{fill:none}</style></defs><g clip-path="url(#a)"><path fill="#ffdc00" d="M0 0h1000v600H0z"/><path d="M1000 525L0 1124.9v-75L1000 450v75zm0-150L0 974.9v-75L1000 300v75zm0-150L0 824.9v-75L1000 150v75zm0-150L0 674.9v-75L1000 .1V75zm0-149.9L0 524.9V450l1000-599.9v75zm0-150L0 375v-75l1000-599.9v75zm0-150L0 225v-75l1000-599.9v75zm0-150L0 75V0l1000-599.9v75z"/></g><g clip-path="url(#b)"><path fill="#ff7bac" d="M0 0h1000v600H0z"/><path d="M0 75l1000-599.9v75L0 150V75zm0 150l1000-599.9v75L0 300v-75zm0 150l1000-599.9v75L0 450v-75zm0 150L1000-74.9v75L0 599.9V525zm0 149.9L1000 75.1V150L0 749.9v-75zm0 150L1000 225v75L0 899.9v-75zm0 150L1000 375v75L0 1049.9v-75zm0 150L1000 525v75L0 1199.9v-75z" fill="#29abe2"/></g></svg>