<svg xmlns="http://www.w3.org/2000/svg" viewBox="0 0 1000 600"><path fill="#fff" d="M0 0h1000v600H0z"/><path d="M0 465c72.9 0 92.9 34.9 166.7 34.9 72.9 0 92.9-34.9 166.6-34.9s92.9 34.9 166.7 34.9S592.9 465 666.6 465s92.9 34.9 166.7 34.9c72.9 0 92.9-34.9 166.7-34.9v135H0zm1000-330c-72.9 0-92.9-34.9-166.7-34.9-72.9 0-92.9 34.9-166.6 34.9s-92.9-34.9-166.7-34.9S407.1 135 333.4 135s-92.9-34.9-166.7-34.9C93.8 100.1 73.8 135 0 135V0h1000z"/><path d="M573.7 323.4l11.3-11.3a17.1 17.1 0 000-24.2l-11.3-11.3a17.2 17.2 0 01-5-12.2v-15.9a17.2 17.2 0 00-17.2-17.2h-15.9a17.2 17.2 0 01-12.2-5L512.1 215a17.1 17.1 0 00-24.2 0l-11.3 11.3a17.2 17.2 0 01-12.2 5h-15.9a17.2 17.2 0 00-17.2 17.2v15.9a17.2 17.2 0 01-5 12.2L415 287.9a17.1 17.1 0 000 24.2l11.3 11.3a17.2 17.2 0 015 12.2v15.9a17.2 17.2 0 0017.2 17.2h15.9a17.2 17.2 0 0112.2 5l11.3 11.3a17.1 17.1 0 0024.2 0l11.3-11.3a17.2 17.2 0 0112.2-5h15.9a17.2 17.2 0 0017.2-17.2v-15.9a17.2 17.2 0 015-12.2zm333.3 0l11.3-11.3a17.1 17.1 0 000-24.2L907 276.6a17.2 17.2 0 01-5-12.2v-15.9a17.2 17.2 0 00-17.2-17.2h-15.9a17.4 17.4 0 01-12.2-5L845.5 215a17.2 17.2 0 00-24.3 0l-11.3 11.3a17.2 17.2 0 01-12.1 5h-16a17.1 17.1 0 00-17.1 17.2v15.9a17.3 17.3 0 01-5.1 12.2l-11.2 11.3a16.9 16.9 0 000 24.2l11.2 11.3a17.3 17.3 0 015.1 12.2v15.9a17.1 17.1 0 0017.1 17.2h16a17.2 17.2 0 0112.1 5l11.3 11.3a17.2 17.2 0 0024.3 0l11.2-11.3a17.4 17.4 0 0112.2-5h15.9a17.2 17.2 0 0017.2-17.2v-15.9a17.2 17.2 0 015-12.2zm-666.6 0l11.3-11.3a17.1 17.1 0 000-24.2l-11.3-11.3a17.2 17.2 0 01-5-12.2v-15.9a17.2 17.2 0 00-17.2-17.2h-16a17.2 17.2 0 01-12.1-5L178.8 215a17.1 17.1 0 00-24.2 0l-11.3 11.3a17.2 17.2 0 01-12.2 5h-15.9A17.2 17.2 0 0098 248.5v15.9a17.2 17.2 0 01-5 12.2l-11.3 11.3a17.1 17.1 0 000 24.2L93 323.4a17.2 17.2 0 015 12.2v15.9a17.2 17.2 0 0017.2 17.2h15.9a17.2 17.2 0 0112.2 5l11.3 11.3a17.1 17.1 0 0024.2 0l11.3-11.3a17.2 17.2 0 0112.1-5h16a17.2 17.2 0 0017.2-17.2v-15.9a17.2 17.2 0 015-12.2z" fill="#009245"/></svg>