<svg xmlns="http://www.w3.org/2000/svg" viewBox="0 0 1000 600"><defs><style>.c,.d{fill:none;stroke:#fff;stroke-linecap:round;stroke-width:15px}.c{stroke-miterlimit:10}.d{stroke-linejoin:round}</style></defs><path fill="#0071bc" d="M1000 470H0V130h1000z"/><path d="M0 470h1000v130H0zM0 0h1000v130H0z" fill="#29abe2"/><path class="c" d="M928.1 300.1h-240m120 120v-240m74.4 45.6L733.7 374.5m148.8 0L733.7 225.7m148.1 172.1v-24h24m-48.1 5.9v-30h30m-54.1 11.9v-36h36m37-100h-24v-24m5.5 48.4h-30v-30m11.6 54.4h-36v-36m-99.9-36.6v24h-24m48.4-5.6v30h-30m54.5-11.5v36h-36m-36.9 99.7h24v24m-5.6-48.5h30v30m-11.5-54.5h36v36m123.5-35.9l-25.4-25.4 25.4-25.5m-72.7-72.7l-25.4 25.5-25.5-25.5m-72.7 72.7l25.5 25.5-25.5 25.4m72.7 72.7l25.5-25.4 25.4 25.4M257.1 235.1l-130 130m130 0l-130-130"/><rect class="c" x="254.1" y="362.1" width="38.3" height="38.29" rx="19.1" transform="rotate(180 273.25 381.25)"/><rect class="c" x="91.7" y="362.1" width="38.3" height="38.29" rx="19.1" transform="rotate(180 110.9 381.25)"/><rect class="c" x="254.1" y="199.7" width="38.3" height="38.29" rx="19.1" transform="rotate(180 273.25 218.9)"/><rect class="c" x="91.7" y="199.7" width="38.3" height="38.29" rx="19.1" transform="rotate(-180 110.9 218.9)"/><path class="c" d="M192.1 180.1v240m120-120h-240M295 325.9l-25.8-25.8 25.8-25.9M166.2 403l25.9-25.8 25.8 25.8m0-205.8L192.1 223l-25.9-25.8m-77 77l25.8 25.9-25.8 25.8m134.7 40v-34h34m-131.6 0h33.9v34m97.7-97.7h-34v-33.9m-63.7 0v33.9h-33.9"/><circle class="c" cx="500.1" cy="300.1" r="20.3"/><path class="d" d="M620.1 281.2l-19 18.9 19 19M599.9 261l-39.2 39.1 39.2 39.2"/><path class="d" d="M579.7 240.8l-59.4 59.3 59.4 59.4m21.4-59.4h-80.8m-1.2 120l-19-19-18.9 19m58.1-20.2l-39.2-39.2-39.1 39.2"/><path class="d" d="M559.5 379.7l-59.4-59.4-59.3 59.4m59.3 21.4v-80.8m-120-1.3l18.9-19-18.9-19m20.2 58.2l39.1-39.2-39.1-39.2"/><path class="d" d="M420.5 359.4l59.3-59.4-59.3-59.4M399 300h80.8m1.2-119.9l19 18.9 19-18.9m-58.2 20.2l39.2 39.1 39.2-39.1"/><path class="d" d="M440.6 220.5l59.4 59.3 59.4-59.3M500 199v80.8"/></svg>