<svg xmlns="http://www.w3.org/2000/svg" viewBox="0 0 1000 600"><defs><clipPath id="a"><path class="a" d="M0 0h1000v600H0z"/></clipPath><clipPath id="b"><path d="M109.5 105v390h781V105z" fill="none"/></clipPath><style>.a{fill:#f15a24}</style></defs><path class="a" d="M0 0h1000v600H0z"/><g clip-path="url(#a)"><path d="M-350 600h-50L0 0h50l-400 600zm90 0h-50L90 0h50l-400 600zm90 0h-50L180 0h50l-400 600zm90 0h-50L270 0h50L-80 600zm90 0h-50L360 0h50L10 600zm90 0H50L450 0h50L100 600zm90 0h-50L540 0h50L190 600zm90 0h-50L630 0h50L280 600zm90 0h-50L720 0h50L370 600zm90 0h-50L810 0h50L460 600zm90 0h-50L900 0h50L550 600zm90 0h-50L990 0h50L640 600zm90 0h-50L1080 0h50L730 600zm90 0h-50L1170 0h50L820 600zm90 0h-50L1260 0h50L910 600zm90 0h-50L1350 0h50l-400 600z" fill="#1b1464"/></g><path class="a" d="M55 52.5v495h890v-495z"/><g clip-path="url(#b)"><path d="M-350 600h-50L0 0h50l-400 600zm90 0h-50L90 0h50l-400 600zm90 0h-50L180 0h50l-400 600zm90 0h-50L270 0h50L-80 600zm90 0h-50L360 0h50L10 600zm90 0H50L450 0h50L100 600zm90 0h-50L540 0h50L190 600zm90 0h-50L630 0h50L280 600zm90 0h-50L720 0h50L370 600zm90 0h-50L810 0h50L460 600zm90 0h-50L900 0h50L550 600zm90 0h-50L990 0h50L640 600zm90 0h-50L1080 0h50L730 600zm90 0h-50L1170 0h50L820 600zm90 0h-50L1260 0h50L910 600zm90 0h-50L1350 0h50l-400 600z" fill="#fff"/></g></svg>