<svg xmlns="http://www.w3.org/2000/svg" viewBox="0 0 1000 600"><defs><linearGradient id="a" x1="500" y1=".06" x2="500" y2="599.94" gradientUnits="userSpaceOnUse"><stop offset=".3" stop-color="#ffdc00"/><stop offset="1" stop-color="#fbb03b"/></linearGradient></defs><path fill="url(#a)" d="M0 .1h1000v599.88H0z"/><circle cx="499.9" cy="299.8" fill="#fff" r="200"/><path d="M364.9.2h17.3v599.14h-17.3zm34.5 0h17.3v599.14h-17.3zM261.6 599.3h-17.3V.16h17.3zm-34.5 0h-17.3V.16h17.3zm-43.2 0h-17.3V.16h17.3zm146.7 0h-41.4c-1 0-1.7 1.1-1.7 0V.2h17.2v292.6c0 4.8 2.9 7 7.1 7h3.1c4.1 0 7.1-2 7.1-7V.2h17.2v599.1c0 1.1-.7 0-1.7 0zM583.3-.1v599.7h17.3V406.7c0-5.1 3-7 7-7h3.2c4.2 0 7 2.2 7 7v192.9H730V-.1zm198.5 0h51.6v599.63h-51.6z" fill="#1b1464"/></svg>