<svg xmlns="http://www.w3.org/2000/svg" viewBox="0 0 1000 600"><defs><clipPath id="a"><path transform="rotate(180 500 300)" fill="none" d="M0 0h1000v600H0z"/></clipPath><style>.c{fill:#d4145a}</style></defs><g clip-path="url(#a)"><path class="c" d="M666.4 600H333.1V0h333.3z"/><path d="M333 400l333.4 100v100L333 500V400zm0-200l333.4 100v100L333 300V200zm0-200l333.4 100v100L333 100V0z" fill="#fff"/><path class="c" d="M1000 600H666.7V0H1000z"/><path d="M666.7 400L1000 500v100L666.7 500V400zm0-200L1000 300v100L666.7 300V200zm0-200L1000 100v100L666.7 100V0z"/><path class="c" d="M333.3 600H0V0h333.3z"/><path d="M0 400l333.3 100v100L0 500V400zm0-200l333.3 100v100L0 300V200zM0 0l333.3 100v100L0 100V0z"/></g></svg>