<svg xmlns="http://www.w3.org/2000/svg" viewBox="0 0 1000 600"><path fill="#fff" d="M0 0h1000v600H0z"/><path d="M27.7 286.5h944.6v25.89H27.7zm0 51.8h944.6v25.89H27.7zm0 51.8h944.6v25.89H27.7zm0 51.8h944.6v25.89H27.7zm0 51.8h944.6v25.89H27.7zm0 51.8h944.6v25.89H27.7zm0-310.8h669v25.89h-669zm0-51.2h669v25.89h-669zm0-51.8h669v25.89h-669zm0-51.8h669v25.89h-669zm0-51.3h669v25.89h-669z" fill="#f15a24"/><path d="M724.3 234.7h248v25.89h-248zm0-51.2h248v25.89h-248zm0-51.8h248v25.89h-248zm0-51.8h248v25.89h-248zm0-51.3h248v25.89h-248z" fill="#00a99d"/></svg>