<svg xmlns="http://www.w3.org/2000/svg" viewBox="0 0 1000 600"><defs><style>.b{fill:#fff}</style></defs><path fill="#ffdc00" d="M0 0h1000v600H0z"/><path class="b" d="M0 0h1000v120H0z"/><path d="M0 60V0h71.4L0 60zm142.9 0l71.4 60H71.4l71.5-60zm142.8 0L214.3 0h142.8l-71.4 60zm142.9 0l71.4 60H357.1l71.5-60zm142.8 0L500 0h142.9l-71.5 60zm142.9 0l71.4 60H642.9l71.4-60zm142.8 0L785.7 0h142.9l-71.5 60zm142.9 0v60h-71.4l71.4-60z"/><path class="b" d="M0 240h1000v120H0z"/><path d="M0 300v-60h71.4L0 300zm142.9 0l71.4 60H71.4l71.5-60zm142.8 0l-71.4-60h142.8l-71.4 60zm142.9 0l71.4 60H357.1l71.5-60zm142.8 0L500 240h142.9l-71.5 60zm142.9 0l71.4 60H642.9l71.4-60zm142.8 0l-71.4-60h142.9l-71.5 60zm142.9 0v60h-71.4l71.4-60z"/><path class="b" d="M0 480h1000v120H0z"/><path d="M0 540v-60h71.4L0 540zm142.9 0l71.4 60H71.4l71.5-60zm142.8 0l-71.4-60h142.8l-71.4 60zm142.9 0l71.4 60H357.1l71.5-60zm142.8 0L500 480h142.9l-71.5 60zm142.9 0l71.4 60H642.9l71.4-60zm142.8 0l-71.4-60h142.9l-71.5 60zm142.9 0v60h-71.4l71.4-60z"/></svg>