<svg xmlns="http://www.w3.org/2000/svg" viewBox="0 0 1000 600"><defs><clipPath id="a"><path class="a" d="M0 700h1000v600H0z"/></clipPath><style>.a{fill:#d4145a}.c{fill:#fff}</style></defs><path class="a" d="M0 700h1000v600H0z"/><g clip-path="url(#a)"><path d="M-87.106 1177.475L933.524 564.22l154.51 257.15L67.407 1434.627z"/></g><path d="M0 0h1000v59.97H0z"/><path class="c" d="M0 60h1000v59.97H0z"/><path d="M0 119.9h1000v59.97H0z"/><path class="c" d="M0 179.9h1000v59.97H0z"/><path d="M0 239.9h1000v59.97H0z"/><path class="c" d="M0 299.9h1000v59.97H0z"/><path d="M0 360.1h1000v59.97H0z"/><path class="c" d="M0 420.1h1000v59.97H0z"/><path d="M0 480.1h1000v59.97H0z"/><path class="c" d="M0 540h1000v59.97H0z"/><path class="a" d="M0 .5h300v299.76H0z"/><path class="c" d="M59.647 150.283l90.297-90.298 90.319 90.32-90.298 90.297z"/></svg>