<svg xmlns="http://www.w3.org/2000/svg" viewBox="0 0 1000 600"><defs><style>.a{fill:#fff}.b{fill:#ffdc00}.c{fill:#ed1e79}.d{fill:#2e3192}</style></defs><path class="a" d="M0 .1h100v100H0z"/><path class="b" d="M100 .1h100v100H100z"/><path class="a" d="M200 .1h100v100H200z"/><path class="b" d="M300 .1h100v100H300z"/><path class="a" d="M400 .1h100v100H400z"/><path class="c" d="M500 .1h100v100H500z"/><path class="a" d="M600 .1h100v100H600z"/><path class="d" d="M700 .1h100v100H700z"/><path class="a" d="M800 .1h100v100H800z"/><path class="d" d="M900 .1h100v100H900z"/><path class="a" d="M900 100.1h100v100H900z"/><path class="d" d="M900 200.2H800v-100h100z"/><path class="a" d="M700 100.1h100v100H700z"/><path class="c" d="M700 200.2H600v-100h100z"/><path class="a" d="M500 100.1h100v100H500z"/><path class="b" d="M500 200.2H400v-100h100z"/><path class="a" d="M300 100.1h100v100H300z"/><path class="b" d="M300 200.2H200v-100h100z"/><path class="a" d="M100 100.1h100v100H100z"/><path class="c" d="M100 200.2H0v-100h100z"/><path class="a" d="M0 200.1h100v100H0z"/><path class="c" d="M100 200.1h100v100H100z"/><path class="a" d="M200 200.1h100v100H200z"/><path class="b" d="M300 200.1h100v100H300z"/><path class="a" d="M400 200.1h100v100H400z"/><path class="b" d="M500 200.1h100v100H500z"/><path class="a" d="M600 200.1h100v100H600z"/><path class="c" d="M700 200.1h100v100H700z"/><path class="a" d="M800 200.1h100v100H800z"/><path class="d" d="M900 200.1h100v100H900z"/><path class="a" d="M900 300.1h100v100H900z"/><path class="c" d="M900 400.2H800v-100h100z"/><path class="a" d="M700 300.1h100v100H700z"/><path class="b" d="M700 400.2H600v-100h100z"/><path class="a" d="M500 300.1h100v100H500z"/><path class="b" d="M500 400.2H400v-100h100z"/><path class="a" d="M300 300.1h100v100H300z"/><path class="c" d="M300 400.2H200v-100h100z"/><path class="a" d="M100 300.1h100v100H100z"/><path class="d" d="M100 400.2H0v-100h100z"/><path class="a" d="M0 400.1h100v100H0z"/><path class="d" d="M100 400.1h100v100H100z"/><path class="a" d="M200 400.1h100v100H200z"/><path class="c" d="M300 400.1h100v100H300z"/><path class="a" d="M400 400.1h100v100H400z"/><path class="b" d="M500 400.1h100v100H500z"/><path class="a" d="M600 400.1h100v100H600z"/><path class="b" d="M700 400.1h100v100H700z"/><path class="a" d="M800 400.1h100v100H800z"/><path class="c" d="M900 400.1h100v100H900z"/><path class="a" d="M900 500.1h100v100H900z"/><path class="b" d="M900 600.2H800v-100h100z"/><path class="a" d="M700 500.1h100v100H700z"/><path class="b" d="M700 600.2H600v-100h100z"/><path class="a" d="M500 500.1h100v100H500z"/><path class="c" d="M500 600.2H400v-100h100z"/><path class="a" d="M300 500.1h100v100H300z"/><path class="d" d="M300 600.2H200v-100h100z"/><path class="a" d="M100 500.1h100v100H100z"/><path class="d" d="M100 600.2H0v-100h100z"/></svg>