<svg xmlns="http://www.w3.org/2000/svg" viewBox="0 0 256 256"><path fill="#29abe2" d="M0 0h256v256H0z"/><path d="M227.3 97.3c-5.8-2.3-9.6-6.1-13.5-13.8-9.7-19.3-19.3-20-31.7-14.6-5.8 2.6-11.8 7.9-17.6 14.2 4.2-7.5 7.3-14.9 8-21.2 1.3-13.5-2.3-22.5-23.6-25.9-8.4-1.3-13.2-3.8-17.1-8.6a4.9 4.9 0 00-7.6 0c-3.9 4.8-8.7 7.3-17.1 8.6-21.3 3.4-24.9 12.4-23.6 25.9.7 6.3 3.8 13.7 8 21.2-5.8-6.3-11.8-11.6-17.6-14.2-12.4-5.4-22-4.7-31.7 14.6-3.9 7.7-7.7 11.5-13.5 13.8a5 5 0 00-2.4 7.2c3.5 5.2 4.3 10.6 2.9 19.1-3.3 21.4 4 27.7 17.2 30.6 6.2 1.3 14.1.6 22.5-1.1-7.8 3.6-14.6 7.7-18.9 12.4-8.9 10.2-11.2 19.6 4 34.9 6.1 6.1 8.5 10.9 8.8 17.2a5.1 5.1 0 006.2 4.5c5.9-1.7 11.3-.8 18.9 3.1 19.2 9.8 27.3 4.7 34.2-7 3.1-5.5 4.9-13.3 5.9-21.9 1 8.6 2.8 16.4 5.9 22 6.9 11.6 15 16.7 34.2 6.9 7.6-3.9 13-4.8 18.9-3.1a5.1 5.1 0 006.2-4.5c.3-6.3 2.7-11.1 8.8-17.2 15.2-15.3 12.9-24.7 4-34.8-4.3-4.8-11.1-8.9-18.9-12.5 8.4 1.7 16.3 2.4 22.5 1.1 13.2-2.9 20.5-9.2 17.2-30.6-1.4-8.5-.6-13.9 2.9-19.1a5 5 0 00-2.4-7.2zM128 133.8z" fill="#fff"/><path d="M141.2 115.7a22.4 22.4 0 018.1 25 22.5 22.5 0 01-21.3 15.5 22.5 22.5 0 01-21.3-15.5 22.4 22.4 0 018.1-25 22.2 22.2 0 0126.4 0z" fill="#ffdc00"/><path d="M128 234.7a16.7 16.7 0 005.5-12.7c0-17.5-5.5-53-5.5-53s-5.5 35.5-5.5 53a16.7 16.7 0 005.5 12.7zm95.8-69.6a16.4 16.4 0 00-10.4-9.2c-16.6-5.4-52.1-11.1-52.1-11.1s32.1 16.2 48.7 21.6a16.6 16.6 0 0013.8-1.3zM187.2 52.4a16.5 16.5 0 00-11.9 7.1c-10.3 14.1-26.7 46-26.7 46s25.3-25.4 35.6-39.6a16.3 16.3 0 003-13.5zm-118.4 0a16.8 16.8 0 003 13.5c10.3 14.2 35.6 39.6 35.6 39.6S91 73.6 80.7 59.5a16.5 16.5 0 00-11.9-7.1zM32.2 165a16.2 16.2 0 0013.8 1.3c16.6-5.4 48.7-21.5 48.7-21.5s-35.5 5.7-52.1 11.1a16.4 16.4 0 00-10.4 9.1z" fill="#ff7bac"/></svg>