<svg xmlns="http://www.w3.org/2000/svg" viewBox="0 0 64 64"><path d="M62.4 21.9c-1.8-.6-2.9-1.8-4.1-4.2-3-5.9-6-6.1-9.7-4.4h-.1l.7-1a5 5 0 00.9-4.1 5.1 5.1 0 00-3.6 2.2l-1 1.4a2 2 0 00.1-.7c.4-4.1-.7-6.9-7.2-7.9-2.6-.4-4.1-1.2-5.2-2.7a1.6 1.6 0 00-2.4 0c-1.1 1.5-2.6 2.3-5.2 2.7-6.5 1-7.6 3.8-7.2 7.9a1.3 1.3 0 00.1.6l-1-1.3a5.1 5.1 0 00-3.6-2.2 5 5 0 00.9 4.1l.7 1h-.1c-3.7-1.7-6.7-1.5-9.7 4.4-1.2 2.4-2.3 3.6-4.1 4.2a1.6 1.6 0 00-.7 2.3c1 1.6 1.3 3.2.9 5.8C.7 36.6 3 38.5 7 39.4h.4l-1.6.5a5 5 0 00-3.1 2.8 5 5 0 004.2.4l1.5-.6-.3.3c-2.7 3.1-3.4 6 1.3 10.7 1.8 1.9 2.6 3.4 2.7 5.3a1.4 1.4 0 001.8 1.3c1.9-.5 3.5-.2 5.8 1 5.9 3 8.4 1.4 10.5-2.1 0-.1.1-.2.2-.4a8.6 8.6 0 00-.1 1.5A5.1 5.1 0 0032 64a5.1 5.1 0 001.7-3.9 8.6 8.6 0 00-.1-1.5c.1.2.2.3.2.4 2.1 3.5 4.6 5.1 10.5 2.1 2.3-1.2 3.9-1.5 5.8-1a1.4 1.4 0 001.8-1.3c.1-1.9.9-3.4 2.7-5.3 4.7-4.7 4-7.6 1.3-10.7l-.3-.2 1.5.5a5 5 0 004.2-.4 5 5 0 00-3.1-2.8l-1.6-.5h.4c4-.9 6.3-2.8 5.2-9.4-.4-2.6-.1-4.2.9-5.8a1.6 1.6 0 00-.7-2.3zM38.5 35.2A6.8 6.8 0 1128 27.6a6.6 6.6 0 018 0 6.8 6.8 0 012.5 7.6z" fill="#ff7bac"/><path fill="none" d="M0 0h64v64H0z"/></svg>