<svg xmlns="http://www.w3.org/2000/svg" viewBox="0 0 256 256"><path d="M252.1 89.6c-7.2-2.8-12-7.6-16.8-17.2-12.2-24.1-24.2-25-39.6-18.3-7.3 3.3-14.8 9.9-22.1 17.8 5.3-9.4 9.2-18.6 10-26.6 1.7-16.8-2.9-28-29.4-32.2-10.6-1.7-16.6-4.8-21.5-10.9a6.2 6.2 0 00-9.4 0c-4.9 6.1-10.9 9.2-21.5 10.9-26.5 4.2-31.1 15.4-29.4 32.2.8 8 4.7 17.2 10 26.6-7.3-7.9-14.8-14.5-22.1-17.8-15.4-6.7-27.4-5.8-39.6 18.3-4.8 9.6-9.6 14.4-16.8 17.2a6.3 6.3 0 00-3 9c4.3 6.6 5.3 13.2 3.7 23.9-4.3 26.7 4.9 34.6 21.4 38.2 7.7 1.7 17.6.8 28.1-1.3-9.7 4.5-18.2 9.6-23.6 15.5-11.1 12.7-14 24.5 5 43.6 7.6 7.6 10.7 13.7 11 21.5a6.3 6.3 0 007.7 5.6c7.5-2.1 14.1-1 23.7 3.9 23.9 12.3 34.2 5.9 42.7-8.7 3.9-6.9 6.2-16.7 7.4-27.4 1.2 10.7 3.5 20.5 7.4 27.4 8.5 14.6 18.8 21 42.7 8.7 9.6-4.9 16.2-6 23.7-3.9a6.3 6.3 0 007.7-5.6c.3-7.8 3.4-13.9 11-21.5 19-19.1 16.1-30.9 5-43.6-5.4-5.9-13.9-11-23.7-15.5 10.6 2.1 20.5 3 28.2 1.3 16.5-3.6 25.7-11.5 21.4-38.2-1.6-10.7-.6-17.3 3.7-23.9a6.3 6.3 0 00-3-9zm-97.5 54.3a28 28 0 01-26.6 19.3 28 28 0 1126.6-19.3z" fill="#fff"/></svg>