<svg xmlns="http://www.w3.org/2000/svg" viewBox="0 0 64 64"><path d="M63 22.4c-1.8-.7-3-1.9-4.2-4.3-3-6-6-6.3-9.9-4.6a19.8 19.8 0 00-5.5 4.5 19.2 19.2 0 002.5-6.7c.4-4.2-.7-7-7.4-8-2.6-.5-4.1-1.2-5.3-2.7a1.5 1.5 0 00-2.4 0c-1.2 1.5-2.7 2.2-5.3 2.7-6.7 1-7.8 3.8-7.4 8a19.2 19.2 0 002.5 6.7 19.8 19.8 0 00-5.5-4.5c-3.9-1.7-6.9-1.4-9.9 4.6C4 20.5 2.8 21.7 1 22.4a1.6 1.6 0 00-.8 2.3c1.1 1.6 1.4 3.3.9 5.9-1 6.7 1.3 8.7 5.4 9.6a17.2 17.2 0 007-.4 23.2 23.2 0 00-5.9 3.9c-2.8 3.2-3.5 6.1 1.3 10.9 1.9 1.9 2.6 3.4 2.7 5.4a1.6 1.6 0 001.9 1.4c1.9-.5 3.6-.3 6 1 6 3 8.5 1.5 10.6-2.2a18.2 18.2 0 001.9-6.9 18.2 18.2 0 001.9 6.9c2.1 3.7 4.6 5.2 10.6 2.2 2.4-1.3 4.1-1.5 6-1a1.6 1.6 0 001.9-1.4c.1-2 .8-3.5 2.7-5.4 4.8-4.8 4.1-7.7 1.3-10.9a23.2 23.2 0 00-5.9-3.9 17.2 17.2 0 007 .4c4.1-.9 6.4-2.9 5.4-9.6-.5-2.6-.2-4.3.9-5.9a1.6 1.6 0 00-.8-2.3zM38.7 36a7.1 7.1 0 01-6.7 4.8 7 7 0 01-4.1-12.7 7.2 7.2 0 018.2 0 7.1 7.1 0 012.6 7.9z" fill="#fff"/></svg>