<svg version="1.1" id="Ebene_1" xmlns="http://www.w3.org/2000/svg" xmlns:xlink="http://www.w3.org/1999/xlink" x="0" y="0" viewBox="0 0 1200 630" xml:space="preserve"><style>.st1{fill:#fff}.st4{fill:#f15a24}.st5{fill:#1b1464}</style><defs><path id="SVGID_1_" d="M0 0h1200v630H0z"/></defs><use xlink:href="#SVGID_1_" overflow="visible" fill="#19ffdd"/><clipPath id="SVGID_2_"><use xlink:href="#SVGID_1_" overflow="visible"/></clipPath><g clip-path="url(#SVGID_2_)"><path d="M603.2 470.6h452v27.1h-452z"/><path class="st1" d="M603.2 497.7h452v27.1h-452z"/><path d="M603.2 524.8h452v27.1h-452z"/><path class="st1" d="M603.2 551.9h452V579h-452z"/><path d="M603.2 579h452v27.1h-452z"/><path class="st1" d="M603.2 606.1h452v27.1h-452z"/><path d="M603.2 633.3h452v27.1h-452z"/><path class="st1" d="M603.2 660.4h452v27.1h-452z"/><path d="M603.2 687.5h452v27.1h-452z"/><path class="st1" d="M603.2 714.6h452v27.1h-452z"/><path fill="#d4145a" d="M603.2 470.8h135.6v135.5H603.2z"/><path transform="rotate(-44.976 671.02 538.532)" class="st1" d="M642.1 509.6h57.7v57.7h-57.7z"/><path fill="#ffdc00" d="M603.2 179.4h452v271.2h-452z"/><path class="st1" d="M603.2 179.4h452v54.2h-452z"/><path d="M603.2 206.5v-27.1h32.3zm64.6 0l32.3 27.1h-64.6zm64.5 0l-32.2-27.1h64.5zm64.6 0l32.3 27.1h-64.6zm64.6 0l-32.3-27.1h64.6zm64.6 0l32.2 27.1h-64.5zm64.5 0l-32.3-27.1h64.6zm64.6 0v27.1h-32.3z"/><path class="st1" d="M603.2 287.9h452v54.2h-452z"/><path d="M603.2 315v-27.1h32.3zm64.6 0l32.3 27.1h-64.6zm64.5 0l-32.2-27.1h64.5zm64.6 0l32.3 27.1h-64.6zm64.6 0l-32.3-27.1h64.6zm64.6 0l32.2 27.1h-64.5zm64.5 0l-32.3-27.1h64.6zm64.6 0v27.1h-32.3z"/><path class="st1" d="M603.2 396.4h452v54.2h-452z"/><path d="M603.2 423.5v-27.1h32.3zm64.6 0l32.3 27.1h-64.6zm64.5 0l-32.2-27.1h64.5zm64.6 0l32.3 27.1h-64.6zm64.6 0l-32.3-27.1h64.6zm64.6 0l32.2 27.1h-64.5zm64.5 0l-32.3-27.1h64.6zm64.6 0v27.1h-32.3z"/><path class="st4" d="M603.2 23.8h452v135.6h-452z"/><path class="st5" d="M603.2-111.8h452V23.8h-452z"/><path class="st1" d="M1055.2 32.9l-56.8 31.6L942 32.9l-56.4 31.6-56.4-31.6-56.4 31.6-56.4-31.6L660 64.5l-56.8-31.6v-49.7L660 14.8l56.4-31.6 56.4 31.6 56.4-31.6 56.4 31.6L942-16.8l56.4 31.6 56.8-31.6z"/><circle class="st4" cx="660" cy="-57.5" r="20.3"/><circle class="st4" cx="772.8" cy="-57.5" r="20.3"/><circle class="st4" cx="885.6" cy="-57.5" r="20.3"/><circle class="st4" cx="998.4" cy="-57.5" r="20.3"/><circle class="st5" cx="716.4" cy="105.2" r="20.3"/><circle class="st5" cx="829.2" cy="105.2" r="20.3"/><circle class="st5" cx="942" cy="105.2" r="20.3"/></g><path d="M453.7 154.3c-2.9-6.7-2.8-13 .4-22.6 8.2-24 .9-32.7-13.8-38.6-7-2.7-16.3-3.4-26.4-3.1 9.8-2.7 18.5-6.1 24.4-10.8 12.4-10 16.9-20.4 2.3-41-5.8-8.2-7.7-14.2-6.8-21.5.4-3.5-2.7-6.7-6.2-6.3-7.3.8-13.3-1.3-21.3-7.2-20.3-15-30.8-10.7-41 1.4-4.8 5.8-8.4 14.5-11.3 24.2.6-10.1 0-19.5-2.5-26.5-5.6-14.8-14.1-22.2-38.3-14.6-9.6 3.1-16 3-22.6 0-3.2-1.5-7.2.5-8 4C281-1.1 277.2 4 268.9 9.8c-20.7 14.7-19.9 26.1-11.6 39.5 4 6.3 11.1 12.4 19.4 18-9.4-3.6-18.5-5.9-26-5.6-15.8.8-25.6 6.7-25.9 32-.1 10.1-2.2 16.1-7.2 21.5-2.4 2.6-1.8 7 1.3 8.8 6.3 3.7 9.9 8.8 12.9 18.4 7.5 24.2 18.5 26.8 33.9 23 7.3-1.9 15.3-6.8 23.3-13-6.4 7.9-11.5 15.8-13.5 23-4.2 15.3-1.8 26.4 22.2 34.3 9.6 3.2 14.6 6.9 18.2 13.3 1.7 3.1 6.1 3.8 8.8 1.5 5.5-4.9 11.5-6.8 21.6-6.7 25.3.2 31.4-9.5 32.5-25.3.5-7.5-1.7-16.6-5.1-26.1 5.5 8.5 11.4 15.7 17.6 19.8 13.2 8.6 24.5 9.6 39.7-10.8 6-8.1 11.2-11.8 18.4-13.2 3.6-.7 5.7-4.7 4.3-7.9z" fill="#ff7bac"/><g opacity=".25"><path d="M83.1 76h48.7v22.2h-.4l-12.5-18.4h-16.6v29.6H129v4.9h-26.8v23l10.8 11.2H83v-.6l6.1-10.6V87l-6-11zm55.3 3.3l19.4-6v66l7.8 9.1h-20v-46.6l-7.2-8.1 7.2-3.1v-3.2l-7.2-8.1zm36.8 70.3c-3.2-2.2-6-9.8-6-18.4 0-19.7 12.1-34.2 34.2-34.6h12.1l-4 5.7v37l7.8 9.1h-20.2v-27.2l1.3-12.3c-3.7 15.1-11 29.4-17.3 39.5l-7.9 1.2zm24.1-49.9c-14.2.1-16.9 15.1-16.9 25.8 0 10.4 1.2 14.8 2.4 14.8 2 0 14.4-29.4 14.5-40.6zm29.5 49.9c-3.2-2.2-6-9.8-6-18.4 0-19.3 11.9-34.2 34.2-34.6h12l-4 5.8c-.1 11-.1 22.1-.2 33.2v.8h.1l-.2 2.8v1.3c0 17.6-18.7 32.6-32.5 32.6h-.6l-11.7-14.4.6-.7c6.1 5.1 16.1 8.8 20.4 8.8 6.8 0 11.6-4 11.7-21v-24.6l1.3-12.3c-3.7 15.1-11 29.4-17.3 39.5l-7.8 1.2zm24-49.9c-14.2.1-16.9 15.1-16.9 25.8 0 10.4 1.2 14.8 2.4 14.8 2 0 14.4-29.4 14.5-40.6zm49.1 12.7c-4-6.2-9.3-10.7-14-10.7-3 0-3.7 1.4-3.7 4 0 7.4 21.2 15.7 21.2 26.9 0 7-5.9 15.9-19.6 15.9h-8.7l-2.5-18 .3-1c5.7 8.4 11.1 14.9 17.3 14.9 3.2 0 4.9-1.4 4.9-4.2 0-10.4-20.9-15.7-20.9-27.2 0-7.5 6.7-16.4 18.3-16.4h7.5l.5 15.7-.6.1zm-199.3 73.5c-2.9 0-5.1 8.5-2.9 16.5h17v2.5l-17 3.2v19.1c0 30.2-5.5 33.2-10.3 51.3h-.8l-1.1-45.6v-23.8l-7.4-6.7H88c0-4.2 8.3-18.6 22-21.7l4.3-1 4 13.9-.3.3-15.4-8zm40.8 15.3c13.2 0 21.3 9 21.3 23 0 16.5-12.5 31.6-26.9 31.6-11.3 0-20-8.3-20-22.5 0-17.1 10.7-32.1 25.6-32.1zm-12.3 24.9c0 17.6 7 26.1 10.2 26.1 3.2 0 9.4-5.9 9.4-23.4 0-18.6-8.3-24.3-11.4-24.3-3.2.1-8.2 2.9-8.2 21.6zM198 215c-1.5.6-10.5 22.1-10.5 32.8l.8 6.5h-13v-37.7l-7.2-8.1 19.4-7.1V235c3.1-11.9 8.3-25.2 14.5-34.1h1.4l8.9 17.5-.3.4-14-3.8zM86.8 361.3c-3.2-2.2-6-9.8-6-18.4 0-19.7 12.1-34.2 34.2-34.6h12l-4 5.7v37l7.8 9.1h-20.2v-27.2l1.3-12.3c-3.7 15.1-11 29.4-17.3 39.5l-7.8 1.2zm24-50c-14.2.1-16.9 15.1-16.9 25.8 0 10.4 1.2 14.8 2.4 14.8 2 .1 14.4-29.3 14.5-40.6zM98.1 448.2c4.1-15.7 12.4-31 14.6-34.1l10.4-2.6c2.8 8.5 3 11.5 3 33.1v12.3l7.8 9.1h-20v-15.2c0-16.5-1-23.9-2.1-28l-.8-.1c-5.3 10.5-12.8 28-12.8 36.9l1.6 6.5H85.9v-37.7l-7.2-8.1 19.4-7.1v35zm78.1-5.2c-2.8 9.1-12.1 24.2-22.3 24.2-9.4 0-15.7-7.1-15.7-21.2 0-15.2 10.8-33.3 23.8-33.3 10.1 0 13.2 10.1 13.2 12.2l-23.3 20c1 8.8 3.8 14.8 7.6 14.8 7.6 0 14.9-17.8 14.9-17.8l1.8 1.1zm-12.3-12.2c-.5-10.7-5.8-15.8-7.2-14.8-1.9 1.2-5.2 4.7-5.2 21.6 0 1.7.1 3.3.2 4.8l12.2-11.6zm87.4-16.7c-1.3 17.1-12 48.1-29.2 53.4l-5.2-29.4c-5 13.3-13.1 26.1-23.6 29.4l-7-39.5-9.8-7.3 19.1-10.1 7.9 46.6-.1.4c7.6-7.1 11.7-19.6 11.9-28.9-.6-3.3-1.4-6.4-3.2-14.7h12.7l7.5 43.2-.1.4c11.5-10.4 14.1-34.7 10.4-37.8l-6.4-5.2v-.6h15.1zm-69.9 85.2l-6.8 9.1-21.6 64.7h-6.1l-14.6-41.2-14.4 41.2h-6.1l-25-67.5-5.2-6.2h27.5l-8.1 6.5 16.6 46.5 1 3.9 11.5-30.5-7.3-20.3-5-6h27.5L137 506l15.7 46.5 1.2 4.7 15.1-48.4-8.7-9.2h21.1zm21.8 19.4c13.2 0 21.3 9 21.3 23 0 16.5-12.5 31.6-26.9 31.6-11.3 0-20-8.3-20-22.5 0-17.1 10.7-32.1 25.6-32.1zm-12.3 25c0 17.6 7 26.1 10.2 26.1 3.2 0 9.4-5.9 9.4-23.4 0-18.6-8.3-24.3-11.4-24.3-3.2 0-8.2 2.8-8.2 21.6zm66.9-11.1c-1.5.6-10.5 22.1-10.5 32.8l.8 6.5h-13v-37.7L228 526l19.4-7.1v33.7c3.1-11.9 8.3-25.2 14.5-34.1h1.4l8.9 17.5-.3.4-14.1-3.8zm14.3-29.9l19.4-6v66l7.8 9.1h-20v-46.6l-7.2-8.1 7.2-3.1v-3.2l-7.2-8.1zm61.3 70.1v-28.2l1.3-12.3c-3.7 15.1-11 29.4-17.3 39.5l-7.8 1.2c-3.2-2.2-6.7-9.8-6.7-18.4 0-18 10.9-32.3 30.7-34.4v-9.3l-7.2-8.1 19.4-6v67.7l7.8 7.4-20.2.9zm.2-49.8c-14.2.1-17.6 15.1-17.6 25.8 0 10.4 1.8 14.8 3.1 14.8 2 .1 14.4-29.3 14.5-40.6z"/><path d="M1186 622H28V24h1158v598zM36 614h1142V32H36v582z"/></g><path class="st1" d="M76.1 68h48.7v22.2h-.4l-12.5-18.4H95.2v29.6H122v4.9H95.2v23l10.8 11.2H76v-.6l6.1-10.6V79l-6-11zm55.3 3.3l19.4-6v66l7.8 9.1h-20V93.9l-7.2-8.1 7.2-3.1v-3.2l-7.2-8.2zm36.8 70.3c-3.2-2.2-6-9.8-6-18.4 0-19.7 12.1-34.2 34.2-34.6h12.1l-4 5.7v37l7.8 9.1h-20.2v-27.2l1.3-12.3c-3.7 15.1-11 29.4-17.3 39.5l-7.9 1.2zm24.1-49.9c-14.2.1-16.9 15.1-16.9 25.8 0 10.4 1.2 14.8 2.4 14.8 2 0 14.4-29.4 14.5-40.6zm29.5 49.9c-3.2-2.2-6-9.8-6-18.4 0-19.3 11.9-34.2 34.2-34.6h12l-4 5.8c-.1 11-.1 22.1-.2 33.2v.8h.1l-.2 2.8v1.3c0 17.6-18.7 32.6-32.5 32.6h-.6l-11.7-14.4.6-.7c6.1 5.1 16.1 8.8 20.4 8.8 6.8 0 11.6-4 11.7-21v-24.6l1.3-12.3c-3.7 15.1-11 29.4-17.3 39.5l-7.8 1.2zm24-49.9c-14.2.1-16.9 15.1-16.9 25.8 0 10.4 1.2 14.8 2.4 14.8 2 0 14.4-29.4 14.5-40.6zm49.1 12.7c-4-6.2-9.3-10.7-14-10.7-3 0-3.7 1.4-3.7 4 0 7.4 21.2 15.7 21.2 26.9 0 7-5.9 15.9-19.6 15.9h-8.7l-2.5-18 .3-1c5.7 8.4 11.1 14.9 17.3 14.9 3.2 0 4.9-1.4 4.9-4.2 0-10.4-20.9-15.7-20.9-27.2 0-7.5 6.7-16.4 18.3-16.4h7.5l.5 15.7-.6.1zM95.6 177.9c-2.9 0-5.1 8.5-2.9 16.5h17v2.5l-17 3.2v19.1c0 30.2-5.5 33.2-10.3 51.3h-.8l-1.1-45.6v-23.8l-7.4-6.7H81c0-4.2 8.3-18.6 22-21.7l4.3-1 4 13.9-.3.3-15.4-8zm40.8 15.3c13.2 0 21.3 9 21.3 23 0 16.5-12.5 31.6-26.9 31.6-11.3 0-20-8.3-20-22.5 0-17.1 10.7-32.1 25.6-32.1zm-12.3 24.9c0 17.6 7 26.1 10.2 26.1 3.2 0 9.4-5.9 9.4-23.4 0-18.6-8.3-24.3-11.4-24.3-3.2.1-8.2 2.9-8.2 21.6zM191 207c-1.5.6-10.5 22.1-10.5 32.8l.8 6.5h-13v-37.7l-7.2-8.1 19.4-7.1V227c3.1-11.9 8.3-25.2 14.5-34.1h1.4l8.9 17.5-.3.4-14-3.8zM79.8 353.3c-3.2-2.2-6-9.8-6-18.4 0-19.7 12.1-34.2 34.2-34.6h12l-4 5.7v37l7.8 9.1h-20.2v-27.2l1.3-12.3c-3.7 15.1-11 29.4-17.3 39.5l-7.8 1.2zm24-50c-14.2.1-16.9 15.1-16.9 25.8 0 10.4 1.2 14.8 2.4 14.8 2 .1 14.4-29.3 14.5-40.6zM91.1 440.2c4.1-15.7 12.4-31 14.6-34.1l10.4-2.6c2.8 8.5 3 11.5 3 33.1v12.3l7.8 9.1h-20v-15.2c0-16.5-1-23.9-2.1-28l-.8-.1c-5.3 10.5-12.8 28-12.8 36.9l1.6 6.5H78.9v-37.7l-7.2-8.1 19.4-7.1v35zm78.1-5.2c-2.8 9.1-12.1 24.2-22.3 24.2-9.4 0-15.7-7.1-15.7-21.2 0-15.2 10.8-33.3 23.8-33.3 10.1 0 13.2 10.1 13.2 12.2l-23.3 20c1 8.8 3.8 14.8 7.6 14.8 7.6 0 14.9-17.8 14.9-17.8l1.8 1.1zm-12.3-12.2c-.5-10.7-5.8-15.8-7.2-14.8-1.9 1.2-5.2 4.7-5.2 21.6 0 1.7.1 3.3.2 4.8l12.2-11.6zm87.4-16.7c-1.3 17.1-12 48.1-29.2 53.4l-5.2-29.4c-5 13.3-13.1 26.1-23.6 29.4l-7-39.5-9.8-7.3 19.1-10.1 7.9 46.6-.1.4c7.6-7.1 11.7-19.6 11.9-28.9-.6-3.3-1.4-6.4-3.2-14.7h12.7l7.5 43.2-.1.4c11.5-10.4 14.1-34.7 10.4-37.8l-6.4-5.2v-.6h15.1zm-69.9 85.2l-6.8 9.1-21.6 64.7h-6.1l-14.6-41.2-14.4 41.2h-6.1l-25-67.5-5.2-6.2h27.5l-8.1 6.5 16.6 46.5 1 3.9 11.5-30.5-7.3-20.3-5-6h27.5L130 498l15.7 46.5 1.2 4.7 15.1-48.4-8.7-9.2h21.1zm21.8 19.4c13.2 0 21.3 9 21.3 23 0 16.5-12.5 31.6-26.9 31.6-11.3 0-20-8.3-20-22.5 0-17.1 10.7-32.1 25.6-32.1zm-12.3 25c0 17.6 7 26.1 10.2 26.1 3.2 0 9.4-5.9 9.4-23.4 0-18.6-8.3-24.3-11.4-24.3-3.2 0-8.2 2.8-8.2 21.6zm66.9-11.1c-1.5.6-10.5 22.1-10.5 32.8l.8 6.5h-13v-37.7L221 518l19.4-7.1v33.7c3.1-11.9 8.3-25.2 14.5-34.1h1.4l8.9 17.5-.3.4-14.1-3.8zm14.3-29.9l19.4-6v66l7.8 9.1h-20v-46.6l-7.2-8.1 7.2-3.1v-3.2l-7.2-8.1zm61.3 70.1v-28.2l1.3-12.3c-3.7 15.1-11 29.4-17.3 39.5l-7.8 1.2c-3.2-2.2-6.7-9.8-6.7-18.4 0-18 10.9-32.3 30.7-34.4v-9.3l-7.2-8.1 19.4-6v67.7l7.8 7.4-20.2.9zm.2-49.8c-14.2.1-17.6 15.1-17.6 25.8 0 10.4 1.8 14.8 3.1 14.8 2 .1 14.4-29.3 14.5-40.6z"/><path class="st1" d="M1179 614H21V16h1158v598zM29 606h1142V24H29v582z"/></svg>