<svg version="1.1" id="Ebene_1" xmlns="http://www.w3.org/2000/svg" xmlns:xlink="http://www.w3.org/1999/xlink" x="0" y="0" viewBox="0 0 1200 600" xml:space="preserve"><style>.st1{fill:#ff7bac}.st3{fill:#fff}.st4{fill:#d4145a}.st5{fill:#ffdc00}.st6{fill:#f15a24}.st7{fill:#1b1464}</style><g id="fb_x5F_og"><defs><path id="SVGID_1_" d="M-1473.7-15h1200v630h-1200z"/></defs><use xlink:href="#SVGID_1_" overflow="visible" fill="#19ffdd"/><clipPath id="SVGID_2_"><use xlink:href="#SVGID_1_" overflow="visible"/></clipPath><g clip-path="url(#SVGID_2_)"><path class="st1" d="M-1170.7 151.5c-3.1-7.1-3-13.8.5-23.9 8.6-25.4.9-34.5-14.6-40.7-7.3-2.9-17.2-3.6-27.9-3.2 10.3-2.8 19.6-6.4 25.8-11.4 13.1-10.5 17.9-21.6 2.4-43.3-6.1-8.7-8.1-15-7.2-22.7.5-3.7-2.9-7.1-6.6-6.7-7.7.8-14-1.3-22.6-7.6-21.4-15.9-32.5-11.3-43.4 1.5-5.1 6.1-8.9 15.3-11.9 25.5.6-10.7.1-20.5-2.7-28-5.9-15.6-14.9-23.5-40.4-15.4-10.2 3.2-16.9 3.2-23.9 0-3.4-1.6-7.6.6-8.4 4.2-1.7 7.6-5.7 12.9-14.4 19.1-21.9 15.6-21 27.5-12.2 41.7 4.2 6.7 11.7 13.1 20.5 19-10-3.8-19.5-6.3-27.4-5.9-16.7.9-27.1 7-27.4 33.8-.1 10.7-2.3 17-7.6 22.7-2.5 2.7-1.9 7.4 1.3 9.3 6.7 3.9 10.5 9.3 13.7 19.5 7.9 25.5 19.5 28.3 35.8 24.2 7.7-2 16.1-7.2 24.6-13.8-6.8 8.3-12.1 16.7-14.3 24.3-4.4 16.2-1.9 27.8 23.5 36.3 10.1 3.4 15.5 7.3 19.2 14.1 1.8 3.2 6.5 4 9.3 1.5 5.8-5.2 12.2-7.2 22.8-7.1 26.8.2 33.1-10 34.4-26.7.5-7.9-1.8-17.5-5.3-27.6 5.8 8.9 12 16.6 18.6 20.9 14 9.1 25.9 10.2 41.9-11.4 6.4-8.6 11.8-12.5 19.4-14 3.8-.6 6-4.8 4.5-8.2z"/><path d="M-838.1 452.4v150.8h419.7v-151h-419.7zm0 176.1V704h419.7V603.3h-419.7zm329.8-446.7h-329.8v251.8h419.7V181.8h-30zM-838.1-88.6v251.9h419.7V-88.6zm-490.4 166.9h45.2v20.6h-.4l-11.6-17.1h-15.4v27.5h24.9v4.5h-24.9v21.3l10 10.4h-27.8v-.5l5.7-9.8V88.5l-5.7-10.2zm51.4 3.1l18-5.6v61.3l7.3 8.5h-18.6v-43.2l-6.7-7.6 6.7-2.9V89l-6.7-7.6zm34.2 65.3c-2.9-2.1-5.6-9.1-5.6-17.1 0-18.3 11.2-31.7 31.7-32.1h11.2l-3.7 5.3v34.4l7.3 8.5h-18.8v-25.3l1.2-11.4c-3.4 14.1-10.2 27.3-16 36.7l-7.3 1zm22.3-46.4c-13.2.1-15.7 14.1-15.7 24 0 9.6 1.1 13.8 2.3 13.8 1.8 0 13.3-27.4 13.4-37.8zm27.4 46.4c-2.9-2.1-5.6-9.1-5.6-17.1 0-17.9 11-31.7 31.7-32.1h11.2l-3.7 5.4c-.1 10.2-.1 20.5-.2 30.9v.8h.1l-.2 2.6v1.2c0 16.3-17.4 30.3-30.2 30.3h-.6l-10.9-13.4.6-.7c5.7 4.7 14.9 8.2 19 8.2 6.3 0 10.8-3.7 10.9-19.5v-22.8l1.2-11.4c-3.4 14.1-10.2 27.3-16 36.7l-7.3.9zm22.3-46.4c-13.2.1-15.7 14.1-15.7 24 0 9.6 1.1 13.8 2.3 13.8 1.8 0 13.3-27.4 13.4-37.8zm45.6 11.8c-3.7-5.8-8.6-9.9-13-9.9-2.8 0-3.4 1.3-3.4 3.7 0 6.9 19.7 14.5 19.7 25 0 6.5-5.5 14.7-18.2 14.7h-8.1l-2.4-16.7.3-.9c5.3 7.8 10.3 13.9 16 13.9 2.9 0 4.5-1.3 4.5-3.9 0-9.6-19.4-14.5-19.4-25.3 0-7 6.2-15.2 17-15.2h7l.5 14.5-.5.1zm-185.1 68.3c-2.7 0-4.7 7.9-2.7 15.3h15.8v2.4l-15.8 2.9v17.7c0 28-5.1 30.9-9.5 47.7h-.8l-1-42.4v-22.1l-6.9-6.2h7.4c0-3.9 7.7-17.3 20.4-20.1l4-.9 3.7 12.9-.3.3-14.3-7.5zm37.9 14.2c12.3 0 19.8 8.4 19.8 21.3 0 15.3-11.6 29.4-25 29.4-10.5 0-18.6-7.7-18.6-20.9 0-15.9 9.9-29.8 23.8-29.8zm-11.4 23.2c0 16.3 6.5 24.3 9.4 24.3 2.9 0 8.7-5.5 8.7-21.7 0-17.3-7.7-22.6-10.6-22.6s-7.5 2.6-7.5 20zm62.1-10.3c-1.4.6-9.7 20.5-9.7 30.5l.8 6h-12.1v-35l-6.7-7.6 18-6.6V226c2.9-11 7.7-23.4 13.5-31.6h1.3l8.3 16.2-.3.4-13.1-3.5zm-103.3 135.8c-2.9-2.1-5.6-9.1-5.6-17.1 0-18.3 11.2-31.7 31.7-32.1h11.2l-3.7 5.3v34.4l7.3 8.5h-18.8V317l1.2-11.4c-3.4 14.1-10.2 27.3-16 36.7l-7.3 1zm22.3-46.4c-13.2.1-15.7 14.1-15.7 24 0 9.6 1.1 13.8 2.3 13.8 1.8-.1 13.3-27.4 13.4-37.8zm-11.8 127.1c3.8-14.5 11.5-28.8 13.6-31.6l9.6-2.5c2.6 7.9 2.8 10.7 2.8 30.8V432l7.3 8.5h-18.6v-14.2c0-15.3-.9-22.2-2-26l-.8-.1c-4.9 9.7-11.9 26-11.9 34.3l1.5 6h-12.8v-35l-6.7-7.6 18-6.6V424zm72.5-4.8c-2.6 8.5-11.2 22.5-20.7 22.5-8.7 0-14.5-6.6-14.5-19.7 0-14.2 10-31 22.1-31 9.3 0 12.3 9.3 12.3 11.3l-21.6 18.6c.9 8.2 3.5 13.8 7.1 13.8 7.1 0 13.9-16.5 13.9-16.5l1.4 1zm-11.4-11.3c-.5-9.9-5.4-14.6-6.7-13.8-1.8 1.1-4.8 4.3-4.8 20.1 0 1.6.1 3 .2 4.4l11.3-10.7zm81.2-15.6c-1.2 15.9-11.1 44.6-27.1 49.6l-4.8-27.3c-4.6 12.4-12.2 24.3-21.9 27.3l-6.5-36.7-9.1-6.8 17.7-9.3 7.4 43.2-.1.4c7.1-6.6 10.9-18.2 11-26.8-.6-3-1.3-5.9-2.9-13.7h11.8l7 40.1-.1.4c10.7-9.6 13.1-32.2 9.6-35.1l-5.9-4.8v-.6h13.9zm-64.9 79.1l-6.3 8.5-20.1 60.1h-5.7l-13.6-38.2-13.4 38.2h-5.7l-23.2-62.7-4.8-5.8h25.6l-7.6 6 15.4 43.1.9 3.6 10.7-28.3-6.8-18.9-4.6-5.6h25.6l-7.7 6 14.5 43.1 1.1 4.3 14.1-44.9-8.1-8.6h19.7zm20.2 18c12.3 0 19.8 8.4 19.8 21.3 0 15.3-11.6 29.4-25 29.4-10.5 0-18.6-7.7-18.6-20.9 0-15.8 10-29.8 23.8-29.8zm-11.4 23.2c0 16.3 6.5 24.3 9.4 24.3s8.7-5.5 8.7-21.7c0-17.3-7.7-22.6-10.6-22.6s-7.5 2.6-7.5 20zm62.1-10.3c-1.4.6-9.7 20.5-9.7 30.5l.8 6h-12.1v-35l-6.7-7.6 18-6.6v31.3c2.9-11 7.7-23.4 13.5-31.6h1.3l8.3 16.2-.3.4-13.1-3.6zm13.3-27.7l18-5.6v61.3l7.3 8.5h-18.6v-43.2l-6.7-7.6 6.7-2.9v-2.9l-6.7-7.6zm56.9 65.1v-26.1l1.2-11.4c-3.4 14.1-10.2 27.3-16 36.7l-7.3 1.1c-2.9-2.1-6.2-9.1-6.2-17.1 0-16.7 10.1-30 28.5-31.9v-8.6l-6.7-7.6 18-5.6v62.9l7.3 6.9-18.8.7zm.2-46.2c-13.2.1-16.3 14.1-16.3 24 0 9.6 1.7 13.8 2.9 13.8 1.8-.1 13.3-27.4 13.4-37.8z"/><path d="M-845.5 444.7h419.7v25.2h-419.7z"/><path class="st3" d="M-845.5 469.9h419.7v25.2h-419.7z"/><path d="M-845.5 495.1h419.7v25.2h-419.7z"/><path class="st3" d="M-845.5 520.2h419.7v25.2h-419.7z"/><path d="M-845.5 545.4h419.7v25.2h-419.7z"/><path class="st3" d="M-845.5 570.6h419.7v25.2h-419.7z"/><path d="M-845.5 595.9h419.7v25.2h-419.7z"/><path class="st3" d="M-845.5 621.1h419.7v25.2h-419.7z"/><path d="M-845.5 646.2h419.7v25.2h-419.7z"/><path class="st3" d="M-845.5 671.4h419.7v25.2h-419.7z"/><path class="st4" d="M-845.5 444.9h125.9v125.8h-125.9z"/><path transform="rotate(-44.976 -782.605 507.862)" class="st3" d="M-809.4 481h53.6v53.6h-53.6z"/><path class="st5" d="M-845.5 174.4h419.7v251.8h-419.7z"/><path class="st3" d="M-845.5 174.4h419.7v50.4h-419.7z"/><path d="M-845.5 199.6v-25.2h29.9zm59.9 0l30 25.1h-60zm60 0l-30-25.2h60zm59.9 0l30 25.1h-59.9zm60 0l-30-25.2h60zm60 0l30 25.1h-60zm59.9 0l-29.9-25.2h59.9zm60 0v25.1h-30z"/><path class="st3" d="M-845.5 275.1h419.7v50.4h-419.7z"/><path d="M-845.5 300.3v-25.2h29.9zm59.9 0l30 25.2h-60zm60 0l-30-25.2h60zm59.9 0l30 25.2h-59.9zm60 0l-30-25.2h60zm60 0l30 25.2h-60zm59.9 0l-29.9-25.2h59.9zm60 0v25.2h-30z"/><path class="st3" d="M-845.5 375.8h419.7v50.4h-419.7z"/><path d="M-845.5 401v-25.2h29.9zm59.9 0l30 25.2h-60zm60 0l-30-25.2h60zm59.9 0l30 25.2h-59.9zm60 0l-30-25.2h60zm60 0l30 25.2h-60zm59.9 0l-29.9-25.2h59.9zm60 0v25.2h-30z"/><path class="st6" d="M-845.5 29.9h419.7v125.9h-419.7z"/><path class="st7" d="M-845.5-96h419.7V29.9h-419.7z"/><path class="st3" d="M-425.8 38.3l-52.8 29.4-52.4-29.4-52.3 29.4-52.4-29.4-52.3 29.4-52.4-29.4-52.4 29.4-52.7-29.4V-7.8l52.7 29.3 52.4-29.4 52.4 29.4 52.3-29.4 52.4 29.4L-531-7.9l52.4 29.4 52.8-29.3z"/><circle class="st6" cx="-792.8" cy="-45.6" r="18.9"/><circle class="st6" cx="-688" cy="-45.6" r="18.9"/><circle class="st6" cx="-583.3" cy="-45.6" r="18.9"/><circle class="st6" cx="-478.6" cy="-45.6" r="18.9"/><circle class="st7" cx="-740.4" cy="105.5" r="18.9"/><circle class="st7" cx="-635.7" cy="105.5" r="18.9"/><circle class="st7" cx="-531" cy="105.5" r="18.9"/><path class="st3" d="M-1335 70.9h45.2v20.6h-.4l-11.6-17.1h-15.4v27.5h24.9v4.5h-24.9v21.3l10 10.4h-27.8v-.6l5.7-9.8V81.1l-5.7-10.2zm51.4 3.1l18-5.6v61.3l7.3 8.5h-18.6V95l-6.7-7.6 6.7-2.9v-2.9l-6.7-7.6zm34.2 65.3c-2.9-2.1-5.6-9.1-5.6-17.1 0-18.3 11.2-31.7 31.7-32.1h11.2l-3.7 5.3v34.4l7.3 8.5h-18.8V113l1.2-11.4c-3.4 14.1-10.2 27.3-16 36.7l-7.3 1zm22.3-46.4c-13.2.1-15.7 14.1-15.7 24 0 9.6 1.1 13.8 2.3 13.8 1.8-.1 13.3-27.4 13.4-37.8zm27.4 46.4c-2.9-2.1-5.6-9.1-5.6-17.1 0-17.9 11-31.7 31.7-32.1h11.2l-3.7 5.4c-.1 10.2-.1 20.5-.2 30.9v.8h.1l-.2 2.6v1.2c0 16.3-17.4 30.3-30.2 30.3h-.6l-10.9-13.4.6-.7c5.7 4.7 14.9 8.2 19 8.2 6.3 0 10.8-3.7 10.9-19.5v-22.8l1.2-11.4c-3.4 14.1-10.2 27.3-16 36.7l-7.3.9zm22.3-46.4c-13.2.1-15.7 14.1-15.7 24 0 9.6 1.1 13.8 2.3 13.8 1.8-.1 13.3-27.4 13.4-37.8zm45.6 11.8c-3.7-5.8-8.6-9.9-13-9.9-2.8 0-3.4 1.3-3.4 3.7 0 6.9 19.7 14.5 19.7 25 0 6.5-5.5 14.7-18.2 14.7h-8.1l-2.4-16.7.3-.9c5.3 7.8 10.3 13.9 16 13.9 2.9 0 4.5-1.3 4.5-3.9 0-9.6-19.4-14.5-19.4-25.3 0-7 6.2-15.2 17-15.2h7l.5 14.5-.5.1zm-185.1 68.3c-2.7 0-4.7 7.9-2.7 15.3h15.8v2.4l-15.8 2.9v17.7c0 28-5.1 30.9-9.5 47.7h-.8l-1-42.4v-22.1l-6.9-6.2h7.4c0-3.9 7.7-17.3 20.4-20.1l4-.9 3.7 12.9-.3.3-14.3-7.5zm37.9 14.1c12.3 0 19.8 8.4 19.8 21.3 0 15.3-11.6 29.4-25 29.4-10.5 0-18.6-7.7-18.6-20.9 0-15.8 9.9-29.8 23.8-29.8zm-11.4 23.2c0 16.3 6.5 24.3 9.4 24.3s8.7-5.5 8.7-21.7c0-17.3-7.7-22.6-10.6-22.6s-7.5 2.6-7.5 20zm62.1-10.3c-1.4.6-9.7 20.5-9.7 30.5l.8 6h-12.1v-35l-6.7-7.6 18-6.6v31.3c2.9-11 7.7-23.4 13.5-31.6h1.3l8.3 16.2-.3.4-13.1-3.6zm-103.3 135.9c-2.9-2.1-5.6-9.1-5.6-17.1 0-18.3 11.2-31.7 31.7-32.1h11.2l-3.7 5.3v34.4l7.3 8.5h-18.8v-25.3l1.2-11.4c-3.4 14.1-10.2 27.3-16 36.7l-7.3 1zm22.3-46.4c-13.2.1-15.7 14.1-15.7 24 0 9.6 1.1 13.8 2.3 13.8 1.8-.1 13.3-27.4 13.4-37.8zm-11.8 127c3.8-14.5 11.5-28.8 13.6-31.6l9.6-2.5c2.6 7.9 2.8 10.7 2.8 30.8v11.4l7.3 8.5h-18.6v-14.2c0-15.3-.9-22.2-2-26l-.8-.1c-4.9 9.7-11.9 26-11.9 34.3l1.5 6h-12.8v-35l-6.7-7.6 18-6.6v32.6zm72.5-4.8c-2.6 8.5-11.2 22.5-20.7 22.5-8.7 0-14.5-6.6-14.5-19.7 0-14.2 10-31 22.1-31 9.3 0 12.3 9.3 12.3 11.3l-21.6 18.6c.9 8.2 3.5 13.8 7.1 13.8 7.1 0 13.9-16.5 13.9-16.5l1.4 1zm-11.4-11.3c-.5-9.9-5.4-14.6-6.7-13.8-1.8 1.1-4.8 4.3-4.8 20.1 0 1.6.1 3 .2 4.4l11.3-10.7zm81.2-15.5c-1.2 15.9-11.1 44.6-27.1 49.6l-4.8-27.3c-4.6 12.4-12.2 24.3-21.9 27.3l-6.5-36.7-9.1-6.8 17.7-9.3 7.4 43.2-.1.4c7.1-6.6 10.9-18.2 11-26.8-.6-3-1.3-5.9-2.9-13.7h11.8l7 40.1-.1.4c10.7-9.6 13.1-32.2 9.6-35.1l-5.9-4.8v-.6h13.9zm-64.9 79.1l-6.3 8.5-20.1 60.1h-5.7l-13.6-38.2-13.4 38.2h-5.7l-23.2-62.7-4.8-5.8h25.6l-7.6 6 15.4 43.1.9 3.6 10.7-28.3-6.8-18.9-4.6-5.6h25.6l-7.7 6 14.5 43.1 1.1 4.3 14.1-44.9-8.1-8.6h19.7zm20.2 18c12.3 0 19.8 8.4 19.8 21.3 0 15.3-11.6 29.4-25 29.4-10.5 0-18.6-7.7-18.6-20.9 0-15.8 10-29.8 23.8-29.8zm-11.4 23.2c0 16.3 6.5 24.3 9.4 24.3s8.7-5.5 8.7-21.7c0-17.3-7.7-22.6-10.6-22.6s-7.5 2.6-7.5 20zm62.1-10.3c-1.4.6-9.7 20.5-9.7 30.5l.8 6h-12.1v-35l-6.7-7.6 18-6.6v31.3c2.9-11 7.7-23.4 13.5-31.6h1.3l8.3 16.2-.3.4-13.1-3.6zm13.3-27.7l18-5.6v61.3l7.3 8.5h-18.6v-43.2l-6.7-7.6 6.7-2.9v-2.9l-6.7-7.6zm56.9 65v-26.1l1.2-11.4c-3.4 14.1-10.2 27.3-16 36.7l-7.3 1.1c-2.9-2.1-6.2-9.1-6.2-17.1 0-16.7 10.1-30 28.5-31.9v-8.6l-6.7-7.6 18-5.6v62.9l7.3 6.9-18.8.7zm.2-46.2c-13.2.1-16.3 14.1-16.3 24 0 9.6 1.7 13.8 2.9 13.8 1.8 0 13.3-27.3 13.4-37.8z"/></g></g><g id="twt_x5F_card"><defs><path id="SVGID_3_" d="M0 0h1200.9v600H0z"/></defs><use xlink:href="#SVGID_3_" overflow="visible" fill="#19ffdd"/><clipPath id="SVGID_4_"><use xlink:href="#SVGID_3_" overflow="visible"/></clipPath><g clip-path="url(#SVGID_4_)"><path class="st1" d="M288.6 158.5c-2.9-6.7-2.8-13.1.4-22.7 8.2-24.2.9-32.9-13.9-38.8-7-2.7-16.4-3.4-26.6-3.1 9.8-2.7 18.6-6.1 24.6-10.8 12.4-10 17-20.5 2.3-41.3-5.9-8.3-7.7-14.3-6.8-21.6.4-3.5-2.7-6.7-6.3-6.4-7.3.8-13.4-1.3-21.5-7.3-20.4-15.1-31-10.8-41.3 1.4-4.8 5.8-8.5 14.5-11.3 24.3.6-10.2 0-19.6-2.5-26.6-5.6-14.8-14.1-22.3-38.4-14.6-9.7 3.1-16.1 3-22.7 0-3.2-1.5-7.3.6-8 4-1.6 7.2-5.4 12.3-13.7 18.2-20.8 14.8-20 26.2-11.7 39.7 4 6.3 11.2 12.4 19.6 18.1-9.5-3.6-18.6-6-26.1-5.6-15.9.8-25.8 6.7-26.1 32.2-.1 10.2-2.2 16.2-7.2 21.6-2.4 2.6-1.8 7.1 1.3 8.9 6.3 3.7 10 8.9 13 18.5 7.5 24.3 18.6 27 34.1 23.1 7.3-1.9 15.4-6.9 23.4-13.1-6.4 7.9-11.5 15.9-13.6 23.1-4.2 15.4-1.8 26.5 22.4 34.6 9.6 3.2 14.7 7 18.3 13.4 1.7 3.1 6.2 3.8 8.8 1.5 5.5-4.9 11.6-6.8 21.7-6.8 25.5.2 31.5-9.5 32.7-25.4.5-7.5-1.7-16.7-5.1-26.2 5.5 8.5 11.5 15.8 17.7 19.9 13.3 8.7 24.7 9.7 39.9-10.8 6.1-8.2 11.3-11.9 18.5-13.3 3.4-.8 5.5-4.8 4.1-8.1z"/><path d="M663.3 445.1v143.7h399.8V444.9H663.3zm0 167.7v72h399.8v-95.9H663.3zm314.1-425.4H663.3v239.9h399.8V187.4h-28.6zM663.3-70.1v239.9h399.8V-70.1zm-525 159h43.1v19.7h-.4l-11-16.3h-14.7v26.2H179v4.3h-23.7v20.3l9.5 9.9h-26.5v-.6l5.4-9.4V98.6l-5.4-9.7zm48.9 3l17.1-5.3V145l6.9 8.1h-17.7v-41.2l-6.4-7.2 6.4-2.7v-2.8l-6.3-7.3zm32.6 62.1c-2.8-2-5.3-8.7-5.3-16.3 0-17.4 10.7-30.2 30.2-30.6h10.7l-3.6 5.1V145l6.9 8.1h-17.9V129l1.1-10.9c-3.3 13.4-9.7 26-15.3 34.9l-6.8 1zm21.2-44.2c-12.5.1-15 13.4-15 22.8 0 9.2 1 13.1 2.2 13.1 1.8.1 12.8-25.9 12.8-35.9zm26.2 44.2c-2.8-2-5.3-8.7-5.3-16.3 0-17 10.5-30.2 30.2-30.6h10.7l-3.6 5.1c-.1 9.7-.1 19.6-.2 29.4v.7h.1l-.2 2.4v1.1c0 15.5-16.6 28.8-28.7 28.8h-.6l-10.4-12.7.6-.7c5.4 4.5 14.2 7.8 18.1 7.8 6 0 10.3-3.6 10.4-18.5v-21.7l1.1-10.9c-3.3 13.4-9.7 26-15.3 34.9l-6.9 1.2zm21.2-44.2c-12.5.1-15 13.4-15 22.8 0 9.2 1 13.1 2.2 13.1 1.8.1 12.7-25.9 12.8-35.9zm43.4 11.3c-3.6-5.5-8.2-9.5-12.4-9.5-2.6 0-3.3 1.2-3.3 3.6 0 6.6 18.7 13.9 18.7 23.8 0 6.2-5.2 14-17.3 14h-7.7l-2.2-15.9.3-.8c5.1 7.4 9.8 13.2 15.3 13.2 2.8 0 4.3-1.2 4.3-3.7 0-9.2-18.4-13.9-18.4-24.1 0-6.6 5.9-14.5 16.2-14.5h6.6l.5 13.9h-.6zm-176.2 65c-2.5 0-4.5 7.5-2.5 14.6h15.1v2.2l-15.1 2.8v16.8c0 26.7-4.9 29.4-9.1 45.4h-.7l-.9-40.3v-21.1l-6.6-5.9h7c0-3.7 7.3-16.5 19.5-19.2l3.8-.8 3.6 12.3-.3.3-13.8-7.1zm36 13.5c11.7 0 18.8 8 18.8 20.3 0 14.6-11 28-23.8 28-10 0-17.7-7.3-17.7-19.9.1-15.1 9.5-28.4 22.7-28.4zm-10.8 22.1c0 15.5 6.2 23.1 9 23.1s8.3-5.2 8.3-20.7c0-16.5-7.3-21.5-10.1-21.5s-7.2 2.5-7.2 19.1zm59.1-9.8c-1.3.6-9.3 19.6-9.3 29l.7 5.7h-11.5v-33.3l-6.4-7.2 17.1-6.3v29.8c2.7-10.5 7.3-22.3 12.8-30.1h1.2l7.9 15.4-.3.4-12.2-3.4zm-98.4 129.3c-2.8-2-5.3-8.7-5.3-16.3 0-17.4 10.7-30.2 30.2-30.6h10.7l-3.6 5.1v32.8l6.9 8h-17.9v-24.1l1.1-10.9c-3.3 13.4-9.7 26-15.3 34.9l-6.8 1.1zm21.3-44.2c-12.5.1-15 13.4-15 22.8 0 9.2 1 13.1 2.2 13.1 1.7.1 12.7-25.9 12.8-35.9zm-11.2 121.1c3.7-13.9 11-27.4 12.9-30.1l9.2-2.3c2.4 7.5 2.6 10.2 2.6 29.3v10.9l6.9 8.1h-17.7v-13.5c0-14.6-.8-21.2-1.9-24.8l-.7-.1c-4.7 9.3-11.3 24.8-11.3 32.7l1.4 5.7h-12.2v-33.3l-6.4-7.2 17.1-6.3v30.9zm69-4.6c-2.4 8-10.7 21.4-19.8 21.4-8.3 0-13.9-6.3-13.9-18.7 0-13.5 9.5-29.5 21.1-29.5 8.9 0 11.7 8.9 11.7 10.8l-20.6 17.7c.8 7.8 3.4 13.1 6.7 13.1 6.7 0 13.2-15.7 13.2-15.7l1.6.9zm-10.8-10.8c-.5-9.5-5.1-13.9-6.4-13.1-1.7 1-4.6 4.1-4.6 19.1 0 1.5.1 2.9.2 4.2l10.8-10.2zm77.3-14.8c-1.1 15.2-10.6 42.5-25.8 47.3l-4.6-26c-4.4 11.8-11.6 23.1-20.9 26l-6.2-34.9-8.7-6.5 16.8-8.9 7 41.2-.1.4c6.7-6.3 10.4-17.3 10.5-25.6-.6-2.9-1.2-5.6-2.8-13h11.2l6.6 38.2-.1.4c10.2-9.2 12.4-30.7 9.2-33.4l-5.6-4.6v-.6h13.5zm-61.9 75.4l-6 8-19.1 57.2h-5.4l-12.9-36.4-12.7 36.4h-5.4l-22.1-59.7-4.6-5.5h24.3l-7.2 5.7 14.7 41.1.8 3.5 10.2-27-6.5-18-4.4-5.3h24.3L186 469l13.9 41.1 1 4.1 13.4-42.8-7.7-8.1h18.6zm19.3 17.1c11.7 0 18.8 8 18.8 20.3 0 14.6-11 28-23.8 28-10 0-17.7-7.3-17.7-19.9.1-15.1 9.5-28.4 22.7-28.4zm-10.8 22.1c0 15.5 6.2 23.1 9 23.1s8.3-5.2 8.3-20.7c0-16.5-7.3-21.5-10.1-21.5s-7.2 2.5-7.2 19.1zm59.1-9.8c-1.3.6-9.3 19.6-9.3 29l.7 5.7h-11.5v-33.3l-6.4-7.2 17.1-6.3v29.8c2.7-10.5 7.3-22.3 12.8-30.1h1.2l7.9 15.4-.3.4-12.2-3.4zm12.6-26.4l17.1-5.3v58.4l6.9 8.1h-17.7v-41.2l-6.4-7.2 6.4-2.7v-2.8l-6.3-7.3zm54.2 61.9v-24.9l1.1-10.9c-3.3 13.4-9.7 26-15.3 34.9l-6.9 1c-2.8-2-5.9-8.7-5.9-16.3 0-15.9 9.6-28.5 27.1-30.4v-8.2l-6.4-7.2 17.1-5.3v59.9l6.9 6.6-17.7.8zm.2-43.9c-12.5.1-15.5 13.4-15.5 22.8 0 9.2 1.6 13.1 2.7 13.1 1.8 0 12.7-26 12.8-35.9z"/><path d="M656.3 437.8H1056v24H656.3z"/><path class="st3" d="M656.3 461.8H1056v24H656.3z"/><path d="M656.3 485.8H1056v24H656.3z"/><path class="st3" d="M656.3 509.8H1056v24H656.3z"/><path d="M656.3 533.7H1056v24H656.3z"/><path class="st3" d="M656.3 557.7H1056v24H656.3z"/><path d="M656.3 581.8H1056v24H656.3z"/><path class="st3" d="M656.3 605.8H1056v24H656.3z"/><path d="M656.3 629.7H1056v24H656.3z"/><path class="st3" d="M656.3 653.7H1056v24H656.3z"/><path class="st4" d="M656.3 438h119.9v119.8H656.3z"/><path transform="rotate(-44.976 716.262 497.962)" class="st3" d="M690.7 472.4h51.1v51.1h-51.1z"/><path class="st5" d="M656.3 180.3H1056v239.8H656.3z"/><path class="st3" d="M656.3 180.3H1056v48H656.3z"/><path d="M656.3 204.3v-24h28.5zm57.1 0l28.5 24h-57.1zm57.1 0l-28.6-24H799zm57.1 0l28.5 24H799zm57.1 0l-28.6-24h57.2zm57.1 0l28.6 24h-57.1zm57.1 0l-28.5-24h57.1zm57.1 0v24h-28.5z"/><path class="st3" d="M656.3 276.3H1056v48H656.3z"/><path d="M656.3 300.3v-24h28.5zm57.1 0l28.5 24h-57.1zm57.1 0l-28.6-24H799zm57.1 0l28.5 24H799zm57.1 0l-28.6-24h57.2zm57.1 0l28.6 24h-57.1zm57.1 0l-28.5-24h57.1zm57.1 0v24h-28.5z"/><path class="st3" d="M656.3 372.2H1056v48H656.3z"/><path d="M656.3 396.2v-24h28.5zm57.1 0l28.5 24h-57.1zm57.1 0l-28.6-24H799zm57.1 0l28.5 24H799zm57.1 0l-28.6-24h57.2zm57.1 0l28.6 24h-57.1zm57.1 0l-28.5-24h57.1zm57.1 0v24h-28.5z"/><path class="st6" d="M656.3 42.8H1056v119.9H656.3z"/><path class="st7" d="M656.3-77.1H1056V42.8H656.3z"/><path class="st3" d="M1056 50.8l-50.2 27.9-49.9-27.9L906 78.7l-49.9-27.9-49.8 27.9-49.9-27.9-49.9 27.9-50.2-27.9v-44l50.2 28 49.9-28 49.9 28 49.8-28 49.9 28 49.9-28 49.9 28 50.2-28z"/><circle class="st6" cx="706.5" cy="-29.2" r="18"/><circle class="st6" cx="806.3" cy="-29.2" r="18"/><circle class="st6" cx="906" cy="-29.2" r="18"/><circle class="st6" cx="1005.7" cy="-29.2" r="18"/><circle class="st7" cx="756.4" cy="114.7" r="18"/><circle class="st7" cx="856.1" cy="114.7" r="18"/><circle class="st7" cx="955.9" cy="114.7" r="18"/><path class="st3" d="M132.1 81.8h43.1v19.7h-.4l-11-16.3H149v26.2h23.7v4.3H149V136l9.5 9.9H132v-.6l5.4-9.4V91.5l-5.3-9.7zm48.9 3l17.1-5.3v58.4l6.9 8.1h-17.7v-41.2l-6.4-7.2 6.4-2.7V92l-6.3-7.2zm32.6 62.1c-2.8-2-5.3-8.7-5.3-16.3 0-17.4 10.7-30.2 30.2-30.6h10.7l-3.6 5.1v32.8l6.9 8.1h-17.9v-24.1l1.1-10.9c-3.3 13.4-9.7 26-15.3 34.9l-6.8 1zm21.3-44.1c-12.5.1-15 13.4-15 22.8 0 9.2 1 13.1 2.2 13.1 1.7 0 12.7-26 12.8-35.9zm26.1 44.1c-2.8-2-5.3-8.7-5.3-16.3 0-17 10.5-30.2 30.2-30.6h10.7l-3.6 5.1c-.1 9.7-.1 19.6-.2 29.4v.7h.1l-.2 2.4v1.1c0 15.5-16.6 28.8-28.7 28.8h-.6L253 155l.6-.7c5.4 4.5 14.2 7.8 18.1 7.8 6 0 10.3-3.6 10.4-18.5v-21.7l1.1-10.9c-3.3 13.4-9.7 26-15.3 34.9l-6.9 1zm21.2-44.1c-12.5.1-15 13.4-15 22.8 0 9.2 1 13.1 2.2 13.1 1.8 0 12.7-26 12.8-35.9zm43.5 11.2c-3.6-5.5-8.2-9.5-12.4-9.5-2.6 0-3.3 1.2-3.3 3.6 0 6.6 18.7 13.9 18.7 23.8 0 6.2-5.2 14-17.3 14h-7.7l-2.2-15.9.3-.8c5.1 7.4 9.8 13.2 15.3 13.2 2.8 0 4.3-1.2 4.3-3.7 0-9.2-18.4-13.9-18.4-24.1 0-6.6 5.9-14.5 16.2-14.5h6.6l.5 13.9h-.6zm-176.3 65c-2.5 0-4.5 7.5-2.5 14.6H162v2.2l-15.1 2.8v16.8c0 26.7-4.9 29.4-9.1 45.4h-.8l-.9-40.3v-21.1l-6.6-5.9h7c0-3.7 7.3-16.5 19.5-19.2l3.8-.8 3.6 12.3-.3.3-13.7-7.1zm36 13.5c11.7 0 18.8 8 18.8 20.3 0 14.6-11 28-23.8 28-10 0-17.7-7.3-17.7-19.9.1-15.1 9.5-28.4 22.7-28.4zm-10.8 22.1c0 15.5 6.2 23.1 9 23.1s8.3-5.2 8.3-20.7c0-16.5-7.3-21.5-10.1-21.5s-7.2 2.5-7.2 19.1zm59.1-9.8c-1.3.6-9.3 19.6-9.3 29l.7 5.7h-11.5v-33.3l-6.4-7.2 17.1-6.3v29.8c2.7-10.5 7.3-22.3 12.8-30.1h1.2l7.9 15.4-.3.4-12.2-3.4zm-98.3 129.3c-2.8-2-5.3-8.7-5.3-16.3 0-17.4 10.7-30.2 30.2-30.6H171l-3.6 5.1v32.8l6.9 8.1h-17.9v-24.1l1.1-10.9c-3.3 13.4-9.7 26-15.3 34.9l-6.8 1zm21.2-44.1c-12.5.1-15 13.4-15 22.8 0 9.2 1 13.1 2.2 13.1 1.8 0 12.7-26 12.8-35.9zm-11.2 121c3.7-13.9 11-27.4 12.9-30.1l9.2-2.3c2.4 7.5 2.6 10.2 2.6 29.3v10.9l6.9 8h-17.7v-13.5c0-14.6-.8-21.2-1.9-24.8l-.7-.1c-4.7 9.3-11.3 24.8-11.3 32.7l1.4 5.7h-12.2v-33.3l-6.4-7.2 17.1-6.3v31zm69.1-4.6c-2.4 8.1-10.7 21.4-19.8 21.4-8.3 0-13.9-6.3-13.9-18.7 0-13.5 9.5-29.5 21.1-29.5 8.9 0 11.7 8.9 11.7 10.8L193 408.1c.8 7.8 3.4 13.1 6.7 13.1 6.7 0 13.2-15.7 13.2-15.7l1.6.9zm-10.9-10.8c-.5-9.5-5.1-13.9-6.4-13.1-1.7 1-4.6 4.1-4.6 19.1 0 1.5.1 2.9.2 4.2l10.8-10.2zm77.3-14.7c-1.1 15.2-10.6 42.5-25.8 47.3l-4.6-26c-4.4 11.8-11.6 23.1-20.9 26l-6.2-34.9-8.7-6.5 16.8-8.9 7 41.2-.1.4c6.7-6.3 10.4-17.3 10.5-25.6-.6-2.9-1.2-5.6-2.8-13h11.2l6.6 38.2-.1.4c10.2-9.2 12.4-30.7 9.2-33.4l-5.6-4.6v-.6h13.5zM219 456.2l-6 8-19 57.3h-5.4l-13-36.5-12.7 36.4h-5.4l-22.1-59.7-4.6-5.5h24.3l-7.2 5.7 14.7 41.1.8 3.5 10.2-27-6.5-18-4.4-5.3H187l-7.3 5.7 13.9 41.1 1 4.1 13.4-42.8-7.7-8.1H219zm19.3 17.1c11.7 0 18.8 8 18.8 20.3 0 14.6-11 28-23.8 28-10 0-17.7-7.3-17.7-19.9.1-15.1 9.5-28.4 22.7-28.4zm-10.8 22.1c0 15.5 6.2 23.1 9 23.1s8.3-5.2 8.3-20.7c0-16.5-7.3-21.5-10.1-21.5s-7.2 2.6-7.2 19.1zm59.1-9.8c-1.3.6-9.3 19.6-9.3 29l.7 5.7h-11.5V487l-6.4-7.2 17.1-6.3v29.8c2.7-10.5 7.3-22.3 12.8-30.1h1.2l7.9 15.4-.1.4-12.4-3.4zm12.7-26.4l17.1-5.3v58.4l6.9 8h-17.7v-41.2l-6.4-7.2 6.4-2.7v-2.8l-6.3-7.2zm54.2 62v-24.9l1.1-10.9c-3.3 13.4-9.7 26-15.3 34.9l-6.9 1c-2.8-2-5.9-8.7-5.9-16.3 0-15.9 9.6-28.5 27.1-30.4v-8.2l-6.4-7.2 17.1-5.3v59.9l6.9 6.6-17.7.8zm.1-44c-12.5.1-15.5 13.4-15.5 22.8 0 9.2 1.6 13.1 2.7 13.1 1.8 0 12.7-26 12.8-35.9z"/></g></g></svg>