<svg xmlns="http://www.w3.org/2000/svg" xmlns:xlink="http://www.w3.org/1999/xlink" viewBox="0 0 1000 600"><defs><style>.a{fill:none;}.b{clip-path:url(#a);}.c{fill:#ffdc00;}.d{clip-path:url(#b);}.e{fill:#ff7bac;}.f{fill:#29abe2;}</style><clipPath id="a"><polygon class="a" points="1000 600 0 0 1000 0 1000 600"/></clipPath><clipPath id="b"><polygon class="a" points="0 0 1000 600 0 600 0 0"/></clipPath></defs><g class="b"><rect class="c" width="1000" height="600"/><polygon points="1000 525 0 1124.9 0 1049.9 1000 450 1000 525"/><polygon points="1000 375 0 974.9 0 899.9 1000 300 1000 375"/><polygon points="1000 225 0 824.9 0 749.9 1000 150 1000 225"/><polygon points="1000 75 0 674.9 0 599.9 1000 0.1 1000 75"/><polygon points="1000 -74.9 0 524.9 0 450 1000 -149.9 1000 -74.9"/><polygon points="1000 -224.9 0 375 0 300 1000 -299.9 1000 -224.9"/><polygon points="1000 -374.9 0 225 0 150 1000 -449.9 1000 -374.9"/><polygon points="1000 -524.9 0 75 0 0 1000 -599.9 1000 -524.9"/></g><g class="d"><rect class="e" width="1000" height="600"/><polygon class="f" points="0 75 1000 -524.9 1000 -449.9 0 150 0 75"/><polygon class="f" points="0 225 1000 -374.9 1000 -299.9 0 300 0 225"/><polygon class="f" points="0 375 1000 -224.9 1000 -149.9 0 450 0 375"/><polygon class="f" points="0 525 1000 -74.9 1000 0.1 0 599.9 0 525"/><polygon class="f" points="0 674.9 1000 75.1 1000 150 0 749.9 0 674.9"/><polygon class="f" points="0 824.9 1000 225 1000 300 0 899.9 0 824.9"/><polygon class="f" points="0 974.9 1000 375 1000 450 0 1049.9 0 974.9"/><polygon class="f" points="0 1124.9 1000 525 1000 600 0 1199.9 0 1124.9"/></g></svg>