<svg xmlns="http://www.w3.org/2000/svg" viewBox="0 0 1000 600"><defs><style>.a{fill:#f15a24;}.b{fill:#1b1464;}.c{fill:#fff;}</style></defs><rect class="a" y="300" width="1000" height="300"/><rect class="b" width="1000" height="300"/><polygon class="c" points="1000 320 874.3 390 749.5 320 624.7 390 500 320 375.2 390 250.5 320 125.7 390 0 320 0 210.1 125.7 280 250.5 210 375.2 280 500 210 624.7 280 749.5 210 874.3 280 1000 210.1 1000 320"/><circle class="a" cx="125.7" cy="120" r="45"/><circle class="a" cx="375.2" cy="120" r="45"/><circle class="a" cx="624.7" cy="120" r="45"/><circle class="a" cx="874.2" cy="120" r="45"/><circle class="b" cx="250.5" cy="480" r="45"/><circle class="b" cx="500" cy="480" r="45"/><circle class="b" cx="749.5" cy="480" r="45"/></svg>