<svg xmlns="http://www.w3.org/2000/svg" xmlns:xlink="http://www.w3.org/1999/xlink" viewBox="0 0 1000 600"><defs><style>.a{fill:url(#a);}.b{clip-path:url(#c);}.c{fill:none;stroke-width:11px;}.c,.e,.h{stroke:#009245;stroke-miterlimit:10;}.d{fill:url(#d);}.e,.h{fill:#009232;}.e{stroke-width:6px;}.f{fill:url(#e);}.g{fill:url(#f);}.h{stroke-width:7px;}</style><linearGradient id="a" x1="561.2" y1="-47.07" x2="428.44" y2="705.85" gradientUnits="userSpaceOnUse"><stop offset="0" stop-color="#1e9cd7"/><stop offset="1" stop-color="#2e3192"/></linearGradient><clipPath id="c"><rect class="a" width="1000" height="600"/></clipPath><radialGradient id="d" cx="355.29" cy="229.21" fx="362.59959519937786" fy="254.46958208113364" r="99.33" gradientUnits="userSpaceOnUse"><stop offset="0" stop-color="#820000"/><stop offset="1" stop-color="#ed1c24"/></radialGradient><radialGradient id="e" cx="607.91" cy="271.36" fx="564.695960535893" fy="294.9942925833947" r="178.1" xlink:href="#d"/><radialGradient id="f" cx="448.01" cy="395.78" fx="432.23264029550046" fy="407.4458751619425" r="148.57" xlink:href="#d"/><symbol id="g" viewBox="0 0 35 11"><ellipse cx="17.5" cy="5.5" rx="17.5" ry="5.5"/></symbol></defs><rect class="a" width="1000" height="600"/><g class="b"><path class="c" d="M413.1,439.1c-59.2,65.9-82,109.1-86.5,247.8s23.1,165,23.1,165"/><path class="c" d="M581,303.6C555.8,332.8,461.2,460.9,439.9,557s-63.3,299.7-62.6,312.7"/><path class="c" d="M356,259.5C393.3,287,410.9,449,422.3,537.7S448,851.9,448,851.9"/><path class="d" d="M245.5,277.5c4,0,7.9-.1,11.8,0,1.6.1,2.3-.5,2-2.1-1.4-7.6-2.8-15.1-6.3-22.2-9-21.9-29.3-46.7-9.5-68.5,5-6.6,10.9-12,18.7-15.6,5.8-3.4,10.1-10,14.5-15.3,9.2-11.3,25.2-7,37.3-3.6a274.8,274.8,0,0,1,49.8,17.4,200.4,200.4,0,0,0,25.9,9.4c3.2.9,3.6.6,4.4-2.7,2.5-11,5.1-22.1,11.6-31.6s13.8-12.6,21.9-17.3,16.8-23.2,27.5-13.4c6.9,7.4,11.3,15.8,11.4,26a8.6,8.6,0,0,0,3.1,7.1c6.1,5.3,13.7,10.8,13,19.8-.7,10.7-3.8,21-5.8,31.5-1.6,5,1.9,8.5,4.4,12.4,10.5,12.6,25.5,4,16.7,28.8-6.1,12.8-17.8-13.5-25.6-7.6s-18.3,12.1-26,19.6c-14,23.1-28,53.3-58,56.9-16.4.1-9.4,11.6-20.8,17.7-9.2,4.1-5.3,12.1-13,13.8-1.6.4-2.9,1.6-4.5,2.3-15.1,8.2-36.7,13.7-51.7,2.5-9.1-8.6-21.5-10.6-28.5-22-13-15.9-24.6-20.5-44.4-14.9-4.7.8-7-.9-7.4-5.6s-2.7-7.9-5.9-11-2.9-3.1.2-5,7.5-4.4,11.6-5.2c7.1-1.4,14.4-1.7,21.6-2.5Z"/><use width="35" height="11" transform="translate(326.9 244.2) rotate(82.4) scale(0.45)" xlink:href="#g"/><use width="35" height="11" transform="translate(349 236.2) rotate(107.8) scale(0.45)" xlink:href="#g"/><use width="35" height="11" transform="matrix(-0.35, 0.29, -0.29, -0.35, 368.91, 234.54)" xlink:href="#g"/><use width="35" height="11" transform="translate(359.5 250.3) rotate(24.4) scale(0.45)" xlink:href="#g"/><use width="35" height="11" transform="translate(354.6 244.6) rotate(26.6) scale(0.45)" xlink:href="#g"/><use width="35" height="11" transform="matrix(0.38, 0.24, -0.24, 0.38, 342.55, 282.54)" xlink:href="#g"/><use width="35" height="11" transform="matrix(0.31, 0.33, -0.33, 0.31, 357.77, 256.42)" xlink:href="#g"/><use width="35" height="11" transform="matrix(-0.45, -0.04, 0.04, -0.45, 360.8, 235.34)" xlink:href="#g"/><use width="35" height="11" transform="translate(347.2 258.9) rotate(164.2) scale(0.45)" xlink:href="#g"/><use width="35" height="11" transform="matrix(-0.37, 0.27, -0.27, -0.37, 337.86, 276.79)" xlink:href="#g"/><use width="35" height="11" transform="translate(389.5 257.2) rotate(-163.1) scale(0.45)" xlink:href="#g"/><use width="35" height="11" transform="translate(382.3 233.3) rotate(46.5) scale(0.45)" xlink:href="#g"/><use width="35" height="11" transform="translate(377.1 229.3) rotate(89.7) scale(0.45)" xlink:href="#g"/><use width="35" height="11" transform="matrix(0.05, 0.45, -0.45, 0.05, 370.64, 263.4)" xlink:href="#g"/><use width="35" height="11" transform="matrix(-0.15, 0.43, -0.43, -0.15, 379.38, 259.36)" xlink:href="#g"/><use width="35" height="11" transform="translate(347.5 282.3) rotate(-177.8) scale(0.45)" xlink:href="#g"/><use width="35" height="11" transform="matrix(-0.43, 0.14, -0.14, -0.43, 350.56, 264.5)" xlink:href="#g"/><use width="35" height="11" transform="translate(351.4 268.8) rotate(90) scale(0.45)" xlink:href="#g"/><path class="e" d="M359.7,259.3c13-6.5,20.2-8.1,23.9-8.8s4.3.1,4.6.7-.6,1.5-4.3,2.9-10.8,3.3-23.8,7c11.3,2.7,16.7,5.8,19.4,7.5s2.5,2.7,2.2,3.4-1.4,1-4.5,0-8.6-3.6-18.4-9c3.6,10.6,5.1,16.4,5.6,19.6s-.1,4-.7,4.5-1.6.1-3-2.8-3.3-8.8-3.9-20.5c-6,12.2-9.1,18.8-11.1,22.2s-2.9,3.7-3.7,3.7-1.1-.9.2-4.6,4.2-10.3,12.9-21.9c-12.7,7-19.7,11.1-23.5,12.8s-4.5,1.4-5,.9.1-1.7,3.8-4.3,11.1-6.9,24.3-11.2c-11.6-2.2-18.1-3.7-21.2-4.9s-3-2.2-2.7-3.1,1.7-1.5,5.3-1.1,10,1.9,19.9,7.2c-3.5-10.6-3.8-17.2-3.6-20.8s1.2-4.4,2-5,1.9-.2,2.5,3.2,1,9.9,1.2,21.8c6.5-12.3,12.2-18.8,15.3-21.9s4.2-3.2,4.9-3.1.6,1.3-1.8,4.8S368.9,248.1,359.7,259.3Z"/><path class="f" d="M790,309.8c.3,20.4-10.3,36.3-11.9,55.9-1.3,7.9-5.2,14.1-12.1,18.3-12.9,8.6-28.1,14.6-38.3,26.6-11.4,9.9-23.2,22.3-38.3,25.6-8.6,1-17.3,1-25.6,3.7-28.7,11-42.4,5.8-60-19.1-7-8.2-3.7-20.6-10.8-21.6s-13.3-4.3-19.8-2.5c3.1,10.7,11.8,19.2,19.9,26.5,3.4,3.3,3.1,7.3-.7,10.1-30.1,22.2-54.3-12.1-69.4-36.6-7-10.4-29.6-4.5-34.1-16.9-1.9-5.4-5.6-8.7-10.5-11.4-8.9-5.4-12.7-15.9-19-23.8-7.7-10.4-15.7-20.6-26.6-28.1-8.5-5.9-9.3-18.5-1.8-25.8,6.3-5.3,13.4-10.7,12.3-19.9a29.2,29.2,0,0,1,1.5-12.4c1.7-9.3,1.9-19.1,3.6-28.5,3.3-15.2,20.1-24.4,20.5-40.5.6-6.9,3.4-13.6,4.3-20.4s1.6-10.5,4.8-14.9,5-6.4,6.8-9.9c5.9-8.9,7.2-22.1,17.4-27.3,27.9-10.4,44.1-27.6,75.1-15.3,8.1,3.3,16.6,2.5,25.2,2.3,10.9-.2,6.9,15,17.5,16.8,17.1.7,31.6,15.7,48.9,11s18.2,19.7,35.9,29.9a4.4,4.4,0,0,0,2,1.1,30.9,30.9,0,0,1,17,12.8c3.7,8.8,5.5,18.7,10.7,26.7,12.2,13.9,23.2,28.8,27.9,46.9,2.2,7.8,8.2,13.7,12.3,20.5C781.3,281.8,789.6,295.5,790,309.8Z"/><path class="g" d="M459.3,489.3c6.1,9.5,21.2,19.4,15,32.3-2.5,5.1-1.9,14.3-7.9,15.9-3.8,1.2-3.3-3.7-4-6.1-1.1-5.1-1.7-10.3-3.4-15.2-3.1-11.5-11.6-3-16.1-10.5-3-4.9-4.8-11.8-11.5-12.7-25.5-5.2-53.9-5.8-73.3-25.5-14.6-16.1-10.1-32.7-33.2-49.2-4.5-4-9.8-3.9-15.5-3.2-7-1.5-8.3,5.6-12.9,9-1.1-2-3.2-3.6-3.4-5.8.5-7.5,1.1-15.1,7.4-20.4s13.8-2.9,21.2-2.5c-13-42.6-22.2-86.5-25.6-130.9-1.6-16.4,38.1-9.8,47.1-6.5,10.5,3.4,10.5,15.7,26.5,15.8,5,0,10.4-.2,15.2-1.8,18.7-7.1,31.4-.5,48.6,6.3,4.3,1.3,8,3.5,10,7.5C449,298,459,300,468.8,307a50.7,50.7,0,0,0,21.8,8.1c7.1,1.2,15.2.8,21.1,5.4s12.7,11.4,16.2,19.6c2.5,4.8,6.9,10.9,13.1,10.4,8.5-1,15.7,2.2,22.8,6.2,13.1,5.3,19.3,19.4,17.7,31.2-.4,5.5-3.4,11.6,1.8,15.7,8.1,9.8,12.6,22.1,18.2,33.5s-4,21.3-6.9,31.7c-9.3,19.9-64.5,37.6-85.6,35.4C487.2,503.6,485.1,487.5,459.3,489.3Z"/><use width="35" height="11" transform="matrix(-0.35, -0.42, 0.38, -0.38, 555.06, 278.98)" xlink:href="#g"/><use width="35" height="11" transform="matrix(-0.42, 0.33, -0.3, -0.45, 587.57, 269.33)" xlink:href="#g"/><use width="35" height="11" transform="matrix(-0.35, 0.41, -0.38, -0.38, 591.08, 289.07)" xlink:href="#g"/><use width="35" height="11" transform="matrix(-0.41, -0.34, 0.32, -0.44, 572.81, 326.58)" xlink:href="#g"/><use width="35" height="11" transform="matrix(-0.52, -0.04, 0.04, -0.56, 606.84, 357.66)" xlink:href="#g"/><use width="35" height="11" transform="matrix(-0.28, -0.47, 0.43, -0.31, 626.42, 351.01)" xlink:href="#g"/><use width="35" height="11" transform="matrix(-0.14, 0.54, -0.5, -0.15, 581.08, 290.32)" xlink:href="#g"/><use width="35" height="11" transform="matrix(-0.09, -0.55, 0.51, -0.1, 532.78, 327.66)" xlink:href="#g"/><use width="35" height="11" transform="matrix(-0.43, -0.32, 0.29, -0.46, 571.69, 319.86)" xlink:href="#g"/><use width="35" height="11" transform="matrix(-0.47, 0.24, -0.22, -0.51, 601.31, 278.16)" xlink:href="#g"/><use width="35" height="11" transform="matrix(0, -0.56, 0.52, 0, 603.1, 282.36)" xlink:href="#g"/><use width="35" height="11" transform="matrix(0, -0.56, 0.52, 0, 608.24, 314.02)" xlink:href="#g"/><use width="35" height="11" transform="matrix(-0.02, -0.56, 0.52, -0.02, 600.43, 333.9)" xlink:href="#g"/><use width="35" height="11" transform="matrix(-0.31, -0.45, 0.41, -0.34, 622.99, 327.03)" xlink:href="#g"/><use width="35" height="11" transform="matrix(-0.51, -0.07, 0.07, -0.56, 557.7, 280.28)" xlink:href="#g"/><use width="35" height="11" transform="matrix(-0.4, 0.35, -0.33, -0.43, 545.38, 273.96)" xlink:href="#g"/><use width="35" height="11" transform="matrix(-0.45, 0.28, -0.26, -0.48, 600.49, 316.77)" xlink:href="#g"/><use width="35" height="11" transform="matrix(-0.5, 0.15, -0.13, -0.54, 610.07, 315.03)" xlink:href="#g"/><use width="35" height="11" transform="matrix(-0.07, -0.56, 0.51, -0.07, 595.12, 319.5)" xlink:href="#g"/><use width="35" height="11" transform="matrix(-0.17, -0.53, 0.49, -0.18, 607.56, 351.27)" xlink:href="#g"/><use width="35" height="11" transform="matrix(-0.52, 0.05, -0.05, -0.56, 589.02, 340.89)" xlink:href="#g"/><use width="35" height="11" transform="matrix(-0.06, 0.56, -0.51, -0.07, 567.43, 306.87)" xlink:href="#g"/><use width="35" height="11" transform="matrix(-0.52, 0.01, -0.01, -0.56, 579.19, 333)" xlink:href="#g"/><use width="35" height="11" transform="matrix(-0.44, -0.29, 0.27, -0.48, 540.66, 313.38)" xlink:href="#g"/><use width="35" height="11" transform="matrix(-0.34, -0.42, 0.39, -0.37, 564.26, 301.03)" xlink:href="#g"/><use width="35" height="11" transform="matrix(0.07, -0.55, 0.51, 0.08, 546.18, 322.44)" xlink:href="#g"/><path class="h" d="M585.4,303.3c10.1,12.9,13.4,20.9,14.8,25.1s.8,5.1.1,5.7-1.9-.1-4.3-4-5.8-11.7-12.6-25.7c-1.1,14.5-3.7,22.1-5.3,25.9s-2.7,4-3.6,4-1.4-1.3-.7-5.4,2.6-11.6,7.2-25.3c-11.9,8.3-18.5,12.3-22.2,14.1s-4.6,1.4-5.4.8-.5-1.8,2.8-4.6,9.7-7.2,23.4-12.4c-15.5-2.5-23.9-3.6-28.3-4.8s-4.8-2-5-2.9.9-1.7,5.4-1.6,13,1.1,28.3,7c-10.6-12.4-16.7-19.1-19.5-23.1s-2.5-4.8-2-5.6,2-.5,5.8,3,10.2,10.6,17.7,24.7c.5-14.7,1-23.1,1.9-27.2s2-4.4,3.1-4.4,2.1,1.5,2.3,6-.4,12.5-4.8,26.3c11.9-8.1,19.6-11,23.9-12.1s5.4-.3,6.3.5.5,2.1-3.3,4.2-11.6,4.9-25.5,9.6c15.6,3.1,24.3,7.4,28.7,9.9s4.5,3.8,4.5,4.7-1.5,1.3-6-.3S600.4,309.9,585.4,303.3Z"/><use width="35" height="11" transform="translate(402.8 387.5) rotate(-91.8) scale(0.47)" xlink:href="#g"/><use width="35" height="11" transform="translate(429.5 398.4) rotate(-144.1) scale(0.47)" xlink:href="#g"/><use width="35" height="11" transform="matrix(-0.45, 0.12, -0.12, -0.45, 447.94, 406.06)" xlink:href="#g"/><use width="35" height="11" transform="matrix(-0.38, -0.27, 0.27, -0.38, 432.75, 432.19)" xlink:href="#g"/><use width="35" height="11" transform="translate(402.8 440.4) rotate(179.4) scale(0.47)" xlink:href="#g"/><use width="35" height="11" transform="translate(428.2 441.1) rotate(164.6) scale(0.47)" xlink:href="#g"/><use width="35" height="11" transform="translate(474.1 454.1) rotate(-115.7) scale(0.47)" xlink:href="#g"/><use width="35" height="11" transform="translate(432.2 403.4) rotate(102.3) scale(0.47)" xlink:href="#g"/><use width="35" height="11" transform="translate(394.1 420.1) rotate(169.2) scale(0.47)" xlink:href="#g"/><use width="35" height="11" transform="matrix(-0.36, -0.3, 0.3, -0.36, 414.55, 417.53)" xlink:href="#g"/><use width="35" height="11" transform="matrix(-0.32, 0.35, -0.35, -0.32, 448, 390.06)" xlink:href="#g"/><use width="35" height="11" transform="translate(458 386.9) rotate(-147.9) scale(0.47)" xlink:href="#g"/><use width="35" height="11" transform="translate(468.2 408.7) rotate(143.8) scale(0.47)" xlink:href="#g"/><use width="35" height="11" transform="translate(468.6 428.6) rotate(139.2) scale(0.47)" xlink:href="#g"/><use width="35" height="11" transform="translate(476.5 434.4) rotate(-145.4) scale(0.47)" xlink:href="#g"/><use width="35" height="11" transform="translate(413.3 395.6) rotate(164.8) scale(0.47)" xlink:href="#g"/><use width="35" height="11" transform="matrix(0.02, 0.47, -0.47, 0.02, 415.09, 422.61)" xlink:href="#g"/><use width="35" height="11" transform="translate(430.4 439.2) rotate(-89.7) scale(0.47)" xlink:href="#g"/><use width="35" height="11" transform="matrix(0, -0.47, 0.47, 0, 440.81, 433.46)" xlink:href="#g"/><use width="35" height="11" transform="translate(450.3 412.5) rotate(111.1) scale(0.47)" xlink:href="#g"/><use width="35" height="11" transform="translate(451.6 435.7) rotate(81.1) scale(0.47)" xlink:href="#g"/><use width="35" height="11" transform="matrix(-0.15, -0.45, 0.45, -0.15, 433.82, 451.55)" xlink:href="#g"/><use width="35" height="11" transform="matrix(-0.16, 0.44, -0.44, -0.16, 396.27, 400.37)" xlink:href="#g"/><use width="35" height="11" transform="translate(409 392.9) rotate(90.8) scale(0.47)" xlink:href="#g"/><use width="35" height="11" transform="translate(398.4 411.5) rotate(86.9) scale(0.47)" xlink:href="#g"/><path class="e" d="M466.3,410c-.5-.9-1.2-2-5.4-3s-12.1-1.8-24.7.9c7-9.3,9.7-15.3,10.6-18.7s0-4.6-.9-5.4-2.2-.6-4.1,2.3-4.3,9.2-7.7,20.4c-4-13.1-9.5-20.4-12.7-24s-4.6-3.7-5.5-3.6-1.1,1.2,1.3,4.9,7.5,10.3,14.8,23c-12.9-9-21.5-11.1-25.8-12.1s-5.1-.2-5.5.4.4,1.5,4.6,3.1,12.3,4,25.9,10.2c-13.5.3-20,3-23.2,4.4s-3.2,2.4-3,3.1,1.4,1,4.9.3,9.9-2.6,22.1-5.7c-6.8,9.3-9.5,14.8-10.8,17.8s-.7,3.8-.2,4.4,1.5.4,3.6-2.2,5.5-7.8,9.4-18.8c3.1,12.9,4,20,5,23.7s1.6,4.1,2.3,4.4,1.4-.6,1.4-4.4-.5-10.8-6.6-23.9c11.9,9.7,17.1,15.9,20.3,18.7s3.9,2.9,4.7,2.6.6-1.6-2.2-5.3-8.6-10.3-21.9-17.6c13.5.8,21.3,1.9,25.2,1.9S466.3,411,466.3,410Z"/></g></svg>