<svg xmlns="http://www.w3.org/2000/svg" xmlns:xlink="http://www.w3.org/1999/xlink" viewBox="0 0 1000 600"><defs><style>.a{fill:url(#a);}.b{clip-path:url(#c);}.c{fill:none;stroke:#009245;stroke-miterlimit:10;stroke-width:11px;}.d{fill:url(#d);}.e{fill:#ffdc00;}.f{fill:#bdcf19;}.g{fill:#7bc231;}.h{fill:#fff;}.i{fill:#39b54a;}.j{fill:#269b44;}.k{fill:#13823d;}.l{fill:#006837;}.m{fill:url(#e);}</style><linearGradient id="a" x1="561.2" y1="-747.07" x2="428.44" y2="5.85" gradientUnits="userSpaceOnUse"><stop offset="0" stop-color="#1e9cd7"/><stop offset="1" stop-color="#2e3192"/></linearGradient><clipPath id="c"><rect class="a" y="-700" width="1000" height="600"/></clipPath><linearGradient id="d" x1="500" x2="500" y2="600" gradientUnits="userSpaceOnUse"><stop offset="0" stop-color="#ffdc00"/><stop offset="0.08" stop-color="#edd807"/><stop offset="0.25" stop-color="#bccf19"/><stop offset="0.49" stop-color="#70c036"/><stop offset="0.65" stop-color="#39b54a"/><stop offset="0.75" stop-color="#2ba345"/><stop offset="0.95" stop-color="#08733a"/><stop offset="0.99" stop-color="#006837"/></linearGradient><linearGradient id="e" x1="500" y1="599.59" x2="500" y2="0" xlink:href="#d"/></defs><rect class="a" y="-700" width="1000" height="600"/><g class="b"><path class="c" d="M413.1-260.9c-59.2,65.9-82,109.1-86.5,247.8s23.1,165,23.1,165"/><path class="c" d="M581-396.4C555.8-367.2,461.2-239.1,439.9-143s-63.3,299.7-62.6,312.7"/><path class="c" d="M356-440.5C393.3-413,410.9-251,422.3-162.3S448,151.9,448,151.9"/></g><rect class="d" width="1000" height="600"/><polygon class="e" points="125 0 0 120.1 125 120.1 125 0"/><polygon class="f" points="250 0 125 120.1 250 120.1 250 0"/><polygon class="f" points="125 119.9 0 240 125 240 125 119.9"/><polygon class="g" points="125 239.8 0 359.8 125 359.8 125 239.8"/><polygon class="g" points="250 119.9 125 240 250 240 250 119.9"/><polygon class="h" points="375 0 250 120.1 375 120.1 375 0"/><polygon class="i" points="500 0 375 120.1 500 120.1 500 0"/><polygon class="i" points="375 119.9 250 240 375 240 375 119.9"/><polygon class="i" points="250 239.3 125 359.4 250 359.4 250 239.3"/><polygon class="i" points="125 359.6 0 479.7 125 479.7 125 359.6"/><polygon class="j" points="125 479.5 0 599.6 125 599.6 125 479.5"/><polygon class="h" points="250 359.6 125 479.7 250 479.7 250 359.6"/><polygon class="j" points="375 239.3 250 359.4 375 359.4 375 239.3"/><polygon class="j" points="500 119.9 375 240 500 240 500 119.9"/><polygon class="j" points="625 0 500 120.1 625 120.1 625 0"/><polygon class="k" points="750 0 625 120.1 750 120.1 750 0"/><polygon class="h" points="625 119.9 500 240 625 240 625 119.9"/><polygon class="k" points="500 239.3 375 359.4 500 359.4 500 239.3"/><polygon class="k" points="375 359.6 250 479.7 375 479.7 375 359.6"/><polygon class="k" points="250 479.9 125 600 250 600 250 479.9"/><polygon class="l" points="375 479.9 250 600 375 600 375 479.9"/><polygon class="l" points="500 359.6 375 479.7 500 479.7 500 359.6"/><polygon class="l" points="625 239.8 500 359.8 625 359.8 625 239.8"/><polygon class="l" points="750 119.9 625 240 750 240 750 119.9"/><polygon class="l" points="875 0 750 120.1 875 120.1 875 0"/><path class="m" d="M0,0H125L0,120.1ZM0,240,125,119.9H0ZM0,359.8l125-120H0ZM0,479.7,125,359.6H0ZM0,599.6,125,479.5H0ZM125,120.1,250,0H125ZM125,240,250,119.9H125Zm0,119.8,125-120H125Zm0,119.9L250,359.6H125ZM250,120.1,375,0H250ZM250,240,375,119.9H250Zm0,119.8,125-120H250ZM375,120.1,500,0H375ZM375,240,500,119.9H375ZM500,120.1,625,0H500ZM125,599.6,250,479.5H125ZM250,479.7,375,359.6H250ZM375,359.8l125-120H375ZM500,240,625,119.9H500ZM625,120.1,750,0H625ZM250,599.6,375,479.5H250ZM375,479.7,500,359.6H375ZM500,359.8l125-120H500ZM625,240,750,119.9H625ZM750,120.1,875,0H750ZM375,599.6,500,479.5H375ZM500,479.7,625,359.6H500ZM625,359.8l125-120H625ZM750,240,875,119.9H750ZM875,120.1,1000,0H875Z"/></svg>