<svg xmlns="http://www.w3.org/2000/svg" xmlns:xlink="http://www.w3.org/1999/xlink" viewBox="0 0 1000 600"><defs><style>.a{fill:#fff;}.b{fill:url(#a);}.c{fill:url(#b);}.d{fill:url(#c);}.e{fill:url(#d);}.f{fill:#ffdc00;}</style><linearGradient id="a" x1="57.24" y1="267.65" x2="311.41" y2="707.87" gradientUnits="userSpaceOnUse"><stop offset="0" stop-color="#1e9cd7"/><stop offset="0.22" stop-color="#237ac1"/><stop offset="0.52" stop-color="#2952a7"/><stop offset="0.76" stop-color="#2d3a98"/><stop offset="0.9" stop-color="#2e3192"/></linearGradient><linearGradient id="b" x1="746.74" y1="445.52" x2="876.95" y2="671.04" xlink:href="#a"/><linearGradient id="c" x1="123.05" y1="-71.04" x2="253.26" y2="154.48" gradientUnits="userSpaceOnUse"><stop offset="0" stop-color="#1e9cd7"/><stop offset="1" stop-color="#2e3192"/></linearGradient><linearGradient id="d" x1="688.59" y1="-107.87" x2="942.76" y2="332.35" xlink:href="#a"/></defs><polygon class="a" points="501.8 0 0 300.7 498.2 600 1000 299.3 501.8 0"/><polygon class="b" points="0 600 498.2 600 0 300.7 0 600"/><polygon class="c" points="1000 600 1000 299.3 498.2 600 1000 600"/><polygon class="d" points="0 0 0 300.7 501.8 0 0 0"/><polygon class="e" points="501.8 0 1000 299.3 1000 0 501.8 0"/><polygon class="f" points="500.9 150 250 300.4 499.1 450 750 299.6 500.9 150"/></svg>