<svg xmlns="http://www.w3.org/2000/svg" viewBox="0 0 1000 600"><defs><style>.a{fill:#fff;}.b{fill:#f15a24;}.c{fill:#00a99d;}</style></defs><rect class="a" width="1000" height="600"/><rect class="b" x="27.7" y="286.5" width="944.6" height="25.89"/><rect class="b" x="27.7" y="338.3" width="944.6" height="25.89"/><rect class="b" x="27.7" y="390.1" width="944.6" height="25.89"/><rect class="b" x="27.7" y="441.9" width="944.6" height="25.89"/><rect class="b" x="27.7" y="493.7" width="944.6" height="25.89"/><rect class="b" x="27.7" y="545.5" width="944.6" height="25.89"/><rect class="b" x="27.7" y="234.7" width="669" height="25.89"/><rect class="b" x="27.7" y="183.5" width="669" height="25.89"/><rect class="b" x="27.7" y="131.7" width="669" height="25.89"/><rect class="b" x="27.7" y="79.9" width="669" height="25.89"/><rect class="b" x="27.7" y="28.6" width="669" height="25.89"/><rect class="c" x="724.3" y="234.7" width="248" height="25.89"/><rect class="c" x="724.3" y="183.5" width="248" height="25.89"/><rect class="c" x="724.3" y="131.7" width="248" height="25.89"/><rect class="c" x="724.3" y="79.9" width="248" height="25.89"/><rect class="c" x="724.3" y="28.6" width="248" height="25.89"/></svg>