<svg xmlns="http://www.w3.org/2000/svg" xmlns:xlink="http://www.w3.org/1999/xlink" viewBox="0 0 1000 600"><defs><style>.a{fill:none;}.b{clip-path:url(#a);}.c{fill:#d4145a;}.d{fill:#fff;}</style><clipPath id="a"><rect class="a" width="1000" height="600" transform="translate(1000 600) rotate(180)"/></clipPath></defs><g class="b"><rect class="c" x="333" width="333.3" height="600" transform="translate(999.4 600) rotate(180)"/><polygon class="d" points="333 400 666.4 500 666.4 600 333 500 333 400"/><polygon class="d" points="333 200 666.4 300 666.4 400 333 300 333 200"/><polygon class="d" points="333 0 666.4 100 666.4 200 333 100 333 0"/><rect class="c" x="666.7" width="333.3" height="600" transform="translate(1666.7 600) rotate(180)"/><polygon points="666.7 400 1000 500 1000 600 666.7 500 666.7 400"/><polygon points="666.7 200 1000 300 1000 400 666.7 300 666.7 200"/><polygon points="666.7 0 1000 100 1000 200 666.7 100 666.7 0"/><rect class="c" width="333.3" height="600" transform="translate(333.3 600) rotate(180)"/><polygon points="0 400 333.3 500 333.3 600 0 500 0 400"/><polygon points="0 200 333.3 300 333.3 400 0 300 0 200"/><polygon points="0 0 333.3 100 333.3 200 0 100 0 0"/></g></svg>