<svg xmlns="http://www.w3.org/2000/svg" xmlns:xlink="http://www.w3.org/1999/xlink" viewBox="0 0 1000 600"><defs><style>.a{fill:#d4145a;}.b{clip-path:url(#a);}.c{fill:#fff;}</style><clipPath id="a"><rect class="a" width="1000" height="600"/></clipPath></defs><rect class="a" width="1000" height="600"/><g class="b"><rect x="-95.3" y="150" width="1190.7" height="300" transform="translate(-83.1 300) rotate(-31)"/></g><polygon class="c" points="832.4 171 861.7 141.7 832.4 112.4 831.3 70 791 71 761.7 41.7 732.4 71 691 71 691 112.4 661.7 141.7 691 171 691 212.4 732.4 212.4 761.7 241.7 791 212.4 832.4 212.4 832.4 171"/><polygon class="c" points="570.7 329.3 600 300 570.7 270.7 569.6 228.3 529.3 229.3 500 200 470.7 229.3 429.3 229.3 429.3 270.7 400 300 429.3 329.3 429.3 370.7 470.7 370.7 500 400 529.3 370.7 570.7 370.7 570.7 329.3"/><polygon class="c" points="309 487.6 338.3 458.3 309 429 307.9 386.7 267.6 387.6 238.3 358.3 209 387.6 167.6 387.6 167.6 429 138.3 458.3 167.6 487.6 167.6 529 209 529 238.3 558.3 267.6 529 309 529 309 487.6"/></svg>