<svg xmlns="http://www.w3.org/2000/svg" viewBox="0 0 1000 600"><defs><style>.a{fill:#ffdc00;}.b{fill:#fff;}</style></defs><rect class="a" width="1000" height="600"/><rect class="b" width="1000" height="120"/><polygon points="0 60 0 0 71.4 0 0 60"/><polygon points="142.9 60 214.3 120 71.4 120 142.9 60"/><polygon points="285.7 60 214.3 0 357.1 0 285.7 60"/><polygon points="428.6 60 500 120 357.1 120 428.6 60"/><polygon points="571.4 60 500 0 642.9 0 571.4 60"/><polygon points="714.3 60 785.7 120 642.9 120 714.3 60"/><polygon points="857.1 60 785.7 0 928.6 0 857.1 60"/><polygon points="1000 60 1000 120 928.6 120 1000 60"/><rect class="b" y="240" width="1000" height="120"/><polygon points="0 300 0 240 71.4 240 0 300"/><polygon points="142.9 300 214.3 360 71.4 360 142.9 300"/><polygon points="285.7 300 214.3 240 357.1 240 285.7 300"/><polygon points="428.6 300 500 360 357.1 360 428.6 300"/><polygon points="571.4 300 500 240 642.9 240 571.4 300"/><polygon points="714.3 300 785.7 360 642.9 360 714.3 300"/><polygon points="857.1 300 785.7 240 928.6 240 857.1 300"/><polygon points="1000 300 1000 360 928.6 360 1000 300"/><rect class="b" y="480" width="1000" height="120"/><polygon points="0 540 0 480 71.4 480 0 540"/><polygon points="142.9 540 214.3 600 71.4 600 142.9 540"/><polygon points="285.7 540 214.3 480 357.1 480 285.7 540"/><polygon points="428.6 540 500 600 357.1 600 428.6 540"/><polygon points="571.4 540 500 480 642.9 480 571.4 540"/><polygon points="714.3 540 785.7 600 642.9 600 714.3 540"/><polygon points="857.1 540 785.7 480 928.6 480 857.1 540"/><polygon points="1000 540 1000 600 928.6 600 1000 540"/></svg>