<svg xmlns="http://www.w3.org/2000/svg" xmlns:xlink="http://www.w3.org/1999/xlink" viewBox="0 0 1000 600"><defs><style>.a{fill:none;}.b{fill:#29abe2;}.c{fill:#ffdc00;}.d{fill:#fff;}.e{clip-path:url(#a);}.f{clip-path:url(#b);}</style><clipPath id="a"><polygon class="a" points="1000 -100 0 -700 1000 -700 1000 -100"/></clipPath><clipPath id="b"><polygon class="a" points="0 -700 1000 -100 0 -100 0 -700"/></clipPath></defs><rect class="b" y="300" width="1000" height="300"/><rect class="c" width="1000" height="300"/><path class="d" d="M730.5,331.8h-.2l-.8.6c-28.1,19.2-47.5,44.3-47,78.6s19,59.8,47,78.9l.2.2.9-.7c28-19.1,47.4-44.3,46.9-78.5S758.5,351,730.5,331.8Z"/><path class="b" d="M729.5,268.2h.2l.9-.6c28-19.2,47.4-44.3,46.9-78.6s-19-59.8-47-78.9c0-.1-.1-.1-.2-.2a2.7,2.7,0,0,0-.8.7c-28.1,19.1-47.5,44.3-47,78.5S701.5,249,729.5,268.2Z"/><path class="d" d="M540.7,300.5c19.1,28.1,44.3,47.5,78.5,47s59.8-19,79-47v-.2c0-.1-.1-.2-.2-.3H540.2C540.4,300.2,540.5,300.4,540.7,300.5Z"/><path class="b" d="M619.1,252.5c-34.7-.4-59.8,19-78.9,47-.1,0-.1.1-.2.2s.2.2.2.3H698.1l-.4-.5C678.5,271.4,653.4,252,619.1,252.5Z"/><path class="d" d="M761.9,300l.4.5c19.2,28.1,44.3,47.5,78.6,47s59.8-19,78.9-47c.1,0,.1-.1.2-.2s-.2-.2-.2-.3Z"/><path class="b" d="M919.3,299.5c-19.1-28.1-44.3-47.5-78.5-47s-59.8,19-79,47v.2l.2.3H919.8C919.6,299.8,919.5,299.6,919.3,299.5Z"/><path class="b" d="M610.5,214.6c17.3,17.6,36.9,23.3,56.6,22.9h.1v-.7c.5-19.7-5.2-39.3-22.7-56.4s-36.9-23.3-56.6-22.9h-.1v.7C587.3,177.9,593,197.5,610.5,214.6Z"/><path class="d" d="M849.6,385.4c-17.3-17.6-37-23.3-56.7-22.9h-.1v.7c-.5,19.7,5.2,39.3,22.7,56.4s36.9,23.3,56.6,22.9h.2a1.5,1.5,0,0,1-.1-.7C872.7,422.1,867,402.5,849.6,385.4Z"/><path class="d" d="M667.5,362.8h-.7c-19.7-.5-39.3,5.2-56.4,22.7s-23.3,36.9-22.9,56.6v.2h.7c19.7.5,39.3-5.2,56.4-22.6s23.3-37,22.9-56.7Z"/><path class="b" d="M792.5,237.2h.7c19.7.5,39.3-5.2,56.4-22.7s23.3-36.9,22.9-56.6h-.7c-19.7-.5-39.3,5.2-56.4,22.7s-23.3,36.9-22.9,56.6Z"/><path class="d" d="M270.5,331.8h-.2l-.8.6c-28.1,19.2-47.5,44.3-47,78.6s19,59.8,47,78.9l.2.2.9-.7c28-19.1,47.4-44.3,46.9-78.5S298.5,351,270.5,331.8Z"/><path class="b" d="M269.5,268.2h.2l.9-.6c28-19.2,47.4-44.3,46.9-78.6s-19-59.8-47-78.9c0-.1-.1-.1-.2-.2a2.7,2.7,0,0,0-.8.7c-28.1,19.1-47.5,44.3-47,78.5S241.5,249,269.5,268.2Z"/><path class="d" d="M80.7,300.5c19.1,28.1,44.3,47.5,78.5,47s59.8-19,79-47v-.2c0-.1-.1-.2-.2-.3H80.2Z"/><path class="b" d="M159.1,252.5c-34.7-.4-59.8,19-78.9,47-.1,0-.1.1-.2.2s.2.2.2.3H238.1l-.4-.5C218.5,271.4,193.4,252,159.1,252.5Z"/><path class="d" d="M302.3,300.5c19.2,28.1,44.3,47.5,78.6,47s59.8-19,78.9-47l.2-.2c-.1-.1-.2-.2-.2-.3H301.9Z"/><path class="b" d="M380.8,252.5c-34.7-.4-59.8,19-79,47v.2l.2.3H459.8l-.5-.5C440.2,271.4,415,252,380.8,252.5Z"/><path class="b" d="M150.5,214.6c17.3,17.6,36.9,23.3,56.6,22.9h.1v-.7c.5-19.7-5.2-39.3-22.7-56.4s-36.9-23.3-56.6-22.9h-.1v.7C127.3,177.9,133,197.5,150.5,214.6Z"/><path class="d" d="M389.6,385.4c-17.3-17.6-37-23.3-56.7-22.9h-.1v.7c-.5,19.7,5.2,39.3,22.7,56.4s36.9,23.3,56.6,22.9h.2a1.5,1.5,0,0,1-.1-.7C412.7,422.1,407,402.5,389.6,385.4Z"/><path class="d" d="M207.5,362.8h-.7c-19.7-.5-39.3,5.2-56.4,22.7s-23.3,36.9-22.9,56.6v.2h.7c19.7.5,39.3-5.2,56.4-22.6s23.3-37,22.9-56.7Z"/><path class="b" d="M332.5,237.2h.7c19.7.5,39.3-5.2,56.4-22.7s23.3-36.9,22.9-56.6h-.7c-19.7-.5-39.3,5.2-56.4,22.7s-23.3,36.9-22.9,56.6Z"/><g class="e"><polygon points="1000 -25 0 574.9 0 499.9 1000 -100 1000 -25"/><polygon points="1000 -175 0 424.9 0 349.9 1000 -250 1000 -175"/><polygon points="1000 -325 0 274.9 0 199.9 1000 -400 1000 -325"/><polygon points="1000 -475 0 124.9 0 49.9 1000 -550 1000 -475"/></g><g class="f"><polygon class="b" points="0 -25.1 1000 -624.9 1000 -550 0 49.9 0 -25.1"/><polygon class="b" points="0 124.9 1000 -475 1000 -400 0 199.9 0 124.9"/><polygon class="b" points="0 274.9 1000 -325 1000 -250 0 349.9 0 274.9"/><polygon class="b" points="0 424.9 1000 -175 1000 -100 0 499.9 0 424.9"/></g></svg>