<svg xmlns="http://www.w3.org/2000/svg" viewBox="0 0 1000 600"><defs><style>.a{fill:#0071bc;}.b{fill:#29abe2;}.c,.d{fill:none;stroke:#fff;stroke-linecap:round;stroke-width:15px;}.c{stroke-miterlimit:10;}.d{stroke-linejoin:round;}</style></defs><rect class="a" y="130" width="1000" height="340" transform="translate(1000 600) rotate(180)"/><rect class="b" y="470" width="1000" height="130"/><rect class="b" width="1000" height="130"/><line class="c" x1="928.1" y1="300.1" x2="688.1" y2="300.1"/><line class="c" x1="808.1" y1="420.1" x2="808.1" y2="180.1"/><line class="c" x1="882.5" y1="225.7" x2="733.7" y2="374.5"/><line class="c" x1="882.5" y1="374.5" x2="733.7" y2="225.7"/><polyline class="c" points="881.8 397.8 881.8 373.8 905.8 373.8"/><polyline class="c" points="857.7 379.7 857.7 349.7 887.7 349.7"/><polyline class="c" points="833.6 361.6 833.6 325.6 869.6 325.6"/><polyline class="c" points="906.6 225.6 882.6 225.6 882.6 201.6"/><polyline class="c" points="888.1 250 858.1 250 858.1 220"/><polyline class="c" points="869.7 274.4 833.7 274.4 833.7 238.4"/><polyline class="c" points="733.8 201.8 733.8 225.8 709.8 225.8"/><polyline class="c" points="758.2 220.2 758.2 250.2 728.2 250.2"/><polyline class="c" points="782.7 238.7 782.7 274.7 746.7 274.7"/><polyline class="c" points="709.8 374.4 733.8 374.4 733.8 398.4"/><polyline class="c" points="728.2 349.9 758.2 349.9 758.2 379.9"/><polyline class="c" points="746.7 325.4 782.7 325.4 782.7 361.4"/><polyline class="c" points="906.2 325.5 880.8 300.1 906.2 274.6"/><polyline class="c" points="833.5 201.9 808.1 227.4 782.6 201.9"/><polyline class="c" points="709.9 274.6 735.4 300.1 709.9 325.5"/><polyline class="c" points="782.6 398.2 808.1 372.8 833.5 398.2"/><line class="c" x1="257.1" y1="235.1" x2="127.1" y2="365.1"/><line class="c" x1="257.1" y1="365.1" x2="127.1" y2="235.1"/><rect class="c" x="254.1" y="362.1" width="38.3" height="38.29" rx="19.1" transform="translate(546.5 762.5) rotate(180)"/><rect class="c" x="91.7" y="362.1" width="38.3" height="38.29" rx="19.1" transform="translate(221.8 762.5) rotate(180)"/><rect class="c" x="254.1" y="199.7" width="38.3" height="38.29" rx="19.1" transform="translate(546.5 437.8) rotate(180)"/><rect class="c" x="91.7" y="199.7" width="38.3" height="38.29" rx="19.1" transform="translate(221.8 437.8) rotate(-180)"/><line class="c" x1="192.1" y1="180.1" x2="192.1" y2="420.1"/><line class="c" x1="312.1" y1="300.1" x2="72.1" y2="300.1"/><polyline class="c" points="295 325.9 269.2 300.1 295 274.2"/><polyline class="c" points="166.2 403 192.1 377.2 217.9 403"/><polyline class="c" points="217.9 197.2 192.1 223 166.2 197.2"/><polyline class="c" points="89.2 274.2 115 300.1 89.2 325.9"/><polyline class="c" points="223.9 365.9 223.9 331.9 257.9 331.9"/><polyline class="c" points="126.3 331.9 160.2 331.9 160.2 365.9"/><polyline class="c" points="257.9 268.2 223.9 268.2 223.9 234.3"/><polyline class="c" points="160.2 234.3 160.2 268.2 126.3 268.2"/><circle class="c" cx="500.1" cy="300.1" r="20.3"/><polyline class="d" points="620.1 281.2 601.1 300.1 620.1 319.1"/><polyline class="d" points="599.9 261 560.7 300.1 599.9 339.3"/><polyline class="d" points="579.7 240.8 520.3 300.1 579.7 359.5"/><line class="d" x1="601.1" y1="300.1" x2="520.3" y2="300.1"/><polyline class="d" points="519.1 420.1 500.1 401.1 481.2 420.1"/><polyline class="d" points="539.3 399.9 500.1 360.7 461 399.9"/><polyline class="d" points="559.5 379.7 500.1 320.3 440.8 379.7"/><line class="d" x1="500.1" y1="401.1" x2="500.1" y2="320.3"/><polyline class="d" points="380.1 319 399 300 380.1 281"/><polyline class="d" points="400.3 339.2 439.4 300 400.3 260.8"/><polyline class="d" points="420.5 359.4 479.8 300 420.5 240.6"/><line class="d" x1="399" y1="300" x2="479.8" y2="300"/><polyline class="d" points="481 180.1 500 199 519 180.1"/><polyline class="d" points="460.8 200.3 500 239.4 539.2 200.3"/><polyline class="d" points="440.6 220.5 500 279.8 559.4 220.5"/><line class="d" x1="500" y1="199" x2="500" y2="279.8"/></svg>