<svg xmlns="http://www.w3.org/2000/svg" xmlns:xlink="http://www.w3.org/1999/xlink" viewBox="0 0 1000 600"><defs><style>.a{fill:#f15a24;}.b{fill:none;}.c{clip-path:url(#a);}.d{fill:#1b1464;}.e{clip-path:url(#b);}.f{fill:#fff;}.g{fill:#29abe2;}.h{fill:#ff7bac;}</style><clipPath id="a"><rect class="a" x="-1100" width="1000" height="600"/></clipPath><clipPath id="b"><path class="b" d="M-990.5,105V495h781V105Z"/></clipPath></defs><rect class="a" x="-1100" width="1000" height="600"/><g class="c"><polygon class="d" points="-370 600 -420 600 -20 0 30 0 -370 600"/><polygon class="d" points="-280 600 -330 600 70 0 120 0 -280 600"/><polygon class="d" points="-190 600 -240 600 160 0 210 0 -190 600"/><polygon class="d" points="-100 600 -150 600 250 0 300 0 -100 600"/></g><g class="e"><polygon class="f" points="-370 600 -420 600 -20 0 30 0 -370 600"/><polygon class="f" points="-280 600 -330 600 70 0 120 0 -280 600"/><polygon class="f" points="-190 600 -240 600 160 0 210 0 -190 600"/><polygon class="f" points="-100 600 -150 600 250 0 300 0 -100 600"/></g><rect class="g" width="1000" height="600"/><rect class="h" x="110.8" y="111.1" width="111.1" height="377.78" rx="55.6"/><rect class="h" x="333" y="111.1" width="111.1" height="377.78" rx="55.6"/><rect class="h" x="555.3" y="111.1" width="111.1" height="377.78" rx="55.6"/><rect class="h" x="777.5" y="111.1" width="111.1" height="377.78" rx="55.6"/></svg>