<svg xmlns="http://www.w3.org/2000/svg" xmlns:xlink="http://www.w3.org/1999/xlink" viewBox="0 0 1000 600"><defs><style>.a{fill:#d4145a;}.b{clip-path:url(#a);}.c{fill:#fff;}.d{fill:#22b573;}.e{fill:#ed1c24;}</style><clipPath id="a"><rect class="a" y="-700" width="1000" height="600"/></clipPath></defs><rect class="a" y="-700" width="1000" height="600"/><g class="b"><rect x="-95.3" y="-550" width="1190.7" height="300" transform="translate(277.1 200.2) rotate(-31)"/></g><rect class="c" width="1000" height="600"/><rect class="d" x="27.7" y="286.5" width="944.6" height="25.89"/><rect class="d" x="27.7" y="338.3" width="944.6" height="25.89"/><rect class="d" x="27.7" y="390.1" width="944.6" height="25.89"/><rect class="d" x="27.7" y="441.9" width="944.6" height="25.89"/><rect class="d" x="27.7" y="493.7" width="944.6" height="25.89"/><rect class="d" x="27.7" y="545.5" width="944.6" height="25.89"/><rect class="d" x="27.7" y="234.7" width="667.8" height="25.89"/><rect class="d" x="27.7" y="183.5" width="667.8" height="25.89"/><rect class="d" x="27.7" y="131.7" width="667.8" height="25.89"/><rect class="d" x="27.7" y="79.9" width="667.8" height="25.89"/><rect class="d" x="27.7" y="28.6" width="667.8" height="25.89"/><rect class="e" x="944.6" y="28.6" width="27.7" height="232.01"/><rect class="e" x="889.3" y="28.6" width="27.7" height="232.01"/><rect class="e" x="833.9" y="28.6" width="27.7" height="232.01"/><rect class="e" x="778.6" y="28.6" width="27.7" height="232.01"/><rect class="e" x="723.2" y="28.6" width="27.7" height="232.01"/></svg>