<svg xmlns="http://www.w3.org/2000/svg" viewBox="0 0 1000 600"><defs><style>.a{fill:#fff;}.b{fill:#0071bc;}.c{fill:#d4145a;}</style></defs><rect class="a" width="1000" height="600"/><path class="b" d="M1000,220c-72.9,0-92.9-59.5-166.7-59.5h0c-72.9,0-92.9,59.5-166.6,59.5S573.8,160.5,500,160.5,407.1,220,333.4,220s-92.9-59.5-166.7-59.5h0C93.8,160.5,73.8,220,0,220V0H1000Z"/><path class="c" d="M1000,439.6c-72.9,0-92.9-59.6-166.7-59.6h0c-72.9,0-92.9,59.6-166.6,59.6S573.8,380,500,380s-92.9,59.6-166.6,59.6S240.5,380,166.7,380h0C93.8,380,73.8,439.6,0,439.6V600H1000Z"/></svg>