<svg xmlns="http://www.w3.org/2000/svg" viewBox="0 0 204.8 209.1"><defs><style>.a{fill:#ff7bac;}</style></defs><path class="a" d="M201.7,71.7c-5.8-2.3-9.6-6.1-13.5-13.8-9.7-19.3-19.3-20-31.7-14.6h-.3a32.4,32.4,0,0,0,2.4-3.1,16.3,16.3,0,0,0,3-13.5,16.5,16.5,0,0,0-11.9,7.1c-1,1.3-2,2.8-3.1,4.5l.3-2.1c1.3-13.5-2.3-22.5-23.6-25.9-8.4-1.3-13.2-3.8-17.1-8.6a4.9,4.9,0,0,0-7.6,0c-3.9,4.8-8.7,7.3-17.1,8.6C60.2,13.8,56.6,22.8,57.9,36.3l.3,2c-1.1-1.6-2.1-3.1-3.1-4.4a16.5,16.5,0,0,0-11.9-7.1,16.8,16.8,0,0,0,3,13.5c.7,1,1.5,2.1,2.4,3.2l-.3-.2c-12.4-5.4-22-4.7-31.7,14.6C12.7,65.6,8.9,69.4,3.1,71.7A5,5,0,0,0,.7,78.9C4.2,84.1,5,89.5,3.6,98c-3.3,21.4,4,27.7,17.2,30.6l1.2.2-5,1.5a16.4,16.4,0,0,0-10.4,9.1,16.2,16.2,0,0,0,13.8,1.3c1.5-.5,3.2-1,4.9-1.7l-.9.9c-8.9,10.2-11.2,19.6,4,34.9,6.1,6.1,8.5,10.9,8.8,17.2a5.1,5.1,0,0,0,6.2,4.5c5.9-1.7,11.3-.8,18.9,3.1,19.2,9.8,27.3,4.7,34.2-7,.2-.3.3-.7.5-1-.1,1.7-.1,3.3-.1,4.8a16.7,16.7,0,0,0,5.5,12.7,16.7,16.7,0,0,0,5.5-12.7c0-1.5-.1-3.1-.1-4.8a11.7,11.7,0,0,1,.5,1.1c6.9,11.6,15,16.7,34.2,6.9,7.6-3.9,13-4.8,18.9-3.1a5.1,5.1,0,0,0,6.2-4.5c.3-6.3,2.7-11.1,8.8-17.2,15.2-15.3,12.9-24.7,4-34.8l-.9-1,4.9,1.8a16.6,16.6,0,0,0,13.8-1.3,16.4,16.4,0,0,0-10.4-9.2l-5.1-1.5,1.3-.2c13.2-2.9,20.5-9.2,17.2-30.6-1.4-8.5-.6-13.9,2.9-19.1A5,5,0,0,0,201.7,71.7Zm-78,43.4a22.4,22.4,0,1,1-34.5-25,22.4,22.4,0,0,1,34.5,25Z"/></svg>