<svg xmlns="http://www.w3.org/2000/svg" viewBox="0 0 256 256"><defs><style>.a{fill:#fff;}</style></defs><path class="a" d="M252.1,89.6c-7.2-2.8-12-7.6-16.8-17.2-12.2-24.1-24.2-25-39.6-18.3-7.3,3.3-14.8,9.9-22.1,17.8,5.3-9.4,9.2-18.6,10-26.6,1.7-16.8-2.9-28-29.4-32.2-10.6-1.7-16.6-4.8-21.5-10.9a6.2,6.2,0,0,0-9.4,0c-4.9,6.1-10.9,9.2-21.5,10.9C75.3,17.3,70.7,28.5,72.4,45.3c.8,8,4.7,17.2,10,26.6C75.1,64,67.6,57.4,60.3,54.1c-15.4-6.7-27.4-5.8-39.6,18.3C15.9,82,11.1,86.8,3.9,89.6a6.3,6.3,0,0,0-3,9c4.3,6.6,5.3,13.2,3.7,23.9C.3,149.2,9.5,157.1,26,160.7c7.7,1.7,17.6.8,28.1-1.3-9.7,4.5-18.2,9.6-23.6,15.5-11.1,12.7-14,24.5,5,43.6,7.6,7.6,10.7,13.7,11,21.5a6.3,6.3,0,0,0,7.7,5.6c7.5-2.1,14.1-1,23.7,3.9,23.9,12.3,34.2,5.9,42.7-8.7,3.9-6.9,6.2-16.7,7.4-27.4,1.2,10.7,3.5,20.5,7.4,27.4,8.5,14.6,18.8,21,42.7,8.7,9.6-4.9,16.2-6,23.7-3.9a6.3,6.3,0,0,0,7.7-5.6c.3-7.8,3.4-13.9,11-21.5,19-19.1,16.1-30.9,5-43.6-5.4-5.9-13.9-11-23.7-15.5,10.6,2.1,20.5,3,28.2,1.3,16.5-3.6,25.7-11.5,21.4-38.2-1.6-10.7-.6-17.3,3.7-23.9A6.3,6.3,0,0,0,252.1,89.6Zm-97.5,54.3A28,28,0,0,1,128,163.2h0a28,28,0,1,1,26.6-19.3Z"/></svg>