<?xml version="1.0" encoding="utf-8"?>
<!-- Generator: Adobe Illustrator 24.3.0, SVG Export Plug-In . SVG Version: 6.00 Build 0)  -->
<svg version="1.1" id="Ebene_1" xmlns="http://www.w3.org/2000/svg" xmlns:xlink="http://www.w3.org/1999/xlink" x="0px" y="0px"
	 viewBox="0 0 1200 600" style="enable-background:new 0 0 1200 600;" xml:space="preserve">
<style type="text/css">
	.st0{clip-path:url(#SVGID_2_);}
	.st1{fill:#FF7BAC;}
	.st2{opacity:0.25;}
	.st3{fill:#FFFFFF;}
	.st4{fill:#D4145A;}
	.st5{fill:#FFDC00;}
	.st6{fill:#F15A24;}
	.st7{fill:#1B1464;}
	.st8{clip-path:url(#SVGID_4_);}
</style>
<g id="fb_x5F_og">
	<defs>
		<rect id="SVGID_1_" x="-1473.7" y="-15" width="1200" height="630"/>
	</defs>
	<use xlink:href="#SVGID_1_"  style="overflow:visible;fill:#19FFDD;"/>
	<clipPath id="SVGID_2_">
		<use xlink:href="#SVGID_1_"  style="overflow:visible;"/>
	</clipPath>
	<g class="st0">
		<g>
			<path class="st1" d="M-1170.7,151.5c-3.1-7.1-3-13.8,0.5-23.9c8.6-25.4,0.9-34.5-14.6-40.7c-7.3-2.9-17.2-3.6-27.9-3.2
				c10.3-2.8,19.6-6.4,25.8-11.4c13.1-10.5,17.9-21.6,2.4-43.3c-6.1-8.7-8.1-15-7.2-22.7c0.5-3.7-2.9-7.1-6.6-6.7
				c-7.7,0.8-14-1.3-22.6-7.6c-21.4-15.9-32.5-11.3-43.4,1.5c-5.1,6.1-8.9,15.3-11.9,25.5c0.6-10.7,0.1-20.5-2.7-28
				c-5.9-15.6-14.9-23.5-40.4-15.4c-10.2,3.2-16.9,3.2-23.9,0c-3.4-1.6-7.6,0.6-8.4,4.2c-1.7,7.6-5.7,12.9-14.4,19.1
				c-21.9,15.6-21,27.5-12.2,41.7c4.2,6.7,11.7,13.1,20.5,19c-10-3.8-19.5-6.3-27.4-5.9c-16.7,0.9-27.1,7-27.4,33.8
				c-0.1,10.7-2.3,17-7.6,22.7c-2.5,2.7-1.9,7.4,1.3,9.3c6.7,3.9,10.5,9.3,13.7,19.5c7.9,25.5,19.5,28.3,35.8,24.2
				c7.7-2,16.1-7.2,24.6-13.8c-6.8,8.3-12.1,16.7-14.3,24.3c-4.4,16.2-1.9,27.8,23.5,36.3c10.1,3.4,15.5,7.3,19.2,14.1
				c1.8,3.2,6.5,4,9.3,1.5c5.8-5.2,12.2-7.2,22.8-7.1c26.8,0.2,33.1-10,34.4-26.7c0.5-7.9-1.8-17.5-5.3-27.6
				c5.8,8.9,12,16.6,18.6,20.9c14,9.1,25.9,10.2,41.9-11.4c6.4-8.6,11.8-12.5,19.4-14C-1171.4,159.1-1169.2,154.9-1170.7,151.5z"/>
		</g>
		<g class="st2">
			<polygon points="-838.1,452.4 -838.1,477.3 -838.1,502.5 -838.1,527.7 -838.1,552.8 -838.1,578 -838.1,578.2 -838.1,603.2 
				-418.4,603.2 -418.4,578 -418.4,552.8 -418.4,527.7 -418.4,502.5 -418.4,477.3 -418.4,452.2 -838.1,452.2 			"/>
			<polygon points="-838.1,628.5 -838.1,653.7 -838.1,678.8 -838.1,704 -418.4,704 -418.4,678.8 -418.4,653.7 -418.4,628.5 
				-418.4,603.3 -838.1,603.3 			"/>
			<polygon points="-508.3,181.8 -568.3,181.8 -628.2,181.8 -688.2,181.8 -748.2,181.8 -808.1,181.8 -838.1,181.8 -838.1,207 
				-838.1,232.2 -838.1,282.5 -838.1,307.7 -838.1,332.9 -838.1,383.3 -838.1,408.4 -838.1,433.6 -808.1,433.6 -748.2,433.6 
				-688.2,433.6 -628.2,433.6 -568.3,433.6 -508.3,433.6 -448.4,433.6 -418.4,433.6 -418.4,408.4 -418.4,383.3 -418.4,332.9 
				-418.4,307.7 -418.4,282.5 -418.4,232.2 -418.4,207 -418.4,181.8 -448.4,181.8 			"/>
			<polygon points="-838.1,-88.6 -838.1,-0.4 -838.1,37.3 -838.1,45.8 -838.1,163.3 -418.4,163.3 -418.4,45.8 -418.4,37.3 
				-418.4,-0.4 -418.4,-88.6 			"/>
		</g>
		<g class="st2">
			<g>
				<g>
					<path d="M-1328.5,78.3h45.2v20.6h-0.4l-11.6-17.1h-15.4v27.5h24.9v4.5h-24.9v21.3l10,10.4h-27.8V145l5.7-9.8V88.5L-1328.5,78.3
						z"/>
					<path d="M-1277.1,81.4l18-5.6v61.3l7.3,8.5h-18.6v-43.2l-6.7-7.6l6.7-2.9V89L-1277.1,81.4z"/>
					<path d="M-1242.9,146.7c-2.9-2.1-5.6-9.1-5.6-17.1c0-18.3,11.2-31.7,31.7-32.1h11.2l-3.7,5.3v34.4l7.3,8.5h-18.8v-25.3
						l1.2-11.4c-3.4,14.1-10.2,27.3-16,36.7L-1242.9,146.7z M-1220.6,100.3c-13.2,0.1-15.7,14.1-15.7,24c0,9.6,1.1,13.8,2.3,13.8
						C-1232.2,138.1-1220.7,110.7-1220.6,100.3z"/>
					<path d="M-1193.2,146.7c-2.9-2.1-5.6-9.1-5.6-17.1c0-17.9,11-31.7,31.7-32.1h11.2l-3.7,5.4c-0.1,10.2-0.1,20.5-0.2,30.9v0.8
						h0.1l-0.2,2.6v1.2c0,16.3-17.4,30.3-30.2,30.3h-0.6l-10.9-13.4l0.6-0.7c5.7,4.7,14.9,8.2,19,8.2c6.3,0,10.8-3.7,10.9-19.5
						v-22.8l1.2-11.4c-3.4,14.1-10.2,27.3-16,36.7L-1193.2,146.7z M-1170.9,100.3c-13.2,0.1-15.7,14.1-15.7,24
						c0,9.6,1.1,13.8,2.3,13.8C-1182.5,138.1-1171,110.7-1170.9,100.3z"/>
					<path d="M-1125.3,112.1c-3.7-5.8-8.6-9.9-13-9.9c-2.8,0-3.4,1.3-3.4,3.7c0,6.9,19.7,14.5,19.7,25c0,6.5-5.5,14.7-18.2,14.7
						h-8.1l-2.4-16.7l0.3-0.9c5.3,7.8,10.3,13.9,16,13.9c2.9,0,4.5-1.3,4.5-3.9c0-9.6-19.4-14.5-19.4-25.3c0-7,6.2-15.2,17-15.2h7
						l0.5,14.5L-1125.3,112.1z"/>
					<path d="M-1310.4,180.4c-2.7,0-4.7,7.9-2.7,15.3h15.8v2.4l-15.8,2.9v17.7c0,28-5.1,30.9-9.5,47.7h-0.8l-1-42.4v-22.1l-6.9-6.2
						h7.4c0-3.9,7.7-17.3,20.4-20.1l4-0.9l3.7,12.9l-0.3,0.3L-1310.4,180.4z"/>
					<path d="M-1272.5,194.6c12.3,0,19.8,8.4,19.8,21.3c0,15.3-11.6,29.4-25,29.4c-10.5,0-18.6-7.7-18.6-20.9
						C-1296.3,208.5-1286.4,194.6-1272.5,194.6z M-1283.9,217.8c0,16.3,6.5,24.3,9.4,24.3c2.9,0,8.7-5.5,8.7-21.7
						c0-17.3-7.7-22.6-10.6-22.6S-1283.9,200.4-1283.9,217.8z"/>
					<path d="M-1221.8,207.5c-1.4,0.6-9.7,20.5-9.7,30.5l0.8,6h-12.1v-35l-6.7-7.6l18-6.6V226c2.9-11,7.7-23.4,13.5-31.6h1.3
						l8.3,16.2l-0.3,0.4L-1221.8,207.5z"/>
					<path d="M-1325.1,343.3c-2.9-2.1-5.6-9.1-5.6-17.1c0-18.3,11.2-31.7,31.7-32.1h11.2l-3.7,5.3v34.4l7.3,8.5h-18.8v-25.3
						l1.2-11.4c-3.4,14.1-10.2,27.3-16,36.7L-1325.1,343.3z M-1302.8,296.9c-13.2,0.1-15.7,14.1-15.7,24c0,9.6,1.1,13.8,2.3,13.8
						C-1314.4,334.6-1302.9,307.3-1302.8,296.9z"/>
					<path d="M-1314.6,424c3.8-14.5,11.5-28.8,13.6-31.6l9.6-2.5c2.6,7.9,2.8,10.7,2.8,30.8V432l7.3,8.5h-18.6v-14.2
						c0-15.3-0.9-22.2-2-26l-0.8-0.1c-4.9,9.7-11.9,26-11.9,34.3l1.5,6h-12.8v-35l-6.7-7.6l18-6.6V424z"/>
					<path d="M-1242.1,419.2c-2.6,8.5-11.2,22.5-20.7,22.5c-8.7,0-14.5-6.6-14.5-19.7c0-14.2,10-31,22.1-31
						c9.3,0,12.3,9.3,12.3,11.3l-21.6,18.6c0.9,8.2,3.5,13.8,7.1,13.8c7.1,0,13.9-16.5,13.9-16.5L-1242.1,419.2z M-1253.5,407.9
						c-0.5-9.9-5.4-14.6-6.7-13.8c-1.8,1.1-4.8,4.3-4.8,20.1c0,1.6,0.1,3,0.2,4.4L-1253.5,407.9z"/>
					<path d="M-1172.3,392.3c-1.2,15.9-11.1,44.6-27.1,49.6l-4.8-27.3c-4.6,12.4-12.2,24.3-21.9,27.3l-6.5-36.7l-9.1-6.8l17.7-9.3
						l7.4,43.2l-0.1,0.4c7.1-6.6,10.9-18.2,11-26.8c-0.6-3-1.3-5.9-2.9-13.7h11.8l7,40.1l-0.1,0.4c10.7-9.6,13.1-32.2,9.6-35.1
						l-5.9-4.8v-0.6H-1172.3z"/>
					<path d="M-1237.2,471.4l-6.3,8.5l-20.1,60.1h-5.7l-13.6-38.2l-13.4,38.2h-5.7l-23.2-62.7l-4.8-5.8h25.6l-7.6,6l15.4,43.1
						l0.9,3.6l10.7-28.3l-6.8-18.9l-4.6-5.6h25.6l-7.7,6l14.5,43.1l1.1,4.3l14.1-44.9l-8.1-8.6H-1237.2z"/>
					<path d="M-1217,489.4c12.3,0,19.8,8.4,19.8,21.3c0,15.3-11.6,29.4-25,29.4c-10.5,0-18.6-7.7-18.6-20.9
						C-1240.8,503.4-1230.8,489.4-1217,489.4z M-1228.4,512.6c0,16.3,6.5,24.3,9.4,24.3s8.7-5.5,8.7-21.7c0-17.3-7.7-22.6-10.6-22.6
						S-1228.4,495.2-1228.4,512.6z"/>
					<path d="M-1166.3,502.3c-1.4,0.6-9.7,20.5-9.7,30.5l0.8,6h-12.1v-35l-6.7-7.6l18-6.6v31.3c2.9-11,7.7-23.4,13.5-31.6h1.3
						l8.3,16.2l-0.3,0.4L-1166.3,502.3z"/>
					<path d="M-1153,474.6l18-5.6v61.3l7.3,8.5h-18.6v-43.2l-6.7-7.6l6.7-2.9v-2.9L-1153,474.6z"/>
					<path d="M-1096.1,539.7v-26.1l1.2-11.4c-3.4,14.1-10.2,27.3-16,36.7l-7.3,1.1c-2.9-2.1-6.2-9.1-6.2-17.1
						c0-16.7,10.1-30,28.5-31.9v-8.6l-6.7-7.6l18-5.6v62.9l7.3,6.9L-1096.1,539.7z M-1095.9,493.5c-13.2,0.1-16.3,14.1-16.3,24
						c0,9.6,1.7,13.8,2.9,13.8C-1107.5,531.2-1096,503.9-1095.9,493.5z"/>
				</g>
			</g>
		</g>
		<g>
			<g>
				<g>
					<g>
						<rect x="-845.5" y="444.7" width="419.7" height="25.2"/>
					</g>
					<g>
						<rect x="-845.5" y="469.9" class="st3" width="419.7" height="25.2"/>
					</g>
					<g>
						<rect x="-845.5" y="495.1" width="419.7" height="25.2"/>
					</g>
					<g>
						<rect x="-845.5" y="520.2" class="st3" width="419.7" height="25.2"/>
					</g>
					<g>
						<rect x="-845.5" y="545.4" width="419.7" height="25.2"/>
					</g>
					<g>
						<rect x="-845.5" y="570.6" class="st3" width="419.7" height="25.2"/>
					</g>
					<g>
						<rect x="-845.5" y="595.9" width="419.7" height="25.2"/>
					</g>
					<g>
						<rect x="-845.5" y="621.1" class="st3" width="419.7" height="25.2"/>
					</g>
					<g>
						<rect x="-845.5" y="646.2" width="419.7" height="25.2"/>
					</g>
					<g>
						<rect x="-845.5" y="671.4" class="st3" width="419.7" height="25.2"/>
					</g>
					<rect x="-845.5" y="444.9" class="st4" width="125.9" height="125.8"/>
					
						<rect x="-809.4" y="481" transform="matrix(0.7074 -0.7068 0.7068 0.7074 -587.947 -404.5446)" class="st3" width="53.6" height="53.6"/>
				</g>
				<g>
					<rect x="-845.5" y="174.4" class="st5" width="419.7" height="251.8"/>
					<g>
						<rect x="-845.5" y="174.4" class="st3" width="419.7" height="50.4"/>
						<polygon points="-845.5,199.6 -845.5,174.4 -815.6,174.4 						"/>
						<polygon points="-785.6,199.6 -755.6,224.7 -815.6,224.7 						"/>
						<polygon points="-725.6,199.6 -755.6,174.4 -695.6,174.4 						"/>
						<polygon points="-665.7,199.6 -635.7,224.7 -695.6,224.7 						"/>
						<polygon points="-605.7,199.6 -635.7,174.4 -575.7,174.4 						"/>
						<polygon points="-545.7,199.6 -515.7,224.7 -575.7,224.7 						"/>
						<polygon points="-485.8,199.6 -515.7,174.4 -455.8,174.4 						"/>
						<polygon points="-425.8,199.6 -425.8,224.7 -455.8,224.7 						"/>
					</g>
					<g>
						<rect x="-845.5" y="275.1" class="st3" width="419.7" height="50.4"/>
						<polygon points="-845.5,300.3 -845.5,275.1 -815.6,275.1 						"/>
						<polygon points="-785.6,300.3 -755.6,325.5 -815.6,325.5 						"/>
						<polygon points="-725.6,300.3 -755.6,275.1 -695.6,275.1 						"/>
						<polygon points="-665.7,300.3 -635.7,325.5 -695.6,325.5 						"/>
						<polygon points="-605.7,300.3 -635.7,275.1 -575.7,275.1 						"/>
						<polygon points="-545.7,300.3 -515.7,325.5 -575.7,325.5 						"/>
						<polygon points="-485.8,300.3 -515.7,275.1 -455.8,275.1 						"/>
						<polygon points="-425.8,300.3 -425.8,325.5 -455.8,325.5 						"/>
					</g>
					<g>
						<rect x="-845.5" y="375.8" class="st3" width="419.7" height="50.4"/>
						<polygon points="-845.5,401 -845.5,375.8 -815.6,375.8 						"/>
						<polygon points="-785.6,401 -755.6,426.2 -815.6,426.2 						"/>
						<polygon points="-725.6,401 -755.6,375.8 -695.6,375.8 						"/>
						<polygon points="-665.7,401 -635.7,426.2 -695.6,426.2 						"/>
						<polygon points="-605.7,401 -635.7,375.8 -575.7,375.8 						"/>
						<polygon points="-545.7,401 -515.7,426.2 -575.7,426.2 						"/>
						<polygon points="-485.8,401 -515.7,375.8 -455.8,375.8 						"/>
						<polygon points="-425.8,401 -425.8,426.2 -455.8,426.2 						"/>
					</g>
				</g>
				<g>
					<g>
						<rect x="-845.5" y="29.9" class="st6" width="419.7" height="125.9"/>
					</g>
					<rect x="-845.5" y="-96" class="st7" width="419.7" height="125.9"/>
					<g>
						<polygon class="st3" points="-425.8,38.3 -478.6,67.7 -531,38.3 -583.3,67.7 -635.7,38.3 -688,67.7 -740.4,38.3 -792.8,67.7 
							-845.5,38.3 -845.5,-7.8 -792.8,21.5 -740.4,-7.9 -688,21.5 -635.7,-7.9 -583.3,21.5 -531,-7.9 -478.6,21.5 -425.8,-7.8 
													"/>
					</g>
					<g>
						<circle class="st6" cx="-792.8" cy="-45.6" r="18.9"/>
					</g>
					<g>
						<circle class="st6" cx="-688" cy="-45.6" r="18.9"/>
					</g>
					<g>
						<circle class="st6" cx="-583.3" cy="-45.6" r="18.9"/>
					</g>
					<g>
						<circle class="st6" cx="-478.6" cy="-45.6" r="18.9"/>
					</g>
					<circle class="st7" cx="-740.4" cy="105.5" r="18.9"/>
					<circle class="st7" cx="-635.7" cy="105.5" r="18.9"/>
					<circle class="st7" cx="-531" cy="105.5" r="18.9"/>
				</g>
			</g>
			<g>
				<g>
					<g>
						<path class="st3" d="M-1335,70.9h45.2v20.6h-0.4l-11.6-17.1h-15.4v27.5h24.9v4.5h-24.9v21.3l10,10.4h-27.8v-0.6l5.7-9.8V81.1
							L-1335,70.9z"/>
						<path class="st3" d="M-1283.6,74l18-5.6v61.3l7.3,8.5h-18.6V95l-6.7-7.6l6.7-2.9v-2.9L-1283.6,74z"/>
						<path class="st3" d="M-1249.4,139.3c-2.9-2.1-5.6-9.1-5.6-17.1c0-18.3,11.2-31.7,31.7-32.1h11.2l-3.7,5.3v34.4l7.3,8.5h-18.8
							v-25.3l1.2-11.4c-3.4,14.1-10.2,27.3-16,36.7L-1249.4,139.3z M-1227.1,92.9c-13.2,0.1-15.7,14.1-15.7,24
							c0,9.6,1.1,13.8,2.3,13.8C-1238.7,130.6-1227.2,103.3-1227.1,92.9z"/>
						<path class="st3" d="M-1199.7,139.3c-2.9-2.1-5.6-9.1-5.6-17.1c0-17.9,11-31.7,31.7-32.1h11.2l-3.7,5.4
							c-0.1,10.2-0.1,20.5-0.2,30.9v0.8h0.1l-0.2,2.6v1.2c0,16.3-17.4,30.3-30.2,30.3h-0.6l-10.9-13.4l0.6-0.7
							c5.7,4.7,14.9,8.2,19,8.2c6.3,0,10.8-3.7,10.9-19.5v-22.8l1.2-11.4c-3.4,14.1-10.2,27.3-16,36.7L-1199.7,139.3z M-1177.4,92.9
							c-13.2,0.1-15.7,14.1-15.7,24c0,9.6,1.1,13.8,2.3,13.8C-1189,130.6-1177.5,103.3-1177.4,92.9z"/>
						<path class="st3" d="M-1131.8,104.7c-3.7-5.8-8.6-9.9-13-9.9c-2.8,0-3.4,1.3-3.4,3.7c0,6.9,19.7,14.5,19.7,25
							c0,6.5-5.5,14.7-18.2,14.7h-8.1l-2.4-16.7l0.3-0.9c5.3,7.8,10.3,13.9,16,13.9c2.9,0,4.5-1.3,4.5-3.9
							c0-9.6-19.4-14.5-19.4-25.3c0-7,6.2-15.2,17-15.2h7l0.5,14.5L-1131.8,104.7z"/>
						<path class="st3" d="M-1316.9,173c-2.7,0-4.7,7.9-2.7,15.3h15.8v2.4l-15.8,2.9v17.7c0,28-5.1,30.9-9.5,47.7h-0.8l-1-42.4
							v-22.1l-6.9-6.2h7.4c0-3.9,7.7-17.3,20.4-20.1l4-0.9l3.7,12.9l-0.3,0.3L-1316.9,173z"/>
						<path class="st3" d="M-1279,187.1c12.3,0,19.8,8.4,19.8,21.3c0,15.3-11.6,29.4-25,29.4c-10.5,0-18.6-7.7-18.6-20.9
							C-1302.8,201.1-1292.9,187.1-1279,187.1z M-1290.4,210.3c0,16.3,6.5,24.3,9.4,24.3s8.7-5.5,8.7-21.7
							c0-17.3-7.7-22.6-10.6-22.6S-1290.4,192.9-1290.4,210.3z"/>
						<path class="st3" d="M-1228.3,200c-1.4,0.6-9.7,20.5-9.7,30.5l0.8,6h-12.1v-35l-6.7-7.6l18-6.6v31.3
							c2.9-11,7.7-23.4,13.5-31.6h1.3l8.3,16.2l-0.3,0.4L-1228.3,200z"/>
						<path class="st3" d="M-1331.6,335.9c-2.9-2.1-5.6-9.1-5.6-17.1c0-18.3,11.2-31.7,31.7-32.1h11.2l-3.7,5.3v34.4l7.3,8.5h-18.8
							v-25.3l1.2-11.4c-3.4,14.1-10.2,27.3-16,36.7L-1331.6,335.9z M-1309.3,289.5c-13.2,0.1-15.7,14.1-15.7,24
							c0,9.6,1.1,13.8,2.3,13.8C-1320.9,327.2-1309.4,299.9-1309.3,289.5z"/>
						<path class="st3" d="M-1321.1,416.5c3.8-14.5,11.5-28.8,13.6-31.6l9.6-2.5c2.6,7.9,2.8,10.7,2.8,30.8v11.4l7.3,8.5h-18.6
							v-14.2c0-15.3-0.9-22.2-2-26l-0.8-0.1c-4.9,9.7-11.9,26-11.9,34.3l1.5,6h-12.8v-35l-6.7-7.6l18-6.6V416.5z"/>
						<path class="st3" d="M-1248.6,411.7c-2.6,8.5-11.2,22.5-20.7,22.5c-8.7,0-14.5-6.6-14.5-19.7c0-14.2,10-31,22.1-31
							c9.3,0,12.3,9.3,12.3,11.3l-21.6,18.6c0.9,8.2,3.5,13.8,7.1,13.8c7.1,0,13.9-16.5,13.9-16.5L-1248.6,411.7z M-1260,400.4
							c-0.5-9.9-5.4-14.6-6.7-13.8c-1.8,1.1-4.8,4.3-4.8,20.1c0,1.6,0.1,3,0.2,4.4L-1260,400.4z"/>
						<path class="st3" d="M-1178.8,384.9c-1.2,15.9-11.1,44.6-27.1,49.6l-4.8-27.3c-4.6,12.4-12.2,24.3-21.9,27.3l-6.5-36.7
							l-9.1-6.8l17.7-9.3l7.4,43.2l-0.1,0.4c7.1-6.6,10.9-18.2,11-26.8c-0.6-3-1.3-5.9-2.9-13.7h11.8l7,40.1l-0.1,0.4
							c10.7-9.6,13.1-32.2,9.6-35.1l-5.9-4.8v-0.6H-1178.8z"/>
						<path class="st3" d="M-1243.7,464l-6.3,8.5l-20.1,60.1h-5.7l-13.6-38.2l-13.4,38.2h-5.7l-23.2-62.7l-4.8-5.8h25.6l-7.6,6
							l15.4,43.1l0.9,3.6l10.7-28.3l-6.8-18.9l-4.6-5.6h25.6l-7.7,6l14.5,43.1l1.1,4.3l14.1-44.9l-8.1-8.6H-1243.7z"/>
						<path class="st3" d="M-1223.5,482c12.3,0,19.8,8.4,19.8,21.3c0,15.3-11.6,29.4-25,29.4c-10.5,0-18.6-7.7-18.6-20.9
							C-1247.3,496-1237.3,482-1223.5,482z M-1234.9,505.2c0,16.3,6.5,24.3,9.4,24.3s8.7-5.5,8.7-21.7c0-17.3-7.7-22.6-10.6-22.6
							S-1234.9,487.8-1234.9,505.2z"/>
						<path class="st3" d="M-1172.8,494.9c-1.4,0.6-9.7,20.5-9.7,30.5l0.8,6h-12.1v-35l-6.7-7.6l18-6.6v31.3
							c2.9-11,7.7-23.4,13.5-31.6h1.3l8.3,16.2l-0.3,0.4L-1172.8,494.9z"/>
						<path class="st3" d="M-1159.5,467.2l18-5.6v61.3l7.3,8.5h-18.6v-43.2l-6.7-7.6l6.7-2.9v-2.9L-1159.5,467.2z"/>
						<path class="st3" d="M-1102.6,532.2v-26.1l1.2-11.4c-3.4,14.1-10.2,27.3-16,36.7l-7.3,1.1c-2.9-2.1-6.2-9.1-6.2-17.1
							c0-16.7,10.1-30,28.5-31.9v-8.6l-6.7-7.6l18-5.6v62.9l7.3,6.9L-1102.6,532.2z M-1102.4,486c-13.2,0.1-16.3,14.1-16.3,24
							c0,9.6,1.7,13.8,2.9,13.8C-1114,523.8-1102.5,496.5-1102.4,486z"/>
					</g>
				</g>
			</g>
		</g>
	</g>
</g>
<g id="twt_x5F_card">
	<defs>
		<rect id="SVGID_3_" width="1200.9" height="600"/>
	</defs>
	<use xlink:href="#SVGID_3_"  style="overflow:visible;fill:#19FFDD;"/>
	<clipPath id="SVGID_4_">
		<use xlink:href="#SVGID_3_"  style="overflow:visible;"/>
	</clipPath>
	<g class="st8">
		<g>
			<path class="st1" d="M288.6,158.5c-2.9-6.7-2.8-13.1,0.4-22.7c8.2-24.2,0.9-32.9-13.9-38.8c-7-2.7-16.4-3.4-26.6-3.1
				c9.8-2.7,18.6-6.1,24.6-10.8c12.4-10,17-20.5,2.3-41.3c-5.9-8.3-7.7-14.3-6.8-21.6c0.4-3.5-2.7-6.7-6.3-6.4
				c-7.3,0.8-13.4-1.3-21.5-7.3c-20.4-15.1-31-10.8-41.3,1.4c-4.8,5.8-8.5,14.5-11.3,24.3c0.6-10.2,0-19.6-2.5-26.6
				C180.1-9.2,171.6-16.7,147.3-9c-9.7,3.1-16.1,3-22.7,0c-3.2-1.5-7.3,0.6-8,4c-1.6,7.2-5.4,12.3-13.7,18.2
				c-20.8,14.8-20,26.2-11.7,39.7c4,6.3,11.2,12.4,19.6,18.1c-9.5-3.6-18.6-6-26.1-5.6c-15.9,0.8-25.8,6.7-26.1,32.2
				c-0.1,10.2-2.2,16.2-7.2,21.6c-2.4,2.6-1.8,7.1,1.3,8.9c6.3,3.7,10,8.9,13,18.5c7.5,24.3,18.6,27,34.1,23.1
				c7.3-1.9,15.4-6.9,23.4-13.1c-6.4,7.9-11.5,15.9-13.6,23.1c-4.2,15.4-1.8,26.5,22.4,34.6c9.6,3.2,14.7,7,18.3,13.4
				c1.7,3.1,6.2,3.8,8.8,1.5c5.5-4.9,11.6-6.8,21.7-6.8c25.5,0.2,31.5-9.5,32.7-25.4c0.5-7.5-1.7-16.7-5.1-26.2
				c5.5,8.5,11.5,15.8,17.7,19.9c13.3,8.7,24.7,9.7,39.9-10.8c6.1-8.2,11.3-11.9,18.5-13.3C287.9,165.8,290,161.8,288.6,158.5z"/>
		</g>
		<g class="st2">
			<polygon points="663.3,445.1 663.3,468.9 663.3,492.9 663.3,516.8 663.3,540.8 663.3,564.8 663.3,564.9 663.3,588.8 
				1063.1,588.8 1063.1,564.8 1063.1,540.8 1063.1,516.8 1063.1,492.9 1063.1,468.9 1063.1,444.9 663.3,444.9 			"/>
			<polygon points="663.3,612.8 663.3,636.8 663.3,660.8 663.3,684.8 1063.1,684.8 1063.1,660.8 1063.1,636.8 1063.1,612.8 
				1063.1,588.9 663.3,588.9 			"/>
			<polygon points="977.4,187.4 920.3,187.4 863.2,187.4 806.1,187.4 749,187.4 691.9,187.4 663.3,187.4 663.3,211.4 663.3,235.4 
				663.3,283.4 663.3,307.3 663.3,331.3 663.3,379.3 663.3,403.3 663.3,427.3 691.9,427.3 749,427.3 806.1,427.3 863.2,427.3 
				920.3,427.3 977.4,427.3 1034.5,427.3 1063.1,427.3 1063.1,403.3 1063.1,379.3 1063.1,331.3 1063.1,307.3 1063.1,283.4 
				1063.1,235.4 1063.1,211.4 1063.1,187.4 1034.5,187.4 			"/>
			<polygon points="663.3,-70.1 663.3,13.9 663.3,49.9 663.3,57.9 663.3,169.8 1063.1,169.8 1063.1,57.9 1063.1,49.9 1063.1,13.9 
				1063.1,-70.1 			"/>
		</g>
		<g class="st2">
			<g>
				<g>
					<path d="M138.3,88.9h43.1v19.7H181l-11-16.3h-14.7v26.2h23.7v4.3h-23.7v20.3l9.5,9.9h-26.5v-0.6l5.4-9.4V98.6L138.3,88.9z"/>
					<path d="M187.2,91.9l17.1-5.3v58.4l6.9,8.1h-17.7v-41.2l-6.4-7.2l6.4-2.7v-2.8L187.2,91.9z"/>
					<path d="M219.8,154c-2.8-2-5.3-8.7-5.3-16.3c0-17.4,10.7-30.2,30.2-30.6h10.7l-3.6,5.1v32.8l6.9,8.1h-17.9v-24.1l1.1-10.9
						c-3.3,13.4-9.7,26-15.3,34.9L219.8,154z M241,109.8c-12.5,0.1-15,13.4-15,22.8c0,9.2,1,13.1,2.2,13.1
						C230,145.8,241,119.8,241,109.8z"/>
					<path d="M267.2,154c-2.8-2-5.3-8.7-5.3-16.3c0-17,10.5-30.2,30.2-30.6h10.7l-3.6,5.1c-0.1,9.7-0.1,19.6-0.2,29.4v0.7h0.1
						l-0.2,2.4v1.1c0,15.5-16.6,28.8-28.7,28.8h-0.6l-10.4-12.7l0.6-0.7c5.4,4.5,14.2,7.8,18.1,7.8c6,0,10.3-3.6,10.4-18.5v-21.7
						l1.1-10.9c-3.3,13.4-9.7,26-15.3,34.9L267.2,154z M288.4,109.8c-12.5,0.1-15,13.4-15,22.8c0,9.2,1,13.1,2.2,13.1
						C277.4,145.8,288.3,119.8,288.4,109.8z"/>
					<path d="M331.8,121.1c-3.6-5.5-8.2-9.5-12.4-9.5c-2.6,0-3.3,1.2-3.3,3.6c0,6.6,18.7,13.9,18.7,23.8c0,6.2-5.2,14-17.3,14h-7.7
						l-2.2-15.9l0.3-0.8c5.1,7.4,9.8,13.2,15.3,13.2c2.8,0,4.3-1.2,4.3-3.7c0-9.2-18.4-13.9-18.4-24.1c0-6.6,5.9-14.5,16.2-14.5h6.6
						l0.5,13.9L331.8,121.1z"/>
					<path d="M155.6,186.1c-2.5,0-4.5,7.5-2.5,14.6h15.1v2.2l-15.1,2.8v16.8c0,26.7-4.9,29.4-9.1,45.4h-0.7l-0.9-40.3v-21.1
						l-6.6-5.9h7c0-3.7,7.3-16.5,19.5-19.2l3.8-0.8l3.6,12.3l-0.3,0.3L155.6,186.1z"/>
					<path d="M191.6,199.6c11.7,0,18.8,8,18.8,20.3c0,14.6-11,28-23.8,28c-10,0-17.7-7.3-17.7-19.9
						C169,212.9,178.4,199.6,191.6,199.6z M180.8,221.7c0,15.5,6.2,23.1,9,23.1s8.3-5.2,8.3-20.7c0-16.5-7.3-21.5-10.1-21.5
						S180.8,205.1,180.8,221.7z"/>
					<path d="M239.9,211.9c-1.3,0.6-9.3,19.6-9.3,29l0.7,5.7h-11.5v-33.3l-6.4-7.2l17.1-6.3v29.8c2.7-10.5,7.3-22.3,12.8-30.1h1.2
						l7.9,15.4l-0.3,0.4L239.9,211.9z"/>
					<path d="M141.5,341.2c-2.8-2-5.3-8.7-5.3-16.3c0-17.4,10.7-30.2,30.2-30.6h10.7l-3.6,5.1v32.8l6.9,8h-17.9v-24.1l1.1-10.9
						c-3.3,13.4-9.7,26-15.3,34.9L141.5,341.2z M162.8,297c-12.5,0.1-15,13.4-15,22.8c0,9.2,1,13.1,2.2,13.1
						C151.7,333,162.7,307,162.8,297z"/>
					<path d="M151.6,418.1c3.7-13.9,11-27.4,12.9-30.1l9.2-2.3c2.4,7.5,2.6,10.2,2.6,29.3v10.9l6.9,8.1h-17.7v-13.5
						c0-14.6-0.8-21.2-1.9-24.8l-0.7-0.1c-4.7,9.3-11.3,24.8-11.3,32.7l1.4,5.7h-12.2v-33.3l-6.4-7.2l17.1-6.3V418.1z"/>
					<path d="M220.6,413.5c-2.4,8-10.7,21.4-19.8,21.4c-8.3,0-13.9-6.3-13.9-18.7c0-13.5,9.5-29.5,21.1-29.5
						c8.9,0,11.7,8.9,11.7,10.8l-20.6,17.7c0.8,7.8,3.4,13.1,6.7,13.1c6.7,0,13.2-15.7,13.2-15.7L220.6,413.5z M209.8,402.7
						c-0.5-9.5-5.1-13.9-6.4-13.1c-1.7,1-4.6,4.1-4.6,19.1c0,1.5,0.1,2.9,0.2,4.2L209.8,402.7z"/>
					<path d="M287.1,387.9c-1.1,15.2-10.6,42.5-25.8,47.3l-4.6-26c-4.4,11.8-11.6,23.1-20.9,26l-6.2-34.9l-8.7-6.5l16.8-8.9l7,41.2
						l-0.1,0.4c6.7-6.3,10.4-17.3,10.5-25.6c-0.6-2.9-1.2-5.6-2.8-13h11.2l6.6,38.2l-0.1,0.4c10.2-9.2,12.4-30.7,9.2-33.4l-5.6-4.6
						v-0.6H287.1z"/>
					<path d="M225.2,463.3l-6,8l-19.1,57.2h-5.4l-12.9-36.4l-12.7,36.4h-5.4l-22.1-59.7l-4.6-5.5h24.3l-7.2,5.7l14.7,41.1l0.8,3.5
						l10.2-27l-6.5-18l-4.4-5.3h24.3L186,469l13.9,41.1l1,4.1l13.4-42.8l-7.7-8.1H225.2z"/>
					<path d="M244.5,480.4c11.7,0,18.8,8,18.8,20.3c0,14.6-11,28-23.8,28c-10,0-17.7-7.3-17.7-19.9
						C221.9,493.7,231.3,480.4,244.5,480.4z M233.7,502.5c0,15.5,6.2,23.1,9,23.1c2.8,0,8.3-5.2,8.3-20.7c0-16.5-7.3-21.5-10.1-21.5
						C238.1,483.4,233.7,485.9,233.7,502.5z"/>
					<path d="M292.8,492.7c-1.3,0.6-9.3,19.6-9.3,29l0.7,5.7h-11.5v-33.3l-6.4-7.2l17.1-6.3v29.8c2.7-10.5,7.3-22.3,12.8-30.1h1.2
						l7.9,15.4l-0.3,0.4L292.8,492.7z"/>
					<path d="M305.4,466.3l17.1-5.3v58.4l6.9,8.1h-17.7v-41.2l-6.4-7.2l6.4-2.7v-2.8L305.4,466.3z"/>
					<path d="M359.6,528.2v-24.9l1.1-10.9c-3.3,13.4-9.7,26-15.3,34.9l-6.9,1c-2.8-2-5.9-8.7-5.9-16.3c0-15.9,9.6-28.5,27.1-30.4
						v-8.2l-6.4-7.2l17.1-5.3v59.9l6.9,6.6L359.6,528.2z M359.8,484.3c-12.5,0.1-15.5,13.4-15.5,22.8c0,9.2,1.6,13.1,2.7,13.1
						C348.8,520.2,359.7,494.2,359.8,484.3z"/>
				</g>
			</g>
		</g>
		<g>
			<g>
				<g>
					<g>
						<rect x="656.3" y="437.8" width="399.7" height="24"/>
					</g>
					<g>
						<rect x="656.3" y="461.8" class="st3" width="399.7" height="24"/>
					</g>
					<g>
						<rect x="656.3" y="485.8" width="399.7" height="24"/>
					</g>
					<g>
						<rect x="656.3" y="509.8" class="st3" width="399.7" height="24"/>
					</g>
					<g>
						<rect x="656.3" y="533.7" width="399.7" height="24"/>
					</g>
					<g>
						<rect x="656.3" y="557.7" class="st3" width="399.7" height="24"/>
					</g>
					<g>
						<rect x="656.3" y="581.8" width="399.7" height="24"/>
					</g>
					<g>
						<rect x="656.3" y="605.8" class="st3" width="399.7" height="24"/>
					</g>
					<g>
						<rect x="656.3" y="629.7" width="399.7" height="24"/>
					</g>
					<g>
						<rect x="656.3" y="653.7" class="st3" width="399.7" height="24"/>
					</g>
					<rect x="656.3" y="438" class="st4" width="119.9" height="119.8"/>
					
						<rect x="690.7" y="472.4" transform="matrix(0.7074 -0.7068 0.7068 0.7074 -142.3812 651.958)" class="st3" width="51.1" height="51.1"/>
				</g>
				<g>
					<rect x="656.3" y="180.3" class="st5" width="399.7" height="239.8"/>
					<g>
						<rect x="656.3" y="180.3" class="st3" width="399.7" height="48"/>
						<polygon points="656.3,204.3 656.3,180.3 684.8,180.3 						"/>
						<polygon points="713.4,204.3 741.9,228.3 684.8,228.3 						"/>
						<polygon points="770.5,204.3 741.9,180.3 799,180.3 						"/>
						<polygon points="827.6,204.3 856.1,228.3 799,228.3 						"/>
						<polygon points="884.7,204.3 856.1,180.3 913.3,180.3 						"/>
						<polygon points="941.8,204.3 970.4,228.3 913.3,228.3 						"/>
						<polygon points="998.9,204.3 970.4,180.3 1027.5,180.3 						"/>
						<polygon points="1056,204.3 1056,228.3 1027.5,228.3 						"/>
					</g>
					<g>
						<rect x="656.3" y="276.3" class="st3" width="399.7" height="48"/>
						<polygon points="656.3,300.3 656.3,276.3 684.8,276.3 						"/>
						<polygon points="713.4,300.3 741.9,324.3 684.8,324.3 						"/>
						<polygon points="770.5,300.3 741.9,276.3 799,276.3 						"/>
						<polygon points="827.6,300.3 856.1,324.3 799,324.3 						"/>
						<polygon points="884.7,300.3 856.1,276.3 913.3,276.3 						"/>
						<polygon points="941.8,300.3 970.4,324.3 913.3,324.3 						"/>
						<polygon points="998.9,300.3 970.4,276.3 1027.5,276.3 						"/>
						<polygon points="1056,300.3 1056,324.3 1027.5,324.3 						"/>
					</g>
					<g>
						<rect x="656.3" y="372.2" class="st3" width="399.7" height="48"/>
						<polygon points="656.3,396.2 656.3,372.2 684.8,372.2 						"/>
						<polygon points="713.4,396.2 741.9,420.2 684.8,420.2 						"/>
						<polygon points="770.5,396.2 741.9,372.2 799,372.2 						"/>
						<polygon points="827.6,396.2 856.1,420.2 799,420.2 						"/>
						<polygon points="884.7,396.2 856.1,372.2 913.3,372.2 						"/>
						<polygon points="941.8,396.2 970.4,420.2 913.3,420.2 						"/>
						<polygon points="998.9,396.2 970.4,372.2 1027.5,372.2 						"/>
						<polygon points="1056,396.2 1056,420.2 1027.5,420.2 						"/>
					</g>
				</g>
				<g>
					<g>
						<rect x="656.3" y="42.8" class="st6" width="399.7" height="119.9"/>
					</g>
					<rect x="656.3" y="-77.1" class="st7" width="399.7" height="119.9"/>
					<g>
						<polygon class="st3" points="1056,50.8 1005.8,78.7 955.9,50.8 906,78.7 856.1,50.8 806.3,78.7 756.4,50.8 706.5,78.7 
							656.3,50.8 656.3,6.8 706.5,34.8 756.4,6.8 806.3,34.8 856.1,6.8 906,34.8 955.9,6.8 1005.8,34.8 1056,6.8 						"/>
					</g>
					<g>
						<circle class="st6" cx="706.5" cy="-29.2" r="18"/>
					</g>
					<g>
						<circle class="st6" cx="806.3" cy="-29.2" r="18"/>
					</g>
					<g>
						<circle class="st6" cx="906" cy="-29.2" r="18"/>
					</g>
					<g>
						<circle class="st6" cx="1005.7" cy="-29.2" r="18"/>
					</g>
					<circle class="st7" cx="756.4" cy="114.7" r="18"/>
					<circle class="st7" cx="856.1" cy="114.7" r="18"/>
					<circle class="st7" cx="955.9" cy="114.7" r="18"/>
				</g>
			</g>
			<g>
				<g>
					<g>
						<path class="st3" d="M132.1,81.8h43.1v19.7h-0.4l-11-16.3H149v26.2h23.7v4.3H149V136l9.5,9.9h-26.5v-0.6l5.4-9.4V91.5
							L132.1,81.8z"/>
						<path class="st3" d="M181,84.8l17.1-5.3v58.4l6.9,8.1h-17.7v-41.2l-6.4-7.2l6.4-2.7V92L181,84.8z"/>
						<path class="st3" d="M213.6,146.9c-2.8-2-5.3-8.7-5.3-16.3c0-17.4,10.7-30.2,30.2-30.6h10.7l-3.6,5.1v32.8l6.9,8.1h-17.9
							v-24.1l1.1-10.9c-3.3,13.4-9.7,26-15.3,34.9L213.6,146.9z M234.9,102.8c-12.5,0.1-15,13.4-15,22.8c0,9.2,1,13.1,2.2,13.1
							C223.8,138.7,234.8,112.7,234.9,102.8z"/>
						<path class="st3" d="M261,146.9c-2.8-2-5.3-8.7-5.3-16.3c0-17,10.5-30.2,30.2-30.6h10.7l-3.6,5.1c-0.1,9.7-0.1,19.6-0.2,29.4
							v0.7h0.1l-0.2,2.4v1.1c0,15.5-16.6,28.8-28.7,28.8h-0.6L253,155l0.6-0.7c5.4,4.5,14.2,7.8,18.1,7.8c6,0,10.3-3.6,10.4-18.5
							v-21.7l1.1-10.9c-3.3,13.4-9.7,26-15.3,34.9L261,146.9z M282.2,102.8c-12.5,0.1-15,13.4-15,22.8c0,9.2,1,13.1,2.2,13.1
							C271.2,138.7,282.1,112.7,282.2,102.8z"/>
						<path class="st3" d="M325.7,114c-3.6-5.5-8.2-9.5-12.4-9.5c-2.6,0-3.3,1.2-3.3,3.6c0,6.6,18.7,13.9,18.7,23.8
							c0,6.2-5.2,14-17.3,14h-7.7l-2.2-15.9l0.3-0.8c5.1,7.4,9.8,13.2,15.3,13.2c2.8,0,4.3-1.2,4.3-3.7c0-9.2-18.4-13.9-18.4-24.1
							c0-6.6,5.9-14.5,16.2-14.5h6.6l0.5,13.9L325.7,114z"/>
						<path class="st3" d="M149.4,179c-2.5,0-4.5,7.5-2.5,14.6h15.1v2.2l-15.1,2.8v16.8c0,26.7-4.9,29.4-9.1,45.4H137l-0.9-40.3
							v-21.1l-6.6-5.9h7c0-3.7,7.3-16.5,19.5-19.2l3.8-0.8l3.6,12.3l-0.3,0.3L149.4,179z"/>
						<path class="st3" d="M185.4,192.5c11.7,0,18.8,8,18.8,20.3c0,14.6-11,28-23.8,28c-10,0-17.7-7.3-17.7-19.9
							C162.8,205.8,172.2,192.5,185.4,192.5z M174.6,214.6c0,15.5,6.2,23.1,9,23.1c2.8,0,8.3-5.2,8.3-20.7
							c0-16.5-7.3-21.5-10.1-21.5C179,195.5,174.6,198,174.6,214.6z"/>
						<path class="st3" d="M233.7,204.8c-1.3,0.6-9.3,19.6-9.3,29l0.7,5.7h-11.5v-33.3l-6.4-7.2l17.1-6.3v29.8
							c2.7-10.5,7.3-22.3,12.8-30.1h1.2l7.9,15.4l-0.3,0.4L233.7,204.8z"/>
						<path class="st3" d="M135.4,334.1c-2.8-2-5.3-8.7-5.3-16.3c0-17.4,10.7-30.2,30.2-30.6h10.7l-3.6,5.1v32.8l6.9,8.1h-17.9
							v-24.1l1.1-10.9c-3.3,13.4-9.7,26-15.3,34.9L135.4,334.1z M156.6,290c-12.5,0.1-15,13.4-15,22.8c0,9.2,1,13.1,2.2,13.1
							C145.6,325.9,156.5,299.9,156.6,290z"/>
						<path class="st3" d="M145.4,411c3.7-13.9,11-27.4,12.9-30.1l9.2-2.3c2.4,7.5,2.6,10.2,2.6,29.3v10.9l6.9,8h-17.7v-13.5
							c0-14.6-0.8-21.2-1.9-24.8l-0.7-0.1c-4.7,9.3-11.3,24.8-11.3,32.7l1.4,5.7h-12.2v-33.3l-6.4-7.2l17.1-6.3V411z"/>
						<path class="st3" d="M214.5,406.4c-2.4,8.1-10.7,21.4-19.8,21.4c-8.3,0-13.9-6.3-13.9-18.7c0-13.5,9.5-29.5,21.1-29.5
							c8.9,0,11.7,8.9,11.7,10.8L193,408.1c0.8,7.8,3.4,13.1,6.7,13.1c6.7,0,13.2-15.7,13.2-15.7L214.5,406.4z M203.6,395.6
							c-0.5-9.5-5.1-13.9-6.4-13.1c-1.7,1-4.6,4.1-4.6,19.1c0,1.5,0.1,2.9,0.2,4.2L203.6,395.6z"/>
						<path class="st3" d="M280.9,380.9c-1.1,15.2-10.6,42.5-25.8,47.3l-4.6-26c-4.4,11.8-11.6,23.1-20.9,26l-6.2-34.9l-8.7-6.5
							l16.8-8.9l7,41.2l-0.1,0.4c6.7-6.3,10.4-17.3,10.5-25.6c-0.6-2.9-1.2-5.6-2.8-13h11.2l6.6,38.2l-0.1,0.4
							c10.2-9.2,12.4-30.7,9.2-33.4l-5.6-4.6v-0.6H280.9z"/>
						<path class="st3" d="M219,456.2l-6,8L194,521.5h-5.4L175.6,485l-12.7,36.4h-5.4l-22.1-59.7l-4.6-5.5h24.3l-7.2,5.7l14.7,41.1
							l0.8,3.5l10.2-27l-6.5-18l-4.4-5.3h24.3l-7.3,5.7l13.9,41.1l1,4.1l13.4-42.8l-7.7-8.1H219z"/>
						<path class="st3" d="M238.3,473.3c11.7,0,18.8,8,18.8,20.3c0,14.6-11,28-23.8,28c-10,0-17.7-7.3-17.7-19.9
							C215.7,486.6,225.1,473.3,238.3,473.3z M227.5,495.4c0,15.5,6.2,23.1,9,23.1c2.8,0,8.3-5.2,8.3-20.7
							c0-16.5-7.3-21.5-10.1-21.5C231.9,476.3,227.5,478.9,227.5,495.4z"/>
						<path class="st3" d="M286.6,485.6c-1.3,0.6-9.3,19.6-9.3,29l0.7,5.7h-11.5V487l-6.4-7.2l17.1-6.3v29.8
							c2.7-10.5,7.3-22.3,12.8-30.1h1.2l7.9,15.4L299,489L286.6,485.6z"/>
						<path class="st3" d="M299.3,459.2l17.1-5.3v58.4l6.9,8h-17.7v-41.2l-6.4-7.2l6.4-2.7v-2.8L299.3,459.2z"/>
						<path class="st3" d="M353.5,521.2v-24.9l1.1-10.9c-3.3,13.4-9.7,26-15.3,34.9l-6.9,1c-2.8-2-5.9-8.7-5.9-16.3
							c0-15.9,9.6-28.5,27.1-30.4v-8.2l-6.4-7.2l17.1-5.3v59.9l6.9,6.6L353.5,521.2z M353.6,477.2c-12.5,0.1-15.5,13.4-15.5,22.8
							c0,9.2,1.6,13.1,2.7,13.1C342.6,513.1,353.5,487.1,353.6,477.2z"/>
					</g>
				</g>
			</g>
		</g>
	</g>
</g>
</svg>
