<?xml version="1.0" encoding="utf-8"?>
<!-- Generator: Adobe Illustrator 24.3.0, SVG Export Plug-In . SVG Version: 6.00 Build 0)  -->
<svg version="1.1" id="Ebene_1" xmlns="http://www.w3.org/2000/svg" xmlns:xlink="http://www.w3.org/1999/xlink" x="0px" y="0px"
	 viewBox="0 0 1200 630" style="enable-background:new 0 0 1200 630;" xml:space="preserve">
<style type="text/css">
	.st0{clip-path:url(#SVGID_2_);}
	.st1{fill:#FF7BAC;}
	.st2{opacity:0.25;}
	.st3{fill:#FFFFFF;}
	.st4{fill:#D4145A;}
	.st5{fill:#FFDC00;}
	.st6{fill:#F15A24;}
	.st7{fill:#1B1464;}
	.st8{clip-path:url(#SVGID_4_);}
</style>
<g id="fb_x5F_og">
	<defs>
		<rect id="SVGID_1_" width="1200" height="630"/>
	</defs>
	<use xlink:href="#SVGID_1_"  style="overflow:visible;fill:#19FFDD;"/>
	<clipPath id="SVGID_2_">
		<use xlink:href="#SVGID_1_"  style="overflow:visible;"/>
	</clipPath>
	<g class="st0">
		<g>
			<path class="st1" d="M303.1,166.5c-3.1-7.1-3-13.8,0.5-23.9c8.6-25.4,0.9-34.5-14.6-40.7c-7.3-2.9-17.2-3.6-27.9-3.2
				c10.3-2.8,19.6-6.4,25.8-11.4c13.1-10.5,17.9-21.6,2.4-43.3c-6.1-8.7-8.1-15-7.2-22.7c0.5-3.7-2.9-7.1-6.6-6.7
				c-7.7,0.8-14-1.3-22.6-7.6C231.5-9,220.4-4.4,209.6,8.4c-5.1,6.1-8.9,15.3-11.9,25.5c0.6-10.7,0.1-20.5-2.7-28
				c-5.9-15.6-14.9-23.5-40.4-15.4c-10.2,3.2-16.9,3.2-23.9,0c-3.4-1.6-7.6,0.6-8.4,4.2c-1.7,7.6-5.7,12.9-14.4,19.1
				C86,29.5,86.9,41.4,95.7,55.6c4.2,6.7,11.7,13.1,20.5,19c-10-3.8-19.5-6.3-27.4-5.9c-16.7,0.9-27.1,7-27.4,33.8
				c-0.1,10.7-2.3,17-7.6,22.7c-2.5,2.7-1.9,7.4,1.3,9.3c6.7,3.9,10.5,9.3,13.7,19.5c7.9,25.5,19.5,28.3,35.8,24.2
				c7.7-2,16.1-7.2,24.6-13.8c-6.8,8.3-12.1,16.7-14.3,24.3c-4.4,16.2-1.9,27.8,23.5,36.3c10.1,3.4,15.5,7.3,19.2,14.1
				c1.8,3.2,6.5,4,9.3,1.5c5.8-5.2,12.2-7.2,22.8-7.1c26.8,0.2,33.1-10,34.4-26.7c0.5-7.9-1.8-17.5-5.3-27.6
				c5.8,8.9,12,16.6,18.6,20.9c14,9.1,25.9,10.2,41.9-11.4c6.4-8.6,11.8-12.5,19.4-14C302.3,174.1,304.5,169.9,303.1,166.5z"/>
		</g>
		<g class="st2">
			<polygon points="635.6,467.4 635.6,492.3 635.6,517.5 635.6,542.7 635.6,567.8 635.6,593 635.6,593.2 635.6,618.2 1055.3,618.2 
				1055.3,593 1055.3,567.8 1055.3,542.7 1055.3,517.5 1055.3,492.3 1055.3,467.2 635.6,467.2 			"/>
			<polygon points="635.6,643.5 635.6,668.7 635.6,693.8 635.6,719 1055.3,719 1055.3,693.8 1055.3,668.7 1055.3,643.5 
				1055.3,618.3 635.6,618.3 			"/>
			<polygon points="965.4,196.8 905.4,196.8 845.5,196.8 785.5,196.8 725.6,196.8 665.6,196.8 635.6,196.8 635.6,222 635.6,247.2 
				635.6,297.5 635.6,322.7 635.6,347.9 635.6,398.3 635.6,423.4 635.6,448.6 665.6,448.6 725.6,448.6 785.5,448.6 845.5,448.6 
				905.4,448.6 965.4,448.6 1025.4,448.6 1055.3,448.6 1055.3,423.4 1055.3,398.3 1055.3,347.9 1055.3,322.7 1055.3,297.5 
				1055.3,247.2 1055.3,222 1055.3,196.8 1025.4,196.8 			"/>
			<polygon points="635.6,-73.6 635.6,14.6 635.6,52.3 635.6,60.8 635.6,178.3 1055.3,178.3 1055.3,60.8 1055.3,52.3 1055.3,14.6 
				1055.3,-73.6 			"/>
		</g>
		<g class="st2">
			<g>
				<g>
					<path d="M145.2,93.3h45.2v20.6H190l-11.6-17.1H163v27.5h24.9v4.5H163v21.3l10,10.4h-27.8V160l5.7-9.8v-46.7L145.2,93.3z"/>
					<path d="M196.6,96.4l18-5.6v61.3l7.3,8.5h-18.6v-43.2l-6.7-7.6l6.7-2.9V104L196.6,96.4z"/>
					<path d="M230.8,161.7c-2.9-2.1-5.6-9.1-5.6-17.1c0-18.3,11.2-31.7,31.7-32.1h11.2l-3.7,5.3v34.4l7.3,8.5h-18.8v-25.3l1.2-11.4
						c-3.4,14.1-10.2,27.3-16,36.7L230.8,161.7z M253.1,115.3c-13.2,0.1-15.7,14.1-15.7,24c0,9.6,1.1,13.8,2.3,13.8
						C241.5,153.1,253,125.7,253.1,115.3z"/>
					<path d="M280.5,161.7c-2.9-2.1-5.6-9.1-5.6-17.1c0-17.9,11-31.7,31.7-32.1h11.2l-3.7,5.4c-0.1,10.2-0.1,20.5-0.2,30.9v0.8h0.1
						l-0.2,2.6v1.2c0,16.3-17.4,30.3-30.2,30.3h-0.6l-10.9-13.4l0.6-0.7c5.7,4.7,14.9,8.2,19,8.2c6.3,0,10.8-3.7,10.9-19.5v-22.8
						l1.2-11.4c-3.4,14.1-10.2,27.3-16,36.7L280.5,161.7z M302.8,115.3c-13.2,0.1-15.7,14.1-15.7,24c0,9.6,1.1,13.8,2.3,13.8
						C291.2,153.1,302.7,125.7,302.8,115.3z"/>
					<path d="M348.4,127.1c-3.7-5.8-8.6-9.9-13-9.9c-2.8,0-3.4,1.3-3.4,3.7c0,6.9,19.7,14.5,19.7,25c0,6.5-5.5,14.7-18.2,14.7h-8.1
						l-2.4-16.7l0.3-0.9c5.3,7.8,10.3,13.9,16,13.9c2.9,0,4.5-1.3,4.5-3.9c0-9.6-19.4-14.5-19.4-25.3c0-7,6.2-15.2,17-15.2h7
						L349,127L348.4,127.1z"/>
					<path d="M163.4,195.4c-2.7,0-4.7,7.9-2.7,15.3h15.8v2.4l-15.8,2.9v17.7c0,28-5.1,30.9-9.5,47.7h-0.8l-1-42.4v-22.1l-6.9-6.2
						h7.4c0-3.9,7.7-17.3,20.4-20.1l4-0.9l3.7,12.9l-0.3,0.3L163.4,195.4z"/>
					<path d="M201.2,209.6c12.3,0,19.8,8.4,19.8,21.3c0,15.3-11.6,29.4-25,29.4c-10.5,0-18.6-7.7-18.6-20.9
						C177.4,223.5,187.3,209.6,201.2,209.6z M189.8,232.8c0,16.3,6.5,24.3,9.4,24.3s8.7-5.5,8.7-21.7c0-17.3-7.7-22.6-10.6-22.6
						C194.4,212.7,189.8,215.4,189.8,232.8z"/>
					<path d="M251.9,222.5c-1.4,0.6-9.7,20.5-9.7,30.5l0.8,6h-12.1v-35l-6.7-7.6l18-6.6V241c2.9-11,7.7-23.4,13.5-31.6h1.3l8.3,16.2
						l-0.3,0.4L251.9,222.5z"/>
					<path d="M148.6,358.3c-2.9-2.1-5.6-9.1-5.6-17.1c0-18.3,11.2-31.7,31.7-32.1H186l-3.7,5.3v34.4l7.3,8.5h-18.8v-25.3l1.2-11.4
						c-3.4,14.1-10.2,27.3-16,36.7L148.6,358.3z M170.9,311.9c-13.2,0.1-15.7,14.1-15.7,24c0,9.6,1.1,13.8,2.3,13.8
						C159.3,349.6,170.8,322.3,170.9,311.9z"/>
					<path d="M159.1,439c3.8-14.5,11.5-28.8,13.6-31.6l9.6-2.5c2.6,7.9,2.8,10.7,2.8,30.8V447l7.3,8.5h-18.6v-14.2
						c0-15.3-0.9-22.2-2-26l-0.8-0.1c-4.9,9.7-11.9,26-11.9,34.3l1.5,6h-12.8v-35l-6.7-7.6l18-6.6V439z"/>
					<path d="M231.7,434.2c-2.6,8.5-11.2,22.5-20.7,22.5c-8.7,0-14.5-6.6-14.5-19.7c0-14.2,10-31,22.1-31c9.3,0,12.3,9.3,12.3,11.3
						l-21.6,18.6c0.9,8.2,3.5,13.8,7.1,13.8c7.1,0,13.9-16.5,13.9-16.5L231.7,434.2z M220.3,422.9c-0.5-9.9-5.4-14.6-6.7-13.8
						c-1.8,1.1-4.8,4.3-4.8,20.1c0,1.6,0.1,3,0.2,4.4L220.3,422.9z"/>
					<path d="M301.5,407.3c-1.2,15.9-11.1,44.6-27.1,49.6l-4.8-27.3c-4.6,12.4-12.2,24.3-21.9,27.3l-6.5-36.7l-9.1-6.8l17.7-9.3
						l7.4,43.2l-0.1,0.4c7.1-6.6,10.9-18.2,11-26.8c-0.6-3-1.3-5.9-2.9-13.7h11.8l7,40.1l-0.1,0.4c10.7-9.6,13.1-32.2,9.6-35.1
						l-5.9-4.8v-0.6H301.5z"/>
					<path d="M236.5,486.4l-6.3,8.5L210.1,555h-5.7l-13.6-38.2L177.5,555h-5.7l-23.2-62.7l-4.8-5.8h25.6l-7.6,6l15.4,43.1l0.9,3.6
						l10.7-28.3l-6.8-18.9l-4.6-5.6H203l-7.7,6l14.5,43.1l1.1,4.3L225,495l-8.1-8.6H236.5z"/>
					<path d="M256.7,504.4c12.3,0,19.8,8.4,19.8,21.3c0,15.3-11.6,29.4-25,29.4c-10.5,0-18.6-7.7-18.6-20.9
						C233,518.4,242.9,504.4,256.7,504.4z M245.3,527.6c0,16.3,6.5,24.3,9.4,24.3c2.9,0,8.7-5.5,8.7-21.7c0-17.3-7.7-22.6-10.6-22.6
						S245.3,510.2,245.3,527.6z"/>
					<path d="M307.5,517.3c-1.4,0.6-9.7,20.5-9.7,30.5l0.8,6h-12.1v-35l-6.7-7.6l18-6.6v31.3c2.9-11,7.7-23.4,13.5-31.6h1.3
						l8.3,16.2l-0.3,0.4L307.5,517.3z"/>
					<path d="M320.7,489.6l18-5.6v61.3l7.3,8.5h-18.6v-43.2l-6.7-7.6l6.7-2.9v-2.9L320.7,489.6z"/>
					<path d="M377.6,554.7v-26.1l1.2-11.4c-3.4,14.1-10.2,27.3-16,36.7l-7.3,1.1c-2.9-2.1-6.2-9.1-6.2-17.1
						c0-16.7,10.1-30,28.5-31.9v-8.6l-6.7-7.6l18-5.6v62.9l7.3,6.9L377.6,554.7z M377.8,508.5c-13.2,0.1-16.3,14.1-16.3,24
						c0,9.6,1.7,13.8,2.9,13.8C366.2,546.2,377.7,518.9,377.8,508.5z"/>
				</g>
			</g>
		</g>
		<g>
			<g>
				<g>
					<g>
						<rect x="628.2" y="459.7" width="419.7" height="25.2"/>
					</g>
					<g>
						<rect x="628.2" y="484.9" class="st3" width="419.7" height="25.2"/>
					</g>
					<g>
						<rect x="628.2" y="510.1" width="419.7" height="25.2"/>
					</g>
					<g>
						<rect x="628.2" y="535.2" class="st3" width="419.7" height="25.2"/>
					</g>
					<g>
						<rect x="628.2" y="560.4" width="419.7" height="25.2"/>
					</g>
					<g>
						<rect x="628.2" y="585.6" class="st3" width="419.7" height="25.2"/>
					</g>
					<g>
						<rect x="628.2" y="610.9" width="419.7" height="25.2"/>
					</g>
					<g>
						<rect x="628.2" y="636.1" class="st3" width="419.7" height="25.2"/>
					</g>
					<g>
						<rect x="628.2" y="661.2" width="419.7" height="25.2"/>
					</g>
					<g>
						<rect x="628.2" y="686.4" class="st3" width="419.7" height="25.2"/>
					</g>
					<rect x="628.2" y="459.9" class="st4" width="125.9" height="125.8"/>
					
						<rect x="664.3" y="496" transform="matrix(0.7074 -0.7068 0.7068 0.7074 -167.3203 641.5103)" class="st3" width="53.6" height="53.6"/>
				</g>
				<g>
					<rect x="628.2" y="189.4" class="st5" width="419.7" height="251.8"/>
					<g>
						<rect x="628.2" y="189.4" class="st3" width="419.7" height="50.4"/>
						<polygon points="628.2,214.6 628.2,189.4 658.2,189.4 						"/>
						<polygon points="688.1,214.6 718.1,239.7 658.2,239.7 						"/>
						<polygon points="748.1,214.6 718.1,189.4 778.1,189.4 						"/>
						<polygon points="808.1,214.6 838.1,239.7 778.1,239.7 						"/>
						<polygon points="868,214.6 838.1,189.4 898,189.4 						"/>
						<polygon points="928,214.6 958,239.7 898,239.7 						"/>
						<polygon points="988,214.6 958,189.4 1017.9,189.4 						"/>
						<polygon points="1047.9,214.6 1047.9,239.7 1017.9,239.7 						"/>
					</g>
					<g>
						<rect x="628.2" y="290.1" class="st3" width="419.7" height="50.4"/>
						<polygon points="628.2,315.3 628.2,290.1 658.2,290.1 						"/>
						<polygon points="688.1,315.3 718.1,340.5 658.2,340.5 						"/>
						<polygon points="748.1,315.3 718.1,290.1 778.1,290.1 						"/>
						<polygon points="808.1,315.3 838.1,340.5 778.1,340.5 						"/>
						<polygon points="868,315.3 838.1,290.1 898,290.1 						"/>
						<polygon points="928,315.3 958,340.5 898,340.5 						"/>
						<polygon points="988,315.3 958,290.1 1017.9,290.1 						"/>
						<polygon points="1047.9,315.3 1047.9,340.5 1017.9,340.5 						"/>
					</g>
					<g>
						<rect x="628.2" y="390.8" class="st3" width="419.7" height="50.4"/>
						<polygon points="628.2,416 628.2,390.8 658.2,390.8 						"/>
						<polygon points="688.1,416 718.1,441.2 658.2,441.2 						"/>
						<polygon points="748.1,416 718.1,390.8 778.1,390.8 						"/>
						<polygon points="808.1,416 838.1,441.2 778.1,441.2 						"/>
						<polygon points="868,416 838.1,390.8 898,390.8 						"/>
						<polygon points="928,416 958,441.2 898,441.2 						"/>
						<polygon points="988,416 958,390.8 1017.9,390.8 						"/>
						<polygon points="1047.9,416 1047.9,441.2 1017.9,441.2 						"/>
					</g>
				</g>
				<g>
					<g>
						<rect x="628.2" y="44.9" class="st6" width="419.7" height="125.9"/>
					</g>
					<rect x="628.2" y="-81" class="st7" width="419.7" height="125.9"/>
					<g>
						<polygon class="st3" points="1047.9,53.3 995.1,82.7 942.8,53.3 890.4,82.7 838,53.3 785.7,82.7 733.3,53.3 681,82.7 
							628.2,53.3 628.2,7.2 681,36.5 733.3,7.1 785.7,36.5 838,7.1 890.4,36.5 942.8,7.1 995.1,36.5 1047.9,7.2 						"/>
					</g>
					<g>
						<circle class="st6" cx="681" cy="-30.6" r="18.9"/>
					</g>
					<g>
						<circle class="st6" cx="785.7" cy="-30.6" r="18.9"/>
					</g>
					<g>
						<circle class="st6" cx="890.4" cy="-30.6" r="18.9"/>
					</g>
					<g>
						<circle class="st6" cx="995.1" cy="-30.6" r="18.9"/>
					</g>
					<circle class="st7" cx="733.3" cy="120.5" r="18.9"/>
					<circle class="st7" cx="838.1" cy="120.5" r="18.9"/>
					<circle class="st7" cx="942.8" cy="120.5" r="18.9"/>
				</g>
			</g>
			<g>
				<g>
					<g>
						<path class="st3" d="M138.7,85.9h45.2v20.6h-0.4l-11.6-17.1h-15.4v27.5h24.9v4.5h-24.9v21.3l10,10.4h-27.8v-0.6l5.7-9.8V96.1
							L138.7,85.9z"/>
						<path class="st3" d="M190.1,89l18-5.6v61.3l7.3,8.5h-18.6V110l-6.7-7.6l6.7-2.9v-2.9L190.1,89z"/>
						<path class="st3" d="M224.3,154.3c-2.9-2.1-5.6-9.1-5.6-17.1c0-18.3,11.2-31.7,31.7-32.1h11.2l-3.7,5.3v34.4l7.3,8.5h-18.8
							v-25.3l1.2-11.4c-3.4,14.1-10.2,27.3-16,36.7L224.3,154.3z M246.6,107.9c-13.2,0.1-15.7,14.1-15.7,24c0,9.6,1.1,13.8,2.3,13.8
							C235,145.6,246.5,118.3,246.6,107.9z"/>
						<path class="st3" d="M274,154.3c-2.9-2.1-5.6-9.1-5.6-17.1c0-17.9,11-31.7,31.7-32.1h11.2l-3.7,5.4
							c-0.1,10.2-0.1,20.5-0.2,30.9v0.8h0.1l-0.2,2.6v1.2c0,16.3-17.4,30.3-30.2,30.3h-0.6l-10.9-13.4l0.6-0.7
							c5.7,4.7,14.9,8.2,19,8.2c6.3,0,10.8-3.7,10.9-19.5v-22.8l1.2-11.4c-3.4,14.1-10.2,27.3-16,36.7L274,154.3z M296.3,107.9
							c-13.2,0.1-15.7,14.1-15.7,24c0,9.6,1.1,13.8,2.3,13.8C284.7,145.6,296.2,118.3,296.3,107.9z"/>
						<path class="st3" d="M341.9,119.7c-3.7-5.8-8.6-9.9-13-9.9c-2.8,0-3.4,1.3-3.4,3.7c0,6.9,19.7,14.5,19.7,25
							c0,6.5-5.5,14.7-18.2,14.7h-8.1l-2.4-16.7l0.3-0.9c5.3,7.8,10.3,13.9,16,13.9c2.9,0,4.5-1.3,4.5-3.9
							c0-9.6-19.4-14.5-19.4-25.3c0-7,6.2-15.2,17-15.2h7l0.5,14.5L341.9,119.7z"/>
						<path class="st3" d="M156.9,188c-2.7,0-4.7,7.9-2.7,15.3H170v2.4l-15.8,2.9v17.7c0,28-5.1,30.9-9.5,47.7h-0.8l-1-42.4v-22.1
							l-6.9-6.2h7.4c0-3.9,7.7-17.3,20.4-20.1l4-0.9l3.7,12.9l-0.3,0.3L156.9,188z"/>
						<path class="st3" d="M194.7,202.1c12.3,0,19.8,8.4,19.8,21.3c0,15.3-11.6,29.4-25,29.4c-10.5,0-18.6-7.7-18.6-20.9
							C170.9,216.1,180.8,202.1,194.7,202.1z M183.3,225.3c0,16.3,6.5,24.3,9.4,24.3c2.9,0,8.7-5.5,8.7-21.7
							c0-17.3-7.7-22.6-10.6-22.6S183.3,207.9,183.3,225.3z"/>
						<path class="st3" d="M245.4,215c-1.4,0.6-9.7,20.5-9.7,30.5l0.8,6h-12.1v-35l-6.7-7.6l18-6.6v31.3c2.9-11,7.7-23.4,13.5-31.6
							h1.3l8.3,16.2l-0.3,0.4L245.4,215z"/>
						<path class="st3" d="M142.1,350.9c-2.9-2.1-5.6-9.1-5.6-17.1c0-18.3,11.2-31.7,31.7-32.1h11.2l-3.7,5.3v34.4l7.3,8.5h-18.8
							v-25.3l1.2-11.4c-3.4,14.1-10.2,27.3-16,36.7L142.1,350.9z M164.4,304.5c-13.2,0.1-15.7,14.1-15.7,24c0,9.6,1.1,13.8,2.3,13.8
							C152.8,342.2,164.3,314.9,164.4,304.5z"/>
						<path class="st3" d="M152.6,431.5c3.8-14.5,11.5-28.8,13.6-31.6l9.6-2.5c2.6,7.9,2.8,10.7,2.8,30.8v11.4l7.3,8.5h-18.6v-14.2
							c0-15.3-0.9-22.2-2-26l-0.8-0.1c-4.9,9.7-11.9,26-11.9,34.3l1.5,6h-12.8v-35l-6.7-7.6l18-6.6V431.5z"/>
						<path class="st3" d="M225.2,426.7c-2.6,8.5-11.2,22.5-20.7,22.5c-8.7,0-14.5-6.6-14.5-19.7c0-14.2,10-31,22.1-31
							c9.3,0,12.3,9.3,12.3,11.3l-21.6,18.6c0.9,8.2,3.5,13.8,7.1,13.8c7.1,0,13.9-16.5,13.9-16.5L225.2,426.7z M213.8,415.4
							c-0.5-9.9-5.4-14.6-6.7-13.8c-1.8,1.1-4.8,4.3-4.8,20.1c0,1.6,0.1,3,0.2,4.4L213.8,415.4z"/>
						<path class="st3" d="M295,399.9c-1.2,15.9-11.1,44.6-27.1,49.6l-4.8-27.3c-4.6,12.4-12.2,24.3-21.9,27.3l-6.5-36.7l-9.1-6.8
							l17.7-9.3l7.4,43.2l-0.1,0.4c7.1-6.6,10.9-18.2,11-26.8c-0.6-3-1.3-5.9-2.9-13.7h11.8l7,40.1l-0.1,0.4
							c10.7-9.6,13.1-32.2,9.6-35.1l-5.9-4.8v-0.6H295z"/>
						<path class="st3" d="M230,479l-6.3,8.5l-20.1,60.1h-5.7l-13.6-38.2L171,547.5h-5.7l-23.2-62.7l-4.8-5.8h25.6l-7.6,6l15.4,43.1
							l0.9,3.6l10.7-28.3l-6.8-18.9l-4.6-5.6h25.6l-7.7,6l14.5,43.1l1.1,4.3l14.1-44.9l-8.1-8.6H230z"/>
						<path class="st3" d="M250.2,497c12.3,0,19.8,8.4,19.8,21.3c0,15.3-11.6,29.4-25,29.4c-10.5,0-18.6-7.7-18.6-20.9
							C226.5,511,236.4,497,250.2,497z M238.8,520.2c0,16.3,6.5,24.3,9.4,24.3s8.7-5.5,8.7-21.7c0-17.3-7.7-22.6-10.6-22.6
							C243.5,500.2,238.8,502.8,238.8,520.2z"/>
						<path class="st3" d="M301,509.9c-1.4,0.6-9.7,20.5-9.7,30.5l0.8,6h-12.1v-35l-6.7-7.6l18-6.6v31.3c2.9-11,7.7-23.4,13.5-31.6
							h1.3l8.3,16.2l-0.3,0.4L301,509.9z"/>
						<path class="st3" d="M314.2,482.2l18-5.6v61.3l7.3,8.5h-18.6v-43.2l-6.7-7.6l6.7-2.9v-2.9L314.2,482.2z"/>
						<path class="st3" d="M371.1,547.2v-26.1l1.2-11.4c-3.4,14.1-10.2,27.3-16,36.7l-7.3,1.1c-2.9-2.1-6.2-9.1-6.2-17.1
							c0-16.7,10.1-30,28.5-31.9v-8.6l-6.7-7.6l18-5.6v62.9l7.3,6.9L371.1,547.2z M371.3,501c-13.2,0.1-16.3,14.1-16.3,24
							c0,9.6,1.7,13.8,2.9,13.8C359.7,538.8,371.2,511.5,371.3,501z"/>
					</g>
				</g>
			</g>
		</g>
	</g>
</g>
<g id="fb_x5F_og_1_">
	<defs>
		<rect id="SVGID_3_" x="1473.7" y="15" width="1200.9" height="600"/>
	</defs>
	<use xlink:href="#SVGID_3_"  style="overflow:visible;fill:#19FFDD;"/>
	<clipPath id="SVGID_4_">
		<use xlink:href="#SVGID_3_"  style="overflow:visible;"/>
	</clipPath>
	<g class="st8">
		<g>
			<path class="st1" d="M1762.4,173.5c-2.9-6.7-2.8-13.1,0.4-22.7c8.2-24.2,0.9-32.9-13.9-38.8c-7-2.7-16.4-3.4-26.6-3.1
				c9.8-2.7,18.6-6.1,24.6-10.8c12.4-10,17-20.5,2.3-41.3c-5.9-8.3-7.7-14.3-6.8-21.6c0.4-3.5-2.7-6.7-6.3-6.4
				c-7.3,0.8-13.4-1.3-21.5-7.3c-20.4-15.1-31-10.8-41.3,1.4c-4.8,5.8-8.5,14.5-11.3,24.3c0.6-10.2,0-19.6-2.5-26.6
				C1653.9,5.8,1645.3-1.7,1621,6c-9.7,3.1-16.1,3-22.7,0c-3.2-1.5-7.3,0.6-8,4c-1.6,7.2-5.4,12.3-13.7,18.2
				c-20.8,14.8-20,26.2-11.7,39.7c4,6.3,11.2,12.4,19.6,18.1c-9.5-3.6-18.6-6-26.1-5.6c-15.9,0.8-25.8,6.7-26.1,32.2
				c-0.1,10.2-2.2,16.2-7.2,21.6c-2.4,2.6-1.8,7.1,1.3,8.9c6.3,3.7,10,8.9,13,18.5c7.5,24.3,18.6,27,34.1,23.1
				c7.3-1.9,15.4-6.9,23.4-13.1c-6.4,7.9-11.5,15.9-13.6,23.1c-4.2,15.4-1.8,26.5,22.4,34.6c9.6,3.2,14.7,7,18.3,13.4
				c1.7,3.1,6.2,3.8,8.8,1.5c5.5-4.9,11.6-6.8,21.7-6.8c25.5,0.2,31.5-9.5,32.7-25.4c0.5-7.5-1.7-16.7-5.1-26.2
				c5.5,8.5,11.5,15.8,17.7,19.9c13.3,8.7,24.7,9.7,39.9-10.8c6.1-8.2,11.3-11.9,18.5-13.3C1761.6,180.8,1763.8,176.8,1762.4,173.5z
				"/>
		</g>
		<g class="st2">
			<polygon points="2137.1,460.1 2137.1,483.9 2137.1,507.9 2137.1,531.8 2137.1,555.8 2137.1,579.8 2137.1,579.9 2137.1,603.8 
				2536.8,603.8 2536.8,579.8 2536.8,555.8 2536.8,531.8 2536.8,507.9 2536.8,483.9 2536.8,459.9 2137.1,459.9 			"/>
			<polygon points="2137.1,627.8 2137.1,651.8 2137.1,675.8 2137.1,699.8 2536.8,699.8 2536.8,675.8 2536.8,651.8 2536.8,627.8 
				2536.8,603.9 2137.1,603.9 			"/>
			<polygon points="2451.2,202.4 2394.1,202.4 2336.9,202.4 2279.8,202.4 2222.7,202.4 2165.6,202.4 2137.1,202.4 2137.1,226.4 
				2137.1,250.4 2137.1,298.4 2137.1,322.3 2137.1,346.3 2137.1,394.3 2137.1,418.3 2137.1,442.3 2165.6,442.3 2222.7,442.3 
				2279.8,442.3 2336.9,442.3 2394.1,442.3 2451.2,442.3 2508.3,442.3 2536.8,442.3 2536.8,418.3 2536.8,394.3 2536.8,346.3 
				2536.8,322.3 2536.8,298.4 2536.8,250.4 2536.8,226.4 2536.8,202.4 2508.3,202.4 			"/>
			<polygon points="2137.1,-55.1 2137.1,28.9 2137.1,64.9 2137.1,72.9 2137.1,184.8 2536.8,184.8 2536.8,72.9 2536.8,64.9 
				2536.8,28.9 2536.8,-55.1 			"/>
		</g>
		<g class="st2">
			<g>
				<g>
					<path d="M1612,103.9h43.1v19.7h-0.4l-11-16.3h-14.7v26.2h23.7v4.3h-23.7v20.3l9.5,9.9H1612v-0.6l5.4-9.4v-44.5L1612,103.9z"/>
					<path d="M1660.9,106.9l17.1-5.3v58.4l6.9,8.1h-17.7v-41.2l-6.4-7.2l6.4-2.7v-2.8L1660.9,106.9z"/>
					<path d="M1693.5,169c-2.8-2-5.3-8.7-5.3-16.3c0-17.4,10.7-30.2,30.2-30.6h10.7l-3.6,5.1v32.8l6.9,8.1h-17.9v-24.1l1.1-10.9
						c-3.3,13.4-9.7,26-15.3,34.9L1693.5,169z M1714.8,124.8c-12.5,0.1-15,13.4-15,22.8c0,9.2,1,13.1,2.2,13.1
						C1703.7,160.8,1714.7,134.8,1714.8,124.8z"/>
					<path d="M1740.9,169c-2.8-2-5.3-8.7-5.3-16.3c0-17,10.5-30.2,30.2-30.6h10.7l-3.6,5.1c-0.1,9.7-0.1,19.6-0.2,29.4v0.7h0.1
						l-0.2,2.4v1.1c0,15.5-16.6,28.8-28.7,28.8h-0.6l-10.4-12.7l0.6-0.7c5.4,4.5,14.2,7.8,18.1,7.8c6,0,10.3-3.6,10.4-18.5v-21.7
						l1.1-10.9c-3.3,13.4-9.7,26-15.3,34.9L1740.9,169z M1762.1,124.8c-12.5,0.1-15,13.4-15,22.8c0,9.2,1,13.1,2.2,13.1
						C1751.1,160.8,1762,134.8,1762.1,124.8z"/>
					<path d="M1805.6,136.1c-3.6-5.5-8.2-9.5-12.4-9.5c-2.6,0-3.3,1.2-3.3,3.6c0,6.6,18.7,13.9,18.7,23.8c0,6.2-5.2,14-17.3,14h-7.7
						l-2.2-15.9l0.3-0.8c5.1,7.4,9.8,13.2,15.3,13.2c2.8,0,4.3-1.2,4.3-3.7c0-9.2-18.4-13.9-18.4-24.1c0-6.6,5.9-14.5,16.2-14.5h6.6
						l0.5,13.9L1805.6,136.1z"/>
					<path d="M1629.3,201.1c-2.5,0-4.5,7.5-2.5,14.6h15.1v2.2l-15.1,2.8v16.8c0,26.7-4.9,29.4-9.1,45.4h-0.7l-0.9-40.3v-21.1
						l-6.6-5.9h7c0-3.7,7.3-16.5,19.5-19.2l3.8-0.8l3.6,12.3l-0.3,0.3L1629.3,201.1z"/>
					<path d="M1665.3,214.6c11.7,0,18.8,8,18.8,20.3c0,14.6-11,28-23.8,28c-10,0-17.7-7.3-17.7-19.9
						C1642.7,227.9,1652.2,214.6,1665.3,214.6z M1654.5,236.7c0,15.5,6.2,23.1,9,23.1c2.8,0,8.3-5.2,8.3-20.7
						c0-16.5-7.3-21.5-10.1-21.5C1658.9,217.6,1654.5,220.1,1654.5,236.7z"/>
					<path d="M1713.6,226.9c-1.3,0.6-9.3,19.6-9.3,29l0.7,5.7h-11.5v-33.3l-6.4-7.2l17.1-6.3v29.8c2.7-10.5,7.3-22.3,12.8-30.1h1.2
						l7.9,15.4l-0.3,0.4L1713.6,226.9z"/>
					<path d="M1615.3,356.2c-2.8-2-5.3-8.7-5.3-16.3c0-17.4,10.7-30.2,30.2-30.6h10.7l-3.6,5.1v32.8l6.9,8h-17.9v-24.1l1.1-10.9
						c-3.3,13.4-9.7,26-15.3,34.9L1615.3,356.2z M1636.5,312c-12.5,0.1-15,13.4-15,22.8c0,9.2,1,13.1,2.2,13.1
						C1625.5,348,1636.4,322,1636.5,312z"/>
					<path d="M1625.3,433.1c3.7-13.9,11-27.4,12.9-30.1l9.2-2.3c2.4,7.5,2.6,10.2,2.6,29.3v10.9l6.9,8.1h-17.7v-13.5
						c0-14.6-0.8-21.2-1.9-24.8l-0.7-0.1c-4.7,9.3-11.3,24.8-11.3,32.7l1.4,5.7h-12.2v-33.3l-6.4-7.2l17.1-6.3V433.1z"/>
					<path d="M1694.4,428.5c-2.4,8-10.7,21.4-19.8,21.4c-8.3,0-13.9-6.3-13.9-18.7c0-13.5,9.5-29.5,21.1-29.5
						c8.9,0,11.7,8.9,11.7,10.8l-20.6,17.7c0.8,7.8,3.4,13.1,6.7,13.1c6.7,0,13.2-15.7,13.2-15.7L1694.4,428.5z M1683.5,417.7
						c-0.5-9.5-5.1-13.9-6.4-13.1c-1.7,1-4.6,4.1-4.6,19.1c0,1.5,0.1,2.9,0.2,4.2L1683.5,417.7z"/>
					<path d="M1760.8,402.9c-1.1,15.2-10.6,42.5-25.8,47.3l-4.6-26c-4.4,11.8-11.6,23.1-20.9,26l-6.2-34.9l-8.7-6.5l16.8-8.9l7,41.2
						l-0.1,0.4c6.7-6.3,10.4-17.3,10.5-25.6c-0.6-2.9-1.2-5.6-2.8-13h11.2l6.6,38.2l-0.1,0.4c10.2-9.2,12.4-30.7,9.2-33.4l-5.6-4.6
						v-0.6H1760.8z"/>
					<path d="M1699,478.3l-6,8l-19.1,57.2h-5.4l-12.9-36.4l-12.7,36.4h-5.4l-22.1-59.7l-4.6-5.5h24.3l-7.2,5.7l14.7,41.1l0.8,3.5
						l10.2-27l-6.5-18l-4.4-5.3h24.3l-7.3,5.7l13.9,41.1l1,4.1l13.4-42.8l-7.7-8.1H1699z"/>
					<path d="M1718.2,495.4c11.7,0,18.8,8,18.8,20.3c0,14.6-11,28-23.8,28c-10,0-17.7-7.3-17.7-19.9
						C1695.6,508.7,1705,495.4,1718.2,495.4z M1707.4,517.5c0,15.5,6.2,23.1,9,23.1s8.3-5.2,8.3-20.7c0-16.5-7.3-21.5-10.1-21.5
						C1711.8,498.4,1707.4,500.9,1707.4,517.5z"/>
					<path d="M1766.5,507.7c-1.3,0.6-9.3,19.6-9.3,29l0.7,5.7h-11.5v-33.3l-6.4-7.2l17.1-6.3v29.8c2.7-10.5,7.3-22.3,12.8-30.1h1.2
						l7.9,15.4l-0.3,0.4L1766.5,507.7z"/>
					<path d="M1779.2,481.3l17.1-5.3v58.4l6.9,8.1h-17.7v-41.2l-6.4-7.2l6.4-2.7v-2.8L1779.2,481.3z"/>
					<path d="M1833.4,543.2v-24.9l1.1-10.9c-3.3,13.4-9.7,26-15.3,34.9l-6.9,1c-2.8-2-5.9-8.7-5.9-16.3c0-15.9,9.6-28.5,27.1-30.4
						v-8.2l-6.4-7.2l17.1-5.3v59.9l6.9,6.6L1833.4,543.2z M1833.6,499.3c-12.5,0.1-15.5,13.4-15.5,22.8c0,9.2,1.6,13.1,2.7,13.1
						C1822.5,535.2,1833.5,509.2,1833.6,499.3z"/>
				</g>
			</g>
		</g>
		<g>
			<g>
				<g>
					<g>
						<rect x="2130" y="452.8" width="399.7" height="24"/>
					</g>
					<g>
						<rect x="2130" y="476.8" class="st3" width="399.7" height="24"/>
					</g>
					<g>
						<rect x="2130" y="500.8" width="399.7" height="24"/>
					</g>
					<g>
						<rect x="2130" y="524.8" class="st3" width="399.7" height="24"/>
					</g>
					<g>
						<rect x="2130" y="548.7" width="399.7" height="24"/>
					</g>
					<g>
						<rect x="2130" y="572.7" class="st3" width="399.7" height="24"/>
					</g>
					<g>
						<rect x="2130" y="596.8" width="399.7" height="24"/>
					</g>
					<g>
						<rect x="2130" y="620.8" class="st3" width="399.7" height="24"/>
					</g>
					<g>
						<rect x="2130" y="644.7" width="399.7" height="24"/>
					</g>
					<g>
						<rect x="2130" y="668.7" class="st3" width="399.7" height="24"/>
					</g>
					<rect x="2130" y="453" class="st4" width="119.9" height="119.8"/>
					
						<rect x="2164.4" y="487.4" transform="matrix(0.7074 -0.7068 0.7068 0.7074 278.2455 1698.0128)" class="st3" width="51.1" height="51.1"/>
				</g>
				<g>
					<rect x="2130" y="195.3" class="st5" width="399.7" height="239.8"/>
					<g>
						<rect x="2130" y="195.3" class="st3" width="399.7" height="48"/>
						<polygon points="2130,219.3 2130,195.3 2158.6,195.3 						"/>
						<polygon points="2187.1,219.3 2215.7,243.3 2158.6,243.3 						"/>
						<polygon points="2244.2,219.3 2215.7,195.3 2272.8,195.3 						"/>
						<polygon points="2301.3,219.3 2329.9,243.3 2272.8,243.3 						"/>
						<polygon points="2358.4,219.3 2329.9,195.3 2387,195.3 						"/>
						<polygon points="2415.5,219.3 2444.1,243.3 2387,243.3 						"/>
						<polygon points="2472.6,219.3 2444.1,195.3 2501.2,195.3 						"/>
						<polygon points="2529.7,219.3 2529.7,243.3 2501.2,243.3 						"/>
					</g>
					<g>
						<rect x="2130" y="291.3" class="st3" width="399.7" height="48"/>
						<polygon points="2130,315.3 2130,291.3 2158.6,291.3 						"/>
						<polygon points="2187.1,315.3 2215.7,339.3 2158.6,339.3 						"/>
						<polygon points="2244.2,315.3 2215.7,291.3 2272.8,291.3 						"/>
						<polygon points="2301.3,315.3 2329.9,339.3 2272.8,339.3 						"/>
						<polygon points="2358.4,315.3 2329.9,291.3 2387,291.3 						"/>
						<polygon points="2415.5,315.3 2444.1,339.3 2387,339.3 						"/>
						<polygon points="2472.6,315.3 2444.1,291.3 2501.2,291.3 						"/>
						<polygon points="2529.7,315.3 2529.7,339.3 2501.2,339.3 						"/>
					</g>
					<g>
						<rect x="2130" y="387.2" class="st3" width="399.7" height="48"/>
						<polygon points="2130,411.2 2130,387.2 2158.6,387.2 						"/>
						<polygon points="2187.1,411.2 2215.7,435.2 2158.6,435.2 						"/>
						<polygon points="2244.2,411.2 2215.7,387.2 2272.8,387.2 						"/>
						<polygon points="2301.3,411.2 2329.9,435.2 2272.8,435.2 						"/>
						<polygon points="2358.4,411.2 2329.9,387.2 2387,387.2 						"/>
						<polygon points="2415.5,411.2 2444.1,435.2 2387,435.2 						"/>
						<polygon points="2472.6,411.2 2444.1,387.2 2501.2,387.2 						"/>
						<polygon points="2529.7,411.2 2529.7,435.2 2501.2,435.2 						"/>
					</g>
				</g>
				<g>
					<g>
						<rect x="2130" y="57.8" class="st6" width="399.7" height="119.9"/>
					</g>
					<rect x="2130" y="-62.1" class="st7" width="399.7" height="119.9"/>
					<g>
						<polygon class="st3" points="2529.7,65.8 2479.5,93.7 2429.6,65.8 2379.7,93.7 2329.9,65.8 2280,93.7 2230.1,65.8 
							2180.3,93.7 2130,65.8 2130,21.8 2180.3,49.8 2230.1,21.8 2280,49.8 2329.9,21.8 2379.7,49.8 2429.6,21.8 2479.5,49.8 
							2529.7,21.8 						"/>
					</g>
					<g>
						<circle class="st6" cx="2180.3" cy="-14.2" r="18"/>
					</g>
					<g>
						<circle class="st6" cx="2280" cy="-14.2" r="18"/>
					</g>
					<g>
						<circle class="st6" cx="2379.7" cy="-14.2" r="18"/>
					</g>
					<g>
						<circle class="st6" cx="2479.5" cy="-14.2" r="18"/>
					</g>
					<circle class="st7" cx="2230.1" cy="129.7" r="18"/>
					<circle class="st7" cx="2329.9" cy="129.7" r="18"/>
					<circle class="st7" cx="2429.6" cy="129.7" r="18"/>
				</g>
			</g>
			<g>
				<g>
					<g>
						<path class="st3" d="M1605.8,96.8h43.1v19.7h-0.4l-11-16.3h-14.7v26.2h23.7v4.3h-23.7V151l9.5,9.9h-26.5v-0.6l5.4-9.4v-44.5
							L1605.8,96.8z"/>
						<path class="st3" d="M1654.8,99.8l17.1-5.3v58.4l6.9,8.1h-17.7v-41.2l-6.4-7.2l6.4-2.7V107L1654.8,99.8z"/>
						<path class="st3" d="M1687.3,161.9c-2.8-2-5.3-8.7-5.3-16.3c0-17.4,10.7-30.2,30.2-30.6h10.7l-3.6,5.1v32.8l6.9,8.1h-17.9
							v-24.1l1.1-10.9c-3.3,13.4-9.7,26-15.3,34.9L1687.3,161.9z M1708.6,117.8c-12.5,0.1-15,13.4-15,22.8c0,9.2,1,13.1,2.2,13.1
							C1697.5,153.7,1708.5,127.7,1708.6,117.8z"/>
						<path class="st3" d="M1734.7,161.9c-2.8-2-5.3-8.7-5.3-16.3c0-17,10.5-30.2,30.2-30.6h10.7l-3.6,5.1
							c-0.1,9.7-0.1,19.6-0.2,29.4v0.7h0.1l-0.2,2.4v1.1c0,15.5-16.6,28.8-28.7,28.8h-0.6l-10.4-12.7l0.6-0.7
							c5.4,4.5,14.2,7.8,18.1,7.8c6,0,10.3-3.6,10.4-18.5v-21.7l1.1-10.9c-3.3,13.4-9.7,26-15.3,34.9L1734.7,161.9z M1755.9,117.8
							c-12.5,0.1-15,13.4-15,22.8c0,9.2,1,13.1,2.2,13.1C1744.9,153.7,1755.9,127.7,1755.9,117.8z"/>
						<path class="st3" d="M1799.4,129c-3.6-5.5-8.2-9.5-12.4-9.5c-2.6,0-3.3,1.2-3.3,3.6c0,6.6,18.7,13.9,18.7,23.8
							c0,6.2-5.2,14-17.3,14h-7.7l-2.2-15.9l0.3-0.8c5.1,7.4,9.8,13.2,15.3,13.2c2.8,0,4.3-1.2,4.3-3.7c0-9.2-18.4-13.9-18.4-24.1
							c0-6.6,5.9-14.5,16.2-14.5h6.6l0.5,13.9L1799.4,129z"/>
						<path class="st3" d="M1623.1,194c-2.5,0-4.5,7.5-2.5,14.6h15.1v2.2l-15.1,2.8v16.8c0,26.7-4.9,29.4-9.1,45.4h-0.7l-0.9-40.3
							v-21.1l-6.6-5.9h7c0-3.7,7.3-16.5,19.5-19.2l3.8-0.8l3.6,12.3l-0.3,0.3L1623.1,194z"/>
						<path class="st3" d="M1659.2,207.5c11.7,0,18.8,8,18.8,20.3c0,14.6-11,28-23.8,28c-10,0-17.7-7.3-17.7-19.9
							C1636.5,220.8,1646,207.5,1659.2,207.5z M1648.3,229.6c0,15.5,6.2,23.1,9,23.1c2.8,0,8.3-5.2,8.3-20.7
							c0-16.5-7.3-21.5-10.1-21.5C1652.7,210.5,1648.3,213,1648.3,229.6z"/>
						<path class="st3" d="M1707.5,219.8c-1.3,0.6-9.3,19.6-9.3,29l0.7,5.7h-11.5v-33.3l-6.4-7.2l17.1-6.3v29.8
							c2.7-10.5,7.3-22.3,12.8-30.1h1.2l7.9,15.4l-0.3,0.4L1707.5,219.8z"/>
						<path class="st3" d="M1609.1,349.1c-2.8-2-5.3-8.7-5.3-16.3c0-17.4,10.7-30.2,30.2-30.6h10.7l-3.6,5.1v32.8l6.9,8.1h-17.9
							v-24.1l1.1-10.9c-3.3,13.4-9.7,26-15.3,34.9L1609.1,349.1z M1630.3,305c-12.5,0.1-15,13.4-15,22.8c0,9.2,1,13.1,2.2,13.1
							C1619.3,340.9,1630.2,314.9,1630.3,305z"/>
						<path class="st3" d="M1619.1,426c3.7-13.9,11-27.4,12.9-30.1l9.2-2.3c2.4,7.5,2.6,10.2,2.6,29.3v10.9l6.9,8H1633v-13.5
							c0-14.6-0.8-21.2-1.9-24.8l-0.7-0.1c-4.7,9.3-11.3,24.8-11.3,32.7l1.4,5.7h-12.2v-33.3l-6.4-7.2l17.1-6.3V426z"/>
						<path class="st3" d="M1688.2,421.4c-2.4,8.1-10.7,21.4-19.8,21.4c-8.3,0-13.9-6.3-13.9-18.7c0-13.5,9.5-29.5,21.1-29.5
							c8.9,0,11.7,8.9,11.7,10.8l-20.6,17.7c0.8,7.8,3.4,13.1,6.7,13.1c6.7,0,13.2-15.7,13.2-15.7L1688.2,421.4z M1677.3,410.6
							c-0.5-9.5-5.1-13.9-6.4-13.1c-1.7,1-4.6,4.1-4.6,19.1c0,1.5,0.1,2.9,0.2,4.2L1677.3,410.6z"/>
						<path class="st3" d="M1754.6,395.9c-1.1,15.2-10.6,42.5-25.8,47.3l-4.6-26c-4.4,11.8-11.6,23.1-20.9,26l-6.2-34.9l-8.7-6.5
							l16.8-8.9l7,41.2l-0.1,0.4c6.7-6.3,10.4-17.3,10.5-25.6c-0.6-2.9-1.2-5.6-2.8-13h11.2l6.6,38.2l-0.1,0.4
							c10.2-9.2,12.4-30.7,9.2-33.4l-5.6-4.6v-0.6H1754.6z"/>
						<path class="st3" d="M1692.8,471.2l-6,8l-19.1,57.2h-5.4l-12.9-36.4l-12.7,36.4h-5.4l-22.1-59.7l-4.6-5.5h24.3l-7.2,5.7
							l14.7,41.1l0.8,3.5l10.2-27l-6.5-18l-4.4-5.3h24.3l-7.3,5.7l13.9,41.1l1,4.1l13.4-42.8l-7.7-8.1H1692.8z"/>
						<path class="st3" d="M1712,488.3c11.7,0,18.8,8,18.8,20.3c0,14.6-11,28-23.8,28c-10,0-17.7-7.3-17.7-19.9
							C1689.4,501.6,1698.8,488.3,1712,488.3z M1701.2,510.4c0,15.5,6.2,23.1,9,23.1c2.8,0,8.3-5.2,8.3-20.7
							c0-16.5-7.3-21.5-10.1-21.5C1705.6,491.3,1701.2,493.9,1701.2,510.4z"/>
						<path class="st3" d="M1760.3,500.6c-1.3,0.6-9.3,19.6-9.3,29l0.7,5.7h-11.5V502l-6.4-7.2l17.1-6.3v29.8
							c2.7-10.5,7.3-22.3,12.8-30.1h1.2l7.9,15.4l-0.3,0.4L1760.3,500.6z"/>
						<path class="st3" d="M1773,474.2l17.1-5.3v58.4l6.9,8h-17.7v-41.2l-6.4-7.2l6.4-2.7v-2.8L1773,474.2z"/>
						<path class="st3" d="M1827.2,536.2v-24.9l1.1-10.9c-3.3,13.4-9.7,26-15.3,34.9l-6.9,1c-2.8-2-5.9-8.7-5.9-16.3
							c0-15.9,9.6-28.5,27.1-30.4v-8.2l-6.4-7.2l17.1-5.3v59.9l6.9,6.6L1827.2,536.2z M1827.4,492.2c-12.5,0.1-15.5,13.4-15.5,22.8
							c0,9.2,1.6,13.1,2.7,13.1C1816.3,528.1,1827.3,502.1,1827.4,492.2z"/>
					</g>
				</g>
			</g>
		</g>
	</g>
</g>
<rect x="685.6" y="862.8" class="st3" width="1124.8" height="630"/>
</svg>
