<?xml version="1.0" encoding="utf-8"?>
<!-- Generator: Adobe Illustrator 24.3.0, SVG Export Plug-In . SVG Version: 6.00 Build 0)  -->
<svg version="1.1" id="Ebene_1" xmlns="http://www.w3.org/2000/svg" xmlns:xlink="http://www.w3.org/1999/xlink" x="0px" y="0px"
	 viewBox="0 0 1200 630" style="enable-background:new 0 0 1200 630;" xml:space="preserve">
<style type="text/css">
	.st0{clip-path:url(#SVGID_2_);}
	.st1{fill:#FFFFFF;}
	.st2{fill:#D4145A;}
	.st3{fill:#FFDC00;}
	.st4{fill:#F15A24;}
	.st5{fill:#1B1464;}
	.st6{fill:#FF7BAC;}
	.st7{opacity:0.25;}
</style>
<g>
	<defs>
		<rect id="SVGID_1_" width="1200" height="630"/>
	</defs>
	<use xlink:href="#SVGID_1_"  style="overflow:visible;fill:#19FFDD;"/>
	<clipPath id="SVGID_2_">
		<use xlink:href="#SVGID_1_"  style="overflow:visible;"/>
	</clipPath>
	<g class="st0">
		<g>
			<g>
				<rect x="603.2" y="470.6" width="452" height="27.1"/>
			</g>
			<g>
				<rect x="603.2" y="497.7" class="st1" width="452" height="27.1"/>
			</g>
			<g>
				<rect x="603.2" y="524.8" width="452" height="27.1"/>
			</g>
			<g>
				<rect x="603.2" y="551.9" class="st1" width="452" height="27.1"/>
			</g>
			<g>
				<rect x="603.2" y="579" width="452" height="27.1"/>
			</g>
			<g>
				<rect x="603.2" y="606.1" class="st1" width="452" height="27.1"/>
			</g>
			<g>
				<rect x="603.2" y="633.3" width="452" height="27.1"/>
			</g>
			<g>
				<rect x="603.2" y="660.4" class="st1" width="452" height="27.1"/>
			</g>
			<g>
				<rect x="603.2" y="687.5" width="452" height="27.1"/>
			</g>
			<g>
				<rect x="603.2" y="714.6" class="st1" width="452" height="27.1"/>
			</g>
			<rect x="603.2" y="470.8" class="st2" width="135.6" height="135.5"/>
			
				<rect x="642.1" y="509.6" transform="matrix(0.7074 -0.7068 0.7068 0.7074 -184.2942 631.851)" class="st1" width="57.7" height="57.7"/>
		</g>
		<g>
			<rect x="603.2" y="179.4" class="st3" width="452" height="271.2"/>
			<g>
				<rect x="603.2" y="179.4" class="st1" width="452" height="54.2"/>
				<polygon points="603.2,206.5 603.2,179.4 635.5,179.4 				"/>
				<polygon points="667.8,206.5 700.1,233.6 635.5,233.6 				"/>
				<polygon points="732.3,206.5 700.1,179.4 764.6,179.4 				"/>
				<polygon points="796.9,206.5 829.2,233.6 764.6,233.6 				"/>
				<polygon points="861.5,206.5 829.2,179.4 893.8,179.4 				"/>
				<polygon points="926.1,206.5 958.3,233.6 893.8,233.6 				"/>
				<polygon points="990.6,206.5 958.3,179.4 1022.9,179.4 				"/>
				<polygon points="1055.2,206.5 1055.2,233.6 1022.9,233.6 				"/>
			</g>
			<g>
				<rect x="603.2" y="287.9" class="st1" width="452" height="54.2"/>
				<polygon points="603.2,315 603.2,287.9 635.5,287.9 				"/>
				<polygon points="667.8,315 700.1,342.1 635.5,342.1 				"/>
				<polygon points="732.3,315 700.1,287.9 764.6,287.9 				"/>
				<polygon points="796.9,315 829.2,342.1 764.6,342.1 				"/>
				<polygon points="861.5,315 829.2,287.9 893.8,287.9 				"/>
				<polygon points="926.1,315 958.3,342.1 893.8,342.1 				"/>
				<polygon points="990.6,315 958.3,287.9 1022.9,287.9 				"/>
				<polygon points="1055.2,315 1055.2,342.1 1022.9,342.1 				"/>
			</g>
			<g>
				<rect x="603.2" y="396.4" class="st1" width="452" height="54.2"/>
				<polygon points="603.2,423.5 603.2,396.4 635.5,396.4 				"/>
				<polygon points="667.8,423.5 700.1,450.6 635.5,450.6 				"/>
				<polygon points="732.3,423.5 700.1,396.4 764.6,396.4 				"/>
				<polygon points="796.9,423.5 829.2,450.6 764.6,450.6 				"/>
				<polygon points="861.5,423.5 829.2,396.4 893.8,396.4 				"/>
				<polygon points="926.1,423.5 958.3,450.6 893.8,450.6 				"/>
				<polygon points="990.6,423.5 958.3,396.4 1022.9,396.4 				"/>
				<polygon points="1055.2,423.5 1055.2,450.6 1022.9,450.6 				"/>
			</g>
		</g>
		<g>
			<g>
				<rect x="603.2" y="23.8" class="st4" width="452" height="135.6"/>
			</g>
			<rect x="603.2" y="-111.8" class="st5" width="452" height="135.6"/>
			<g>
				<polygon class="st1" points="1055.2,32.9 998.4,64.5 942,32.9 885.6,64.5 829.2,32.9 772.8,64.5 716.4,32.9 660,64.5 
					603.2,32.9 603.2,-16.8 660,14.8 716.4,-16.8 772.8,14.8 829.2,-16.8 885.6,14.8 942,-16.8 998.4,14.8 1055.2,-16.8 				"/>
			</g>
			<g>
				<circle class="st4" cx="660" cy="-57.5" r="20.3"/>
			</g>
			<g>
				<circle class="st4" cx="772.8" cy="-57.5" r="20.3"/>
			</g>
			<g>
				<circle class="st4" cx="885.6" cy="-57.5" r="20.3"/>
			</g>
			<g>
				<circle class="st4" cx="998.4" cy="-57.5" r="20.3"/>
			</g>
			<circle class="st5" cx="716.4" cy="105.2" r="20.3"/>
			<circle class="st5" cx="829.2" cy="105.2" r="20.3"/>
			<circle class="st5" cx="942" cy="105.2" r="20.3"/>
		</g>
	</g>
	<g class="st0">
		<path class="st6" d="M453.7,154.3c-2.9-6.7-2.8-13,0.4-22.6c8.2-24,0.9-32.7-13.8-38.6c-7-2.7-16.3-3.4-26.4-3.1
			c9.8-2.7,18.5-6.1,24.4-10.8c12.4-10,16.9-20.4,2.3-41c-5.8-8.2-7.7-14.2-6.8-21.5c0.4-3.5-2.7-6.7-6.2-6.3
			c-7.3,0.8-13.3-1.3-21.3-7.2c-20.3-15-30.8-10.7-41,1.4c-4.8,5.8-8.4,14.5-11.3,24.2c0.6-10.1,0-19.5-2.5-26.5
			c-5.6-14.8-14.1-22.2-38.3-14.6c-9.6,3.1-16,3-22.6,0c-3.2-1.5-7.2,0.5-8,4C281-1.1,277.2,4,268.9,9.8
			c-20.7,14.7-19.9,26.1-11.6,39.5c4,6.3,11.1,12.4,19.4,18c-9.4-3.6-18.5-5.9-26-5.6c-15.8,0.8-25.6,6.7-25.9,32
			c-0.1,10.1-2.2,16.1-7.2,21.5c-2.4,2.6-1.8,7,1.3,8.8c6.3,3.7,9.9,8.8,12.9,18.4c7.5,24.2,18.5,26.8,33.9,23
			c7.3-1.9,15.3-6.8,23.3-13c-6.4,7.9-11.5,15.8-13.5,23c-4.2,15.3-1.8,26.4,22.2,34.3c9.6,3.2,14.6,6.9,18.2,13.3
			c1.7,3.1,6.1,3.8,8.8,1.5c5.5-4.9,11.5-6.8,21.6-6.7c25.3,0.2,31.4-9.5,32.5-25.3c0.5-7.5-1.7-16.6-5.1-26.1
			c5.5,8.5,11.4,15.7,17.6,19.8c13.2,8.6,24.5,9.6,39.7-10.8c6-8.1,11.2-11.8,18.4-13.2C453,161.5,455.1,157.5,453.7,154.3z"/>
	</g>
</g>
<g class="st7">
	<g>
		<g>
			<path d="M83.1,76h48.7v22.2h-0.4l-12.5-18.4h-16.6v29.6H129v4.9h-26.8v23l10.8,11.2h-30v-0.6l6.1-10.6V87L83.1,76z"/>
			<path d="M138.4,79.3l19.4-6v66l7.8,9.1h-20v-46.6l-7.2-8.1l7.2-3.1v-3.2L138.4,79.3z"/>
			<path d="M175.2,149.6c-3.2-2.2-6-9.8-6-18.4c0-19.7,12.1-34.2,34.2-34.6h12.1l-4,5.7v37l7.8,9.1h-20.2v-27.2l1.3-12.3
				c-3.7,15.1-11,29.4-17.3,39.5L175.2,149.6z M199.3,99.7c-14.2,0.1-16.9,15.1-16.9,25.8c0,10.4,1.2,14.8,2.4,14.8
				C186.8,140.3,199.2,110.9,199.3,99.7z"/>
			<path d="M228.8,149.6c-3.2-2.2-6-9.8-6-18.4c0-19.3,11.9-34.2,34.2-34.6H269l-4,5.8c-0.1,11-0.1,22.1-0.2,33.2v0.8h0.1l-0.2,2.8
				v1.3c0,17.6-18.7,32.6-32.5,32.6h-0.6l-11.7-14.4l0.6-0.7c6.1,5.1,16.1,8.8,20.4,8.8c6.8,0,11.6-4,11.7-21v-24.6l1.3-12.3
				c-3.7,15.1-11,29.4-17.3,39.5L228.8,149.6z M252.8,99.7c-14.2,0.1-16.9,15.1-16.9,25.8c0,10.4,1.2,14.8,2.4,14.8
				C240.3,140.3,252.7,110.9,252.8,99.7z"/>
			<path d="M301.9,112.4c-4-6.2-9.3-10.7-14-10.7c-3,0-3.7,1.4-3.7,4c0,7.4,21.2,15.7,21.2,26.9c0,7-5.9,15.9-19.6,15.9h-8.7
				l-2.5-18l0.3-1c5.7,8.4,11.1,14.9,17.3,14.9c3.2,0,4.9-1.4,4.9-4.2c0-10.4-20.9-15.7-20.9-27.2c0-7.5,6.7-16.4,18.3-16.4h7.5
				l0.5,15.7L301.9,112.4z"/>
			<path d="M102.6,185.9c-2.9,0-5.1,8.5-2.9,16.5h17v2.5l-17,3.2v19.1c0,30.2-5.5,33.2-10.3,51.3h-0.8l-1.1-45.6v-23.8l-7.4-6.7h7.9
				c0-4.2,8.3-18.6,22-21.7l4.3-1l4,13.9l-0.3,0.3L102.6,185.9z"/>
			<path d="M143.4,201.2c13.2,0,21.3,9,21.3,23c0,16.5-12.5,31.6-26.9,31.6c-11.3,0-20-8.3-20-22.5
				C117.8,216.2,128.5,201.2,143.4,201.2z M131.1,226.1c0,17.6,7,26.1,10.2,26.1c3.2,0,9.4-5.9,9.4-23.4c0-18.6-8.3-24.3-11.4-24.3
				C136.1,204.6,131.1,207.4,131.1,226.1z"/>
			<path d="M198,215c-1.5,0.6-10.5,22.1-10.5,32.8l0.8,6.5h-13v-37.7l-7.2-8.1l19.4-7.1V235c3.1-11.9,8.3-25.2,14.5-34.1h1.4
				l8.9,17.5l-0.3,0.4L198,215z"/>
			<path d="M86.8,361.3c-3.2-2.2-6-9.8-6-18.4c0-19.7,12.1-34.2,34.2-34.6H127l-4,5.7v37l7.8,9.1h-20.2v-27.2l1.3-12.3
				c-3.7,15.1-11,29.4-17.3,39.5L86.8,361.3z M110.8,311.3c-14.2,0.1-16.9,15.1-16.9,25.8c0,10.4,1.2,14.8,2.4,14.8
				C98.3,352,110.7,322.6,110.8,311.3z"/>
			<path d="M98.1,448.2c4.1-15.7,12.4-31,14.6-34.1l10.4-2.6c2.8,8.5,3,11.5,3,33.1v12.3l7.8,9.1h-20v-15.2c0-16.5-1-23.9-2.1-28
				l-0.8-0.1c-5.3,10.5-12.8,28-12.8,36.9l1.6,6.5H85.9v-37.7l-7.2-8.1l19.4-7.1V448.2z"/>
			<path d="M176.2,443c-2.8,9.1-12.1,24.2-22.3,24.2c-9.4,0-15.7-7.1-15.7-21.2c0-15.2,10.8-33.3,23.8-33.3
				c10.1,0,13.2,10.1,13.2,12.2l-23.3,20c1,8.8,3.8,14.8,7.6,14.8c7.6,0,14.9-17.8,14.9-17.8L176.2,443z M163.9,430.8
				c-0.5-10.7-5.8-15.8-7.2-14.8c-1.9,1.2-5.2,4.7-5.2,21.6c0,1.7,0.1,3.3,0.2,4.8L163.9,430.8z"/>
			<path d="M251.3,414.1c-1.3,17.1-12,48.1-29.2,53.4l-5.2-29.4c-5,13.3-13.1,26.1-23.6,29.4l-7-39.5l-9.8-7.3l19.1-10.1l7.9,46.6
				l-0.1,0.4c7.6-7.1,11.7-19.6,11.9-28.9c-0.6-3.3-1.4-6.4-3.2-14.7h12.7l7.5,43.2l-0.1,0.4c11.5-10.4,14.1-34.7,10.4-37.8
				l-6.4-5.2v-0.6H251.3z"/>
			<path d="M181.4,499.3l-6.8,9.1L153,573.1h-6.1l-14.6-41.2l-14.4,41.2h-6.1l-25-67.5l-5.2-6.2h27.5l-8.1,6.5l16.6,46.5l1,3.9
				l11.5-30.5l-7.3-20.3l-5-6h27.5l-8.3,6.5l15.7,46.5l1.2,4.7l15.1-48.4l-8.7-9.2H181.4z"/>
			<path d="M203.2,518.7c13.2,0,21.3,9,21.3,23c0,16.5-12.5,31.6-26.9,31.6c-11.3,0-20-8.3-20-22.5
				C177.6,533.7,188.3,518.7,203.2,518.7z M190.9,543.7c0,17.6,7,26.1,10.2,26.1c3.2,0,9.4-5.9,9.4-23.4c0-18.6-8.3-24.3-11.4-24.3
				C195.9,522.1,190.9,524.9,190.9,543.7z"/>
			<path d="M257.8,532.6c-1.5,0.6-10.5,22.1-10.5,32.8l0.8,6.5h-13v-37.7L228,526l19.4-7.1v33.7c3.1-11.9,8.3-25.2,14.5-34.1h1.4
				l8.9,17.5l-0.3,0.4L257.8,532.6z"/>
			<path d="M272.1,502.7l19.4-6v66l7.8,9.1h-20v-46.6l-7.2-8.1l7.2-3.1v-3.2L272.1,502.7z"/>
			<path d="M333.4,572.8v-28.2l1.3-12.3c-3.7,15.1-11,29.4-17.3,39.5l-7.8,1.2c-3.2-2.2-6.7-9.8-6.7-18.4c0-18,10.9-32.3,30.7-34.4
				v-9.3l-7.2-8.1l19.4-6v67.7l7.8,7.4L333.4,572.8z M333.6,523c-14.2,0.1-17.6,15.1-17.6,25.8c0,10.4,1.8,14.8,3.1,14.8
				C321.1,563.7,333.5,534.3,333.6,523z"/>
		</g>
		<g>
			<path d="M1186,622H28V24h1158V622z M36,614h1142V32H36V614z"/>
		</g>
	</g>
</g>
<g>
	<g>
		<g>
			<path class="st1" d="M76.1,68h48.7v22.2h-0.4l-12.5-18.4H95.2v29.6H122v4.9H95.2v23l10.8,11.2h-30v-0.6l6.1-10.6V79L76.1,68z"/>
			<path class="st1" d="M131.4,71.3l19.4-6v66l7.8,9.1h-20V93.9l-7.2-8.1l7.2-3.1v-3.2L131.4,71.3z"/>
			<path class="st1" d="M168.2,141.6c-3.2-2.2-6-9.8-6-18.4c0-19.7,12.1-34.2,34.2-34.6h12.1l-4,5.7v37l7.8,9.1h-20.2v-27.2
				l1.3-12.3c-3.7,15.1-11,29.4-17.3,39.5L168.2,141.6z M192.3,91.7c-14.2,0.1-16.9,15.1-16.9,25.8c0,10.4,1.2,14.8,2.4,14.8
				C179.8,132.3,192.2,102.9,192.3,91.7z"/>
			<path class="st1" d="M221.8,141.6c-3.2-2.2-6-9.8-6-18.4c0-19.3,11.9-34.2,34.2-34.6H262l-4,5.8c-0.1,11-0.1,22.1-0.2,33.2v0.8
				h0.1l-0.2,2.8v1.3c0,17.6-18.7,32.6-32.5,32.6h-0.6l-11.7-14.4l0.6-0.7c6.1,5.1,16.1,8.8,20.4,8.8c6.8,0,11.6-4,11.7-21v-24.6
				l1.3-12.3c-3.7,15.1-11,29.4-17.3,39.5L221.8,141.6z M245.8,91.7c-14.2,0.1-16.9,15.1-16.9,25.8c0,10.4,1.2,14.8,2.4,14.8
				C233.3,132.3,245.7,102.9,245.8,91.7z"/>
			<path class="st1" d="M294.9,104.4c-4-6.2-9.3-10.7-14-10.7c-3,0-3.7,1.4-3.7,4c0,7.4,21.2,15.7,21.2,26.9c0,7-5.9,15.9-19.6,15.9
				h-8.7l-2.5-18l0.3-1c5.7,8.4,11.1,14.9,17.3,14.9c3.2,0,4.9-1.4,4.9-4.2c0-10.4-20.9-15.7-20.9-27.2c0-7.5,6.7-16.4,18.3-16.4
				h7.5l0.5,15.7L294.9,104.4z"/>
			<path class="st1" d="M95.6,177.9c-2.9,0-5.1,8.5-2.9,16.5h17v2.5l-17,3.2v19.1c0,30.2-5.5,33.2-10.3,51.3h-0.8l-1.1-45.6v-23.8
				l-7.4-6.7h7.9c0-4.2,8.3-18.6,22-21.7l4.3-1l4,13.9l-0.3,0.3L95.6,177.9z"/>
			<path class="st1" d="M136.4,193.2c13.2,0,21.3,9,21.3,23c0,16.5-12.5,31.6-26.9,31.6c-11.3,0-20-8.3-20-22.5
				C110.8,208.2,121.5,193.2,136.4,193.2z M124.1,218.1c0,17.6,7,26.1,10.2,26.1c3.2,0,9.4-5.9,9.4-23.4c0-18.6-8.3-24.3-11.4-24.3
				C129.1,196.6,124.1,199.4,124.1,218.1z"/>
			<path class="st1" d="M191,207c-1.5,0.6-10.5,22.1-10.5,32.8l0.8,6.5h-13v-37.7l-7.2-8.1l19.4-7.1V227
				c3.1-11.9,8.3-25.2,14.5-34.1h1.4l8.9,17.5l-0.3,0.4L191,207z"/>
			<path class="st1" d="M79.8,353.3c-3.2-2.2-6-9.8-6-18.4c0-19.7,12.1-34.2,34.2-34.6H120l-4,5.7v37l7.8,9.1h-20.2v-27.2l1.3-12.3
				c-3.7,15.1-11,29.4-17.3,39.5L79.8,353.3z M103.8,303.3c-14.2,0.1-16.9,15.1-16.9,25.8c0,10.4,1.2,14.8,2.4,14.8
				C91.3,344,103.7,314.6,103.8,303.3z"/>
			<path class="st1" d="M91.1,440.2c4.1-15.7,12.4-31,14.6-34.1l10.4-2.6c2.8,8.5,3,11.5,3,33.1v12.3l7.8,9.1h-20v-15.2
				c0-16.5-1-23.9-2.1-28l-0.8-0.1c-5.3,10.5-12.8,28-12.8,36.9l1.6,6.5H78.9v-37.7l-7.2-8.1l19.4-7.1V440.2z"/>
			<path class="st1" d="M169.2,435c-2.8,9.1-12.1,24.2-22.3,24.2c-9.4,0-15.7-7.1-15.7-21.2c0-15.2,10.8-33.3,23.8-33.3
				c10.1,0,13.2,10.1,13.2,12.2l-23.3,20c1,8.8,3.8,14.8,7.6,14.8c7.6,0,14.9-17.8,14.9-17.8L169.2,435z M156.9,422.8
				c-0.5-10.7-5.8-15.8-7.2-14.8c-1.9,1.2-5.2,4.7-5.2,21.6c0,1.7,0.1,3.3,0.2,4.8L156.9,422.8z"/>
			<path class="st1" d="M244.3,406.1c-1.3,17.1-12,48.1-29.2,53.4l-5.2-29.4c-5,13.3-13.1,26.1-23.6,29.4l-7-39.5l-9.8-7.3
				l19.1-10.1l7.9,46.6l-0.1,0.4c7.6-7.1,11.7-19.6,11.9-28.9c-0.6-3.3-1.4-6.4-3.2-14.7h12.7l7.5,43.2l-0.1,0.4
				c11.5-10.4,14.1-34.7,10.4-37.8l-6.4-5.2v-0.6H244.3z"/>
			<path class="st1" d="M174.4,491.3l-6.8,9.1L146,565.1h-6.1l-14.6-41.2l-14.4,41.2h-6.1l-25-67.5l-5.2-6.2h27.5l-8.1,6.5
				l16.6,46.5l1,3.9l11.5-30.5l-7.3-20.3l-5-6h27.5l-8.3,6.5l15.7,46.5l1.2,4.7l15.1-48.4l-8.7-9.2H174.4z"/>
			<path class="st1" d="M196.2,510.7c13.2,0,21.3,9,21.3,23c0,16.5-12.5,31.6-26.9,31.6c-11.3,0-20-8.3-20-22.5
				C170.6,525.7,181.3,510.7,196.2,510.7z M183.9,535.7c0,17.6,7,26.1,10.2,26.1c3.2,0,9.4-5.9,9.4-23.4c0-18.6-8.3-24.3-11.4-24.3
				C188.9,514.1,183.9,516.9,183.9,535.7z"/>
			<path class="st1" d="M250.8,524.6c-1.5,0.6-10.5,22.1-10.5,32.8l0.8,6.5h-13v-37.7L221,518l19.4-7.1v33.7
				c3.1-11.9,8.3-25.2,14.5-34.1h1.4l8.9,17.5l-0.3,0.4L250.8,524.6z"/>
			<path class="st1" d="M265.1,494.7l19.4-6v66l7.8,9.1h-20v-46.6l-7.2-8.1l7.2-3.1v-3.2L265.1,494.7z"/>
			<path class="st1" d="M326.4,564.8v-28.2l1.3-12.3c-3.7,15.1-11,29.4-17.3,39.5l-7.8,1.2c-3.2-2.2-6.7-9.8-6.7-18.4
				c0-18,10.9-32.3,30.7-34.4v-9.3l-7.2-8.1l19.4-6v67.7l7.8,7.4L326.4,564.8z M326.6,515c-14.2,0.1-17.6,15.1-17.6,25.8
				c0,10.4,1.8,14.8,3.1,14.8C314.1,555.7,326.5,526.3,326.6,515z"/>
		</g>
		<g>
			<path class="st1" d="M1179,614H21V16h1158V614z M29,606h1142V24H29V606z"/>
		</g>
	</g>
</g>
</svg>
