<?xml version="1.0" standalone="no"?>
<!DOCTYPE svg PUBLIC "-//W3C//DTD SVG 20010904//EN"
 "http://www.w3.org/TR/2001/REC-SVG-20010904/DTD/svg10.dtd">
<svg version="1.0" xmlns="http://www.w3.org/2000/svg"
 width="700.000000pt" height="700.000000pt" viewBox="0 0 700.000000 700.000000"
 preserveAspectRatio="xMidYMid meet">
<metadata>
Created by potrace 1.11, written by Peter Selinger 2001-2013
</metadata>
<g transform="translate(0.000000,700.000000) scale(0.100000,-0.100000)"
fill="#000000" stroke="none">
<path d="M3435 6986 c-16 -7 -52 -38 -80 -67 -138 -150 -282 -222 -545 -274
-282 -56 -364 -78 -479 -132 -78 -36 -171 -104 -221 -160 -49 -56 -103 -166
-120 -243 -16 -72 -21 -269 -9 -345 31 -199 112 -437 217 -634 l45 -83 -94 94
c-52 52 -110 107 -129 124 -199 170 -421 300 -562 328 -13 3 -48 10 -78 16
-69 14 -190 11 -255 -6 -99 -26 -176 -74 -270 -169 -108 -108 -171 -197 -271
-386 -153 -289 -239 -382 -446 -488 -75 -38 -97 -54 -116 -86 -33 -56 -26
-137 17 -204 90 -139 124 -325 97 -517 -4 -27 -10 -65 -12 -84 -3 -19 -7 -45
-9 -58 -18 -109 -26 -328 -14 -397 4 -22 10 -56 13 -75 26 -167 113 -310 243
-399 96 -65 294 -134 425 -147 136 -14 385 -8 493 11 84 15 132 25 155 31 38
10 24 1 -84 -55 -171 -91 -401 -250 -500 -348 -102 -100 -210 -278 -240 -393
-14 -54 -15 -199 -3 -249 22 -87 67 -182 130 -276 64 -95 110 -150 267 -314
171 -179 241 -317 265 -521 9 -77 13 -91 40 -126 52 -68 111 -84 215 -60 100
24 233 20 343 -9 53 -14 105 -29 115 -35 18 -10 284 -136 317 -150 116 -50
270 -89 376 -96 240 -16 412 84 572 331 38 60 114 209 122 240 1 6 7 24 14 40
44 106 106 367 113 478 2 40 15 52 16 15 0 -65 31 -228 68 -354 100 -346 275
-607 469 -699 93 -44 148 -54 274 -50 157 5 295 49 560 177 68 33 142 67 165
75 161 59 299 67 486 28 47 -10 101 6 141 42 40 37 54 68 64 148 11 94 17 120
36 176 37 111 109 223 221 340 142 151 171 184 226 256 70 92 144 226 167 303
63 208 -8 439 -199 647 -103 113 -334 280 -531 384 -110 58 -122 65 -85 55 23
-6 87 -19 155 -31 184 -32 491 -24 636 16 176 49 271 99 364 193 151 153 198
346 171 696 -4 52 -9 104 -11 115 -54 246 -32 459 62 622 58 99 66 157 31 223
-20 39 -35 51 -103 85 -216 108 -303 199 -440 460 -59 111 -143 256 -155 265
-3 3 -23 28 -43 57 -91 125 -233 229 -362 266 -269 76 -651 -91 -1001 -438
l-111 -110 69 136 c37 75 68 143 68 151 0 8 4 18 9 24 13 14 69 197 92 304 22
100 31 309 16 401 -11 70 -42 154 -82 219 -94 155 -304 269 -595 325 -266 51
-371 80 -475 132 -83 42 -139 85 -219 170 -75 80 -138 101 -211 69z m160
-2928 c257 -30 475 -181 593 -413 25 -50 61 -156 70 -210 13 -75 6 -257 -12
-325 -81 -297 -344 -528 -646 -565 -55 -7 -182 -7 -210 -1 -14 3 -36 8 -50 10
-284 51 -531 299 -594 597 -19 91 -15 258 8 344 78 290 314 506 611 559 87 15
129 16 230 4z"/>
</g>
</svg>
